999
dxflib 2.0.4.8
  0
SECTION
  2
HEADER
  9
$ACADVER
  1
AC1015
  9
$HANDSEED
  5
FFFF
  9
$DIMASZ
 40
2.5
  9
$DIMGAP
 40
0.625
  9
$DIMEXO
 40
0.625
  9
$INSUNITS
 70
4
  9
$DIMTXT
 40
2.5
  9
$GRIDMODE
 70
1
  9
$DIMSTYLE
  2
Standard
  9
$PLIMMAX
 10
210.0
 20
297.0
  9
$PLIMMIN
 10
0.0
 20
0.0
  9
$DIMEXE
 40
1.25
  9
$PINSBASE
 10
-28.4374996635129662
 20
77.5624996635129662
 30
0.0
  0
ENDSEC
  0
SECTION
  2
TABLES
  0
TABLE
  2
VPORT
  5
8
100
AcDbSymbolTable
 70
1
  0
VPORT
  5
30
100
AcDbSymbolTableRecord
100
AcDbViewportTableRecord
  2
*Active
 70
0
 10
0.0
 20
0.0
 11
1.0
 21
1.0
 12
286.3055555555554861
 22
148.5
 13
0.0
 23
0.0
 14
10.0
 24
10.0
 15
10.0
 25
10.0
 16
0.0
 26
0.0
 36
1.0
 17
0.0
 27
0.0
 37
0.0
 40
297.0
 41
1.92798353909465
 42
50.0
 43
0.0
 44
0.0
 50
0.0
 51
0.0
 71
0
 72
100
 73
1
 74
3
 75
1
 76
1
 77
0
 78
0
281
0
 65
1
110
0.0
120
0.0
130
0.0
111
1.0
121
0.0
131
0.0
112
0.0
122
1.0
132
0.0
 79
0
146
0.0
  0
ENDTAB
  0
TABLE
  2
LTYPE
  5
5
100
AcDbSymbolTable
 70
21
  0
LTYPE
  5
14
100
AcDbSymbolTableRecord
100
AcDbLinetypeTableRecord
  2
ByBlock
 70
0
  3

 72
65
 73
0
 40
0.0
  0
LTYPE
  5
15
100
AcDbSymbolTableRecord
100
AcDbLinetypeTableRecord
  2
ByLayer
 70
0
  3

 72
65
 73
0
 40
0.0
  0
LTYPE
  5
16
100
AcDbSymbolTableRecord
100
AcDbLinetypeTableRecord
  2
CONTINUOUS
 70
0
  3
Solid line
 72
65
 73
0
 40
0.0
  0
LTYPE
  5
31
100
AcDbSymbolTableRecord
100
AcDbLinetypeTableRecord
  2
DOT
 70
0
  3
Dot . . . . . . . . . . . . . . . . . . . . . .
 72
65
 73
2
 40
6.3499999999999996
 49
0.0
 74
0
 49
-6.3499999999999996
 74
0
  0
LTYPE
  5
32
100
AcDbSymbolTableRecord
100
AcDbLinetypeTableRecord
  2
DOT2
 70
0
  3
Dot (.5x) .....................................
 72
65
 73
2
 40
3.1749999999999998
 49
0.0
 74
0
 49
-3.1749999999999998
 74
0
  0
LTYPE
  5
33
100
AcDbSymbolTableRecord
100
AcDbLinetypeTableRecord
  2
DOTX2
 70
0
  3
Dot (2x) .  .  .  .  .  .  .  .  .  .  .  .  .
 72
65
 73
2
 40
12.6999999999999993
 49
0.0
 74
0
 49
-12.6999999999999993
 74
0
  0
LTYPE
  5
34
100
AcDbSymbolTableRecord
100
AcDbLinetypeTableRecord
  2
DASHED
 70
0
  3
Dashed __ __ __ __ __ __ __ __ __ __ __ __ __ _
 72
65
 73
2
 40
19.0500000000000007
 49
12.6999999999999993
 74
0
 49
-6.3499999999999996
 74
0
  0
LTYPE
  5
35
100
AcDbSymbolTableRecord
100
AcDbLinetypeTableRecord
  2
DASHED2
 70
0
  3
Dashed (.5x) _ _ _ _ _ _ _ _ _ _ _ _ _ _ _ _ _
 72
65
 73
2
 40
9.5250000000000004
 49
6.3499999999999996
 74
0
 49
-3.1749999999999998
 74
0
  0
LTYPE
  5
36
100
AcDbSymbolTableRecord
100
AcDbLinetypeTableRecord
  2
DASHEDX2
 70
0
  3
Dashed (2x) ____  ____  ____  ____  ____  ___
 72
65
 73
2
 40
38.1000000000000014
 49
25.3999999999999986
 74
0
 49
-12.6999999999999993
 74
0
  0
LTYPE
  5
37
100
AcDbSymbolTableRecord
100
AcDbLinetypeTableRecord
  2
DASHDOT
 70
0
  3
Dash dot __ . __ . __ . __ . __ . __ . __ . __
 72
65
 73
4
 40
25.3999999999999986
 49
12.6999999999999993
 74
0
 49
-6.3499999999999996
 74
0
 49
0.0
 74
0
 49
-6.3499999999999996
 74
0
  0
LTYPE
  5
38
100
AcDbSymbolTableRecord
100
AcDbLinetypeTableRecord
  2
DASHDOT2
 70
0
  3
Dash dot (.5x) _._._._._._._._._._._._._._._.
 72
65
 73
4
 40
12.6999999999999993
 49
6.3499999999999996
 74
0
 49
-3.1749999999999998
 74
0
 49
0.0
 74
0
 49
-3.1749999999999998
 74
0
  0
LTYPE
  5
39
100
AcDbSymbolTableRecord
100
AcDbLinetypeTableRecord
  2
DASHDOTX2
 70
0
  3
Dash dot (2x) ____  .  ____  .  ____  .  ___
 72
65
 73
4
 40
50.7999999999999972
 49
25.3999999999999986
 74
0
 49
-12.6999999999999993
 74
0
 49
0.0
 74
0
 49
-12.6999999999999993
 74
0
  0
LTYPE
  5
3A
100
AcDbSymbolTableRecord
100
AcDbLinetypeTableRecord
  2
DIVIDE
 70
0
  3
Divide ____ . . ____ . . ____ . . ____ . . ____
 72
65
 73
6
 40
31.75
 49
12.6999999999999993
 74
0
 49
-6.3499999999999996
 74
0
 49
0.0
 74
0
 49
-6.3499999999999996
 74
0
 49
0.0
 74
0
 49
-6.3499999999999996
 74
0
  0
LTYPE
  5
3B
100
AcDbSymbolTableRecord
100
AcDbLinetypeTableRecord
  2
DIVIDE2
 70
0
  3
Divide (.5x) __..__..__..__..__..__..__..__.._
 72
65
 73
6
 40
15.875
 49
6.3499999999999996
 74
0
 49
-3.1749999999999998
 74
0
 49
0.0
 74
0
 49
-3.1749999999999998
 74
0
 49
0.0
 74
0
 49
-3.1749999999999998
 74
0
  0
LTYPE
  5
3C
100
AcDbSymbolTableRecord
100
AcDbLinetypeTableRecord
  2
DIVIDEX2
 70
0
  3
Divide (2x) ________  .  .  ________  .  .  _
 72
65
 73
6
 40
63.5
 49
25.3999999999999986
 74
0
 49
-12.6999999999999993
 74
0
 49
0.0
 74
0
 49
-12.6999999999999993
 74
0
 49
0.0
 74
0
 49
-12.6999999999999993
 74
0
  0
LTYPE
  5
3D
100
AcDbSymbolTableRecord
100
AcDbLinetypeTableRecord
  2
CENTER
 70
0
  3
Center ____ _ ____ _ ____ _ ____ _ ____ _ ____
 72
65
 73
4
 40
50.7999999999999972
 49
31.75
 74
0
 49
-6.3499999999999996
 74
0
 49
6.3499999999999996
 74
0
 49
-6.3499999999999996
 74
0
  0
LTYPE
  5
3E
100
AcDbSymbolTableRecord
100
AcDbLinetypeTableRecord
  2
CENTER2
 70
0
  3
Center (.5x) ___ _ ___ _ ___ _ ___ _ ___ _ ___
 72
65
 73
4
 40
28.5749999999999993
 49
19.0500000000000007
 74
0
 49
-3.1749999999999998
 74
0
 49
3.1749999999999998
 74
0
 49
-3.1749999999999998
 74
0
  0
LTYPE
  5
3F
100
AcDbSymbolTableRecord
100
AcDbLinetypeTableRecord
  2
CENTERX2
 70
0
  3
Center (2x) ________  __  ________  __  _____
 72
65
 73
4
 40
101.5999999999999943
 49
63.5
 74
0
 49
-12.6999999999999993
 74
0
 49
12.6999999999999993
 74
0
 49
-12.6999999999999993
 74
0
  0
LTYPE
  5
40
100
AcDbSymbolTableRecord
100
AcDbLinetypeTableRecord
  2
BORDER
 70
0
  3
Border __ __ . __ __ . __ __ . __ __ . __ __ .
 72
65
 73
6
 40
44.4500000000000028
 49
12.6999999999999993
 74
0
 49
-6.3499999999999996
 74
0
 49
12.6999999999999993
 74
0
 49
-6.3499999999999996
 74
0
 49
0.0
 74
0
 49
-6.3499999999999996
 74
0
  0
LTYPE
  5
41
100
AcDbSymbolTableRecord
100
AcDbLinetypeTableRecord
  2
BORDER2
 70
0
  3
Border (.5x) __.__.__.__.__.__.__.__.__.__.__.
 72
65
 73
6
 40
22.2250000000000014
 49
6.3499999999999996
 74
0
 49
-3.1749999999999998
 74
0
 49
6.3499999999999996
 74
0
 49
-3.1749999999999998
 74
0
 49
0.0
 74
0
 49
-3.1749999999999998
 74
0
  0
LTYPE
  5
42
100
AcDbSymbolTableRecord
100
AcDbLinetypeTableRecord
  2
BORDERX2
 70
0
  3
Border (2x) ____  ____  .  ____  ____  .  ___
 72
65
 73
6
 40
88.9000000000000057
 49
25.3999999999999986
 74
0
 49
-12.6999999999999993
 74
0
 49
25.3999999999999986
 74
0
 49
-12.6999999999999993
 74
0
 49
0.0
 74
0
 49
-12.6999999999999993
 74
0
  0
ENDTAB
  0
TABLE
  2
LAYER
  5
2
100
AcDbSymbolTable
 70
4
  0
LAYER
  5
10
100
AcDbSymbolTableRecord
100
AcDbLayerTableRecord
  2
0
 70
0
 62
7
  6
CONTINUOUS
370
35
390
F
  0
LAYER
  5
43
100
AcDbSymbolTableRecord
100
AcDbLayerTableRecord
  2
Dimensions
 70
0
 62
7
  6
CONTINUOUS
370
13
390
F
  0
LAYER
  5
44
100
AcDbSymbolTableRecord
100
AcDbLayerTableRecord
  2
Hidden
 70
0
 62
7
  6
DASHED
370
13
390
F
  0
LAYER
  5
45
100
AcDbSymbolTableRecord
100
AcDbLayerTableRecord
  2
Center
 70
0
 62
7
  6
CENTER
370
13
390
F
  0
ENDTAB
  0
TABLE
  2
STYLE
  5
3
100
AcDbSymbolTable
 70
1
  0
STYLE
  5
11
100
AcDbSymbolTableRecord
100
AcDbTextStyleTableRecord
  2
Standard
 70
0
 40
0.0
 41
0.75
 50
0.0
 71
0
 42
2.5
  3
txt
  4

  0
ENDTAB
  0
TABLE
  2
VIEW
  5
6
100
AcDbSymbolTable
 70
0
  0
ENDTAB
  0
TABLE
  2
UCS
  5
7
100
AcDbSymbolTable
 70
0
  0
ENDTAB
  0
TABLE
  2
APPID
  5
9
100
AcDbSymbolTable
 70
1
  0
APPID
  5
12
100
AcDbSymbolTableRecord
100
AcDbRegAppTableRecord
  2
ACAD
 70
0
  0
ENDTAB
  0
TABLE
  2
DIMSTYLE
  5
A
100
AcDbSymbolTable
 70
1
100
AcDbDimStyleTable
 71
0
  0
DIMSTYLE
105
27
100
AcDbSymbolTableRecord
100
AcDbDimStyleTableRecord
  2
Standard
 41
2.5
 42
0.625
 43
3.75
 44
1.25
 70
0
 73
0
 74
0
 77
1
 78
8
140
2.5
141
2.5
143
0.03937007874016
147
0.625
171
3
172
1
271
2
272
2
274
3
278
44
283
0
284
8
340
11
  0
ENDTAB
  0
TABLE
  2
BLOCK_RECORD
  5
1
100
AcDbSymbolTable
 70
1
  0
BLOCK_RECORD
  5
1F
100
AcDbSymbolTableRecord
100
AcDbBlockTableRecord
  2
*Model_Space
340
22
  0
BLOCK_RECORD
  5
1B
100
AcDbSymbolTableRecord
100
AcDbBlockTableRecord
  2
*Paper_Space
340
1E
  0
BLOCK_RECORD
  5
23
100
AcDbSymbolTableRecord
100
AcDbBlockTableRecord
  2
*Paper_Space0
340
26
  0
BLOCK_RECORD
  5
46
100
AcDbSymbolTableRecord
100
AcDbBlockTableRecord
  2
M4 Thread
340
0
  0
BLOCK_RECORD
  5
47
100
AcDbSymbolTableRecord
100
AcDbBlockTableRecord
  2
M3 Thread
340
0
  0
ENDTAB
  0
ENDSEC
  0
SECTION
  2
BLOCKS
  0
BLOCK
  5
20
100
AcDbEntity
  8
0
100
AcDbBlockBegin
  2
*Model_Space
 70
0
 10
0.0
 20
0.0
 30
0.0
  3
*Model_Space
  1

  0
ENDBLK
  5
21
100
AcDbEntity
  8
0
100
AcDbBlockEnd
  0
BLOCK
  5
1C
100
AcDbEntity
 67
1
  8
0
100
AcDbBlockBegin
  2
*Paper_Space
 70
0
 10
0.0
 20
0.0
 30
0.0
  3
*Paper_Space
  1

  0
ENDBLK
  5
1D
100
AcDbEntity
 67
1
  8
0
100
AcDbBlockEnd
  0
BLOCK
  5
24
100
AcDbEntity
  8
0
100
AcDbBlockBegin
  2
*Paper_Space0
 70
0
 10
0.0
 20
0.0
 30
0.0
  3
*Paper_Space0
  1

  0
ENDBLK
  5
25
100
AcDbEntity
  8
0
100
AcDbBlockEnd
  0
BLOCK
  5
48
100
AcDbEntity
  8
0
100
AcDbBlockBegin
  2
M4 Thread
 70
0
 10
0.0
 20
0.0
 30
0.0
  3
M4 Thread
  1

  0
LINE
  5
49
100
AcDbEntity
100
AcDbLine
  8
Center
 62
256
370
-1
  6
ByLayer
 10
3.4000000000000057
 20
0.0000000000000142
 30
0.0
 11
-21.0
 21
-0.0000000000000142
 31
0.0
  0
LINE
  5
4A
100
AcDbEntity
100
AcDbLine
  8
Hidden
 62
256
370
-1
  6
ByLayer
 10
0.0
 20
2.0
 30
0.0
 11
-12.0
 21
2.0
 31
0.0
  0
LINE
  5
4B
100
AcDbEntity
100
AcDbLine
  8
Hidden
 62
256
370
-1
  6
ByLayer
 10
-12.0
 20
2.0
 30
0.0
 11
-12.0
 21
-2.0
 31
0.0
  0
LINE
  5
4C
100
AcDbEntity
100
AcDbLine
  8
Hidden
 62
256
370
-1
  6
ByLayer
 10
-12.0
 20
-2.0
 30
0.0
 11
0.0
 21
-2.0
 31
0.0
  0
LINE
  5
4D
100
AcDbEntity
100
AcDbLine
  8
Hidden
 62
256
370
-1
  6
ByLayer
 10
-12.0
 20
-2.0
 30
0.0
 11
-12.3133967332029783
 21
-1.75
 31
0.0
  0
LINE
  5
4E
100
AcDbEntity
100
AcDbLine
  8
Hidden
 62
256
370
-1
  6
ByLayer
 10
-12.3133967332029783
 20
-1.75
 30
0.0
 11
-12.3133967332029783
 21
1.75
 31
0.0
  0
LINE
  5
4F
100
AcDbEntity
100
AcDbLine
  8
Hidden
 62
256
370
-1
  6
ByLayer
 10
-12.3133967332029783
 20
1.75
 30
0.0
 11
-12.0
 21
2.0
 31
0.0
  0
LINE
  5
50
100
AcDbEntity
100
AcDbLine
  8
Hidden
 62
256
370
-1
  6
ByLayer
 10
0.0
 20
1.6500000000000057
 30
0.0
 11
-16.0
 21
1.6500000000000057
 31
0.0
  0
LINE
  5
51
100
AcDbEntity
100
AcDbLine
  8
Hidden
 62
256
370
-1
  6
ByLayer
 10
-16.0
 20
1.6500000000000057
 30
0.0
 11
-16.0
 21
-1.6499999999999915
 31
0.0
  0
LINE
  5
52
100
AcDbEntity
100
AcDbLine
  8
Hidden
 62
256
370
-1
  6
ByLayer
 10
-16.0
 20
-1.6499999999999915
 30
0.0
 11
0.0
 21
-1.6499999999999915
 31
0.0
  0
LINE
  5
53
100
AcDbEntity
100
AcDbLine
  8
Hidden
 62
256
370
-1
  6
ByLayer
 10
-16.0
 20
1.6500000000000057
 30
0.0
 11
-17.1273365188417017
 21
-0.0000000000000142
 31
0.0
  0
LINE
  5
54
100
AcDbEntity
100
AcDbLine
  8
Hidden
 62
256
370
-1
  6
ByLayer
 10
-17.1273365188417017
 20
-0.0000000000000142
 30
0.0
 11
-16.0
 21
-1.6499999999999915
 31
0.0
  0
ENDBLK
  5
55
100
AcDbEntity
  8
0
100
AcDbBlockEnd
  0
BLOCK
  5
56
100
AcDbEntity
  8
0
100
AcDbBlockBegin
  2
M3 Thread
 70
0
 10
0.0
 20
0.0
 30
0.0
  3
M3 Thread
  1

  0
LINE
  5
57
100
AcDbEntity
100
AcDbLine
  8
Hidden
 62
256
370
-1
  6
ByLayer
 10
-1.25
 20
0.0
 30
0.0
 11
-1.25
 21
-14.0
 31
0.0
  0
LINE
  5
58
100
AcDbEntity
100
AcDbLine
  8
Hidden
 62
256
370
-1
  6
ByLayer
 10
1.25
 20
0.0
 30
0.0
 11
1.25
 21
-14.0
 31
0.0
  0
LINE
  5
59
100
AcDbEntity
100
AcDbLine
  8
Hidden
 62
256
370
-1
  6
ByLayer
 10
-1.25
 20
-14.0
 30
0.0
 11
0.0
 21
-15.0
 31
0.0
  0
LINE
  5
5A
100
AcDbEntity
100
AcDbLine
  8
Hidden
 62
256
370
-1
  6
ByLayer
 10
0.0
 20
-15.0
 30
0.0
 11
1.25
 21
-14.0
 31
0.0
  0
LINE
  5
5B
100
AcDbEntity
100
AcDbLine
  8
Hidden
 62
256
370
-1
  6
ByLayer
 10
1.25
 20
-14.0
 30
0.0
 11
-1.25
 21
-14.0
 31
0.0
  0
LINE
  5
5C
100
AcDbEntity
100
AcDbLine
  8
Center
 62
256
370
-1
  6
ByLayer
 10
0.0
 20
5.0
 30
0.0
 11
0.0
 21
-17.0
 31
0.0
  0
LINE
  5
5D
100
AcDbEntity
100
AcDbLine
  8
Hidden
 62
256
370
-1
  6
ByLayer
 10
1.5
 20
0.0
 30
0.0
 11
1.5
 21
-10.0
 31
0.0
  0
LINE
  5
5E
100
AcDbEntity
100
AcDbLine
  8
Hidden
 62
256
370
-1
  6
ByLayer
 10
1.5
 20
-10.0
 30
0.0
 11
-1.5
 21
-10.0
 31
0.0
  0
LINE
  5
5F
100
AcDbEntity
100
AcDbLine
  8
Hidden
 62
256
370
-1
  6
ByLayer
 10
-1.5
 20
-10.0
 30
0.0
 11
-1.5
 21
0.0
 31
0.0
  0
LINE
  5
60
100
AcDbEntity
100
AcDbLine
  8
Hidden
 62
256
370
-1
  6
ByLayer
 10
1.5
 20
-10.0
 30
0.0
 11
1.3000000000000114
 21
-10.1999999999999886
 31
0.0
  0
LINE
  5
61
100
AcDbEntity
100
AcDbLine
  8
Hidden
 62
256
370
-1
  6
ByLayer
 10
1.3000000000000114
 20
-10.1999999999999886
 30
0.0
 11
-1.2999999999999829
 21
-10.1999999999999886
 31
0.0
  0
LINE
  5
62
100
AcDbEntity
100
AcDbLine
  8
Hidden
 62
256
370
-1
  6
ByLayer
 10
-1.2999999999999829
 20
-10.1999999999999886
 30
0.0
 11
-1.5
 21
-10.0
 31
0.0
  0
ENDBLK
  5
63
100
AcDbEntity
  8
0
100
AcDbBlockEnd
  0
ENDSEC
  0
SECTION
  2
ENTITIES
  0
LINE
  5
64
100
AcDbEntity
100
AcDbLine
  8
0
 62
256
370
-1
  6
ByLayer
 10
100.0
 20
100.0
 30
0.0
 11
100.0
 21
58.5000000000000071
 31
0.0
  0
LINE
  5
65
100
AcDbEntity
100
AcDbLine
  8
0
 62
256
370
-1
  6
ByLayer
 10
100.0
 20
58.5000000000000071
 30
0.0
 11
97.0
 21
58.5000000000000071
 31
0.0
  0
LINE
  5
66
100
AcDbEntity
100
AcDbLine
  8
0
 62
256
370
-1
  6
ByLayer
 10
97.0
 20
58.5000000000000071
 30
0.0
 11
97.0
 21
40.0
 31
0.0
  0
LINE
  5
67
100
AcDbEntity
100
AcDbLine
  8
0
 62
256
370
-1
  6
ByLayer
 10
97.0
 20
40.0
 30
0.0
 11
162.0
 21
40.0
 31
0.0
  0
LINE
  5
68
100
AcDbEntity
100
AcDbLine
  8
0
 62
256
370
-1
  6
ByLayer
 10
162.0
 20
40.0
 30
0.0
 11
162.0
 21
100.0
 31
0.0
  0
LINE
  5
69
100
AcDbEntity
100
AcDbLine
  8
0
 62
256
370
-1
  6
ByLayer
 10
162.0
 20
100.0
 30
0.0
 11
100.0
 21
100.0
 31
0.0
  0
DIMENSION
  5
6A
100
AcDbEntity
  8
Dimensions
 62
256
370
-1
  6
ByLayer
100
AcDbDimension
 10
80.0
 20
100.0
 30
0.0
 11
78.125
 21
70.0
 31
0.0
 70
0
 71
5
 72
1
 41
1.0
 42
0.0
  1

  3
Standard
100
AcDbAlignedDimension
 13
97.0
 23
40.0
 33
0.0
 14
100.0
 24
100.0
 34
0.0
 50
90.0
100
AcDbRotatedDimension
  0
DIMENSION
  5
6B
100
AcDbEntity
  8
Dimensions
 62
256
370
-1
  6
ByLayer
100
AcDbDimension
 10
90.0
 20
58.5000000000000071
 30
0.0
 11
88.125
 21
79.25
 31
0.0
 70
0
 71
5
 72
1
 41
1.0
 42
0.0
  1

  3
Standard
100
AcDbAlignedDimension
 13
100.0
 23
100.0
 33
0.0
 14
100.0
 24
58.5000000000000071
 34
0.0
 50
90.0
100
AcDbRotatedDimension
  0
DIMENSION
  5
6C
100
AcDbEntity
  8
Dimensions
 62
256
370
-1
  6
ByLayer
100
AcDbDimension
 10
162.0
 20
110.0
 30
0.0
 11
131.0
 21
111.875
 31
0.0
 70
0
 71
5
 72
1
 41
1.0
 42
0.0
  1

  3
Standard
100
AcDbAlignedDimension
 13
100.0
 23
100.0
 33
0.0
 14
162.0
 24
100.0
 34
0.0
 50
0.0
100
AcDbRotatedDimension
  0
DIMENSION
  5
6D
100
AcDbEntity
  8
Dimensions
 62
256
370
-1
  6
ByLayer
100
AcDbDimension
 10
162.0
 20
30.0
 30
0.0
 11
129.5
 21
31.875
 31
0.0
 70
0
 71
5
 72
1
 41
1.0
 42
0.0
  1

  3
Standard
100
AcDbAlignedDimension
 13
97.0
 23
40.0
 33
0.0
 14
162.0
 24
40.0
 34
0.0
 50
0.0
100
AcDbRotatedDimension
  0
LINE
  5
6E
100
AcDbEntity
100
AcDbLine
  8
Hidden
 62
256
370
-1
  6
ByLayer
 10
162.0
 20
95.5
 30
0.0
 11
162.0
 21
93.75
 31
0.0
  0
LINE
  5
6F
100
AcDbEntity
100
AcDbLine
  8
Hidden
 62
256
370
-1
  6
ByLayer
 10
149.6866032667970217
 20
97.25
 30
0.0
 11
149.6866032667970217
 21
97.25
 31
0.0
  0
LINE
  5
70
100
AcDbEntity
100
AcDbLine
  8
Hidden
 62
256
370
-1
  6
ByLayer
 10
146.0
 20
97.1500000000000057
 30
0.0
 11
146.0
 21
97.1500000000000057
 31
0.0
  0
DIMENSION
  5
71
100
AcDbEntity
  8
Dimensions
 62
256
370
-1
  6
ByLayer
100
AcDbDimension
 10
172.0
 20
93.5
 30
0.0
 11
170.125
 21
95.5
 31
0.0
 70
0
 71
5
 72
0
 41
1.0
 42
0.0
  1

  3
Standard
100
AcDbAlignedDimension
 13
162.0
 23
97.5
 33
0.0
 14
162.0
 24
93.5
 34
0.0
 50
90.0
100
AcDbRotatedDimension
  0
INSERT
  5
72
100
AcDbEntity
100
AcDbBlockReference
  8
Center
 62
256
370
-1
  6
ByLayer
  2
M4 Thread
 10
162.0
 20
95.5
 30
0.0
  0
INSERT
  5
73
100
AcDbEntity
100
AcDbBlockReference
  8
Center
 62
256
370
-1
  6
ByLayer
  2
M4 Thread
 10
162.0
 20
48.5
 30
0.0
 44
1.0
 45
1.0
  0
DIMENSION
  5
74
100
AcDbEntity
  8
Dimensions
 62
256
370
-1
  6
ByLayer
100
AcDbDimension
 10
172.0
 20
46.5
 30
0.0
 11
170.125
 21
48.5
 31
0.0
 70
0
 71
5
 72
1
 41
1.0
 42
0.0
  1

  3
Standard
100
AcDbAlignedDimension
 13
162.0
 23
50.5
 33
0.0
 14
162.0
 24
46.5
 34
0.0
 50
90.0
100
AcDbRotatedDimension
  0
DIMENSION
  5
75
100
AcDbEntity
  8
Dimensions
 62
256
370
-1
  6
ByLayer
100
AcDbDimension
 10
135.0
 20
48.5
 30
0.0
 11
133.125
 21
72.0
 31
0.0
 70
0
 71
5
 72
1
 41
1.0
 42
0.0
  1

  3
Standard
100
AcDbAlignedDimension
 13
144.8726634811582983
 23
95.5
 33
0.0
 14
141.0
 24
48.5
 34
0.0
 50
90.0
100
AcDbRotatedDimension
  0
DIMENSION
  5
76
100
AcDbEntity
  8
Dimensions
 62
256
370
-1
  6
ByLayer
100
AcDbDimension
 10
135.0
 20
100.0
 30
0.0
 11
133.125
 21
97.75
 31
0.0
 70
0
 71
5
 72
1
 41
1.0
 42
0.0
  1

  3
Standard
100
AcDbAlignedDimension
 13
141.0
 23
95.4999999999999858
 33
0.0
 14
162.0
 24
100.0
 34
0.0
 50
90.0
100
AcDbRotatedDimension
  0
DIMENSION
  5
77
100
AcDbEntity
  8
Dimensions
 62
256
370
-1
  6
ByLayer
100
AcDbDimension
 10
104.0
 20
86.0
 30
0.0
 11
102.125
 21
93.0
 31
0.0
 70
0
 71
5
 72
0
 41
1.0
 42
0.0
  1

  3
Standard
100
AcDbAlignedDimension
 13
109.25
 23
100.0
 33
0.0
 14
109.25
 24
86.0
 34
0.0
 50
90.0
100
AcDbRotatedDimension
  0
INSERT
  5
78
100
AcDbEntity
100
AcDbBlockReference
  8
Hidden
 62
256
370
-1
  6
ByLayer
  2
M3 Thread
 10
108.0
 20
100.0
 30
0.0
  0
DIMENSION
  5
79
100
AcDbEntity
  8
Dimensions
 62
256
370
-1
  6
ByLayer
100
AcDbDimension
 10
114.0
 20
90.0
 30
0.0
 11
112.125
 21
95.0
 31
0.0
 70
0
 71
5
 72
0
 41
1.0
 42
0.0
  1

  3
Standard
100
AcDbAlignedDimension
 13
109.5
 23
100.0
 33
0.0
 14
109.5
 24
90.0
 34
0.0
 50
90.0
100
AcDbRotatedDimension
  0
DIMENSION
  5
7A
100
AcDbEntity
  8
Dimensions
 62
256
370
-1
  6
ByLayer
100
AcDbDimension
 10
150.0
 20
88.0
 30
0.0
 11
156.0
 21
89.875
 31
0.0
 70
0
 71
5
 72
0
 41
1.0
 42
0.0
  1

  3
Standard
100
AcDbAlignedDimension
 13
162.0
 23
93.5
 33
0.0
 14
150.0
 24
93.5
 34
0.0
 50
0.0
100
AcDbRotatedDimension
  0
INSERT
  5
7B
100
AcDbEntity
100
AcDbBlockReference
  8
Dimensions
 62
256
370
-1
  6
ByLayer
  2
M3 Thread
 10
127.0
 20
100.0
 30
0.0
 44
1.0
 45
1.0
  0
INSERT
  5
7C
100
AcDbEntity
100
AcDbBlockReference
  8
Dimensions
 62
256
370
-1
  6
ByLayer
  2
M3 Thread
 10
145.0
 20
100.0
 30
0.0
 44
1.0
 45
1.0
  0
LINE
  5
7D
100
AcDbEntity
100
AcDbLine
  8
Hidden
 62
256
370
-1
  6
ByLayer
 10
100.0
 20
74.1500000000000057
 30
0.0
 11
120.0
 21
74.1500000000000057
 31
0.0
  0
LINE
  5
7E
100
AcDbEntity
100
AcDbLine
  8
Hidden
 62
256
370
-1
  6
ByLayer
 10
120.0
 20
74.1500000000000057
 30
0.0
 11
120.0
 21
69.8500000000000085
 31
0.0
  0
LINE
  5
7F
100
AcDbEntity
100
AcDbLine
  8
Hidden
 62
256
370
-1
  6
ByLayer
 10
120.0
 20
69.8500000000000085
 30
0.0
 11
100.0
 21
69.8500000000000085
 31
0.0
  0
LINE
  5
80
100
AcDbEntity
100
AcDbLine
  8
Hidden
 62
256
370
-1
  6
ByLayer
 10
100.0
 20
74.5
 30
0.0
 11
116.0
 21
74.5
 31
0.0
  0
LINE
  5
81
100
AcDbEntity
100
AcDbLine
  8
Hidden
 62
256
370
-1
  6
ByLayer
 10
116.0
 20
74.5
 30
0.0
 11
116.0
 21
69.5
 31
0.0
  0
LINE
  5
82
100
AcDbEntity
100
AcDbLine
  8
Hidden
 62
256
370
-1
  6
ByLayer
 10
116.0
 20
69.5
 30
0.0
 11
100.0
 21
69.5
 31
0.0
  0
LINE
  5
83
100
AcDbEntity
100
AcDbLine
  8
Hidden
 62
256
370
-1
  6
ByLayer
 10
120.0
 20
74.1500000000000057
 30
0.0
 11
121.0
 21
72.0
 31
0.0
  0
LINE
  5
84
100
AcDbEntity
100
AcDbLine
  8
Hidden
 62
256
370
-1
  6
ByLayer
 10
121.0
 20
72.0
 30
0.0
 11
120.0
 21
69.8500000000000085
 31
0.0
  0
LINE
  5
85
100
AcDbEntity
100
AcDbLine
  8
Hidden
 62
256
370
-1
  6
ByLayer
 10
116.0
 20
74.5
 30
0.0
 11
116.4285151612169926
 21
74.1500000000000057
 31
0.0
  0
LINE
  5
86
100
AcDbEntity
100
AcDbLine
  8
Hidden
 62
256
370
-1
  6
ByLayer
 10
116.4285151612169926
 20
74.1500000000000057
 30
0.0
 11
116.4285151612169926
 21
69.8500000000000085
 31
0.0
  0
LINE
  5
87
100
AcDbEntity
100
AcDbLine
  8
Hidden
 62
256
370
-1
  6
ByLayer
 10
116.4285151612169926
 20
69.8500000000000085
 30
0.0
 11
116.0
 21
69.5
 31
0.0
  0
LINE
  5
88
100
AcDbEntity
100
AcDbLine
  8
Center
 62
256
370
-1
  6
ByLayer
 10
94.0
 20
72.0
 30
0.0
 11
125.0
 21
72.0
 31
0.0
  0
DIMENSION
  5
89
100
AcDbEntity
  8
Dimensions
 62
256
370
-1
  6
ByLayer
100
AcDbDimension
 10
124.0
 20
58.5000000000000071
 30
0.0
 11
122.125
 21
65.25
 31
0.0
 70
0
 71
5
 72
0
 41
1.0
 42
0.0
  1

  3
Standard
100
AcDbAlignedDimension
 13
121.0
 23
72.0
 33
0.0
 14
100.0
 24
58.5000000000000071
 34
0.0
 50
90.0
100
AcDbRotatedDimension
  0
DIMENSION
  5
8A
100
AcDbEntity
  8
Dimensions
 62
256
370
-1
  6
ByLayer
100
AcDbDimension
 10
120.0
 20
64.0
 30
0.0
 11
110.0
 21
65.875
 31
0.0
 70
0
 71
5
 72
0
 41
1.0
 42
0.0
  1

  3
Standard
100
AcDbAlignedDimension
 13
100.0
 23
74.5
 33
0.0
 14
120.0
 24
74.1500000000000057
 34
0.0
 50
0.0
100
AcDbRotatedDimension
  0
DIMENSION
  5
8B
100
AcDbEntity
  8
Dimensions
 62
256
370
-1
  6
ByLayer
100
AcDbDimension
 10
116.0
 20
77.0
 30
0.0
 11
108.0
 21
78.875
 31
0.0
 70
0
 71
5
 72
0
 41
1.0
 42
0.0
  1

  3
Standard
100
AcDbAlignedDimension
 13
100.0
 23
74.5
 33
0.0
 14
116.0
 24
74.5
 34
0.0
 50
0.0
100
AcDbRotatedDimension
  0
LINE
  5
8C
100
AcDbEntity
100
AcDbLine
  8
Center
 62
256
370
-1
  6
ByLayer
 10
70.0
 20
70.0
 30
0.0
 11
180.0
 21
70.0
 31
0.0
  0
DIMENSION
  5
8D
100
AcDbEntity
  8
Dimensions
 62
256
370
-1
  6
ByLayer
100
AcDbDimension
 10
155.0
 20
67.0
 30
0.0
 11
148.4831100324619229
 21
61.9070887049111676
 31
0.0
 70
4
 71
5
 72
0
 41
1.0
 42
0.0
  1

  3
Standard
100
AcDbRadialDimension
 15
151.8608780083732483
 25
63.1082249394800172
 35
0.0
 40
0.0
  0
DIMENSION
  5
8E
100
AcDbEntity
  8
Dimensions
 62
256
370
-1
  6
ByLayer
100
AcDbDimension
 10
172.0
 20
62.0
 30
0.0
 11
170.125
 21
70.0
 31
0.0
 70
0
 71
5
 72
0
 41
1.0
 42
0.0
  1

  3
Standard
100
AcDbAlignedDimension
 13
162.0
 23
78.0
 33
0.0
 14
162.0
 24
62.0
 34
0.0
 50
90.0
100
AcDbRotatedDimension
  0
DIMENSION
  5
8F
100
AcDbEntity
  8
Dimensions
 62
256
370
-1
  6
ByLayer
100
AcDbDimension
 10
162.0
 20
56.0
 30
0.0
 11
158.5
 21
57.875
 31
0.0
 70
0
 71
5
 72
0
 41
1.0
 42
0.0
  1

  3
Standard
100
AcDbAlignedDimension
 13
155.0
 23
62.0
 33
0.0
 14
162.0
 24
62.0
 34
0.0
 50
0.0
100
AcDbRotatedDimension
  0
MTEXT
  5
90
100
AcDbEntity
100
AcDbMText
  8
Dimensions
 62
256
370
-1
  6
ByLayer
 10
153.0
 20
74.0
 30
0.0
 40
2.0
 41
100.0
 71
1
 72
2
  1
t=0.5
  7
normallatin1
 50
0.0
 73
0
 44
1.0
  0
LINE
  5
91
100
AcDbEntity
100
AcDbLine
  8
0
 62
256
370
-1
  6
ByLayer
 10
240.0
 20
100.0
 30
0.0
 11
240.0
 21
58.5000000000000071
 31
0.0
  0
LINE
  5
92
100
AcDbEntity
100
AcDbLine
  8
0
 62
256
370
-1
  6
ByLayer
 10
240.0
 20
58.5000000000000071
 30
0.0
 11
237.0
 21
58.5000000000000071
 31
0.0
  0
LINE
  5
93
100
AcDbEntity
100
AcDbLine
  8
0
 62
256
370
-1
  6
ByLayer
 10
237.0
 20
58.5000000000000071
 30
0.0
 11
237.0
 21
40.0
 31
0.0
  0
LINE
  5
94
100
AcDbEntity
100
AcDbLine
  8
0
 62
256
370
-1
  6
ByLayer
 10
237.0
 20
40.0
 30
0.0
 11
302.0
 21
40.0
 31
0.0
  0
LINE
  5
95
100
AcDbEntity
100
AcDbLine
  8
0
 62
256
370
-1
  6
ByLayer
 10
302.0
 20
40.0
 30
0.0
 11
302.0
 21
100.0
 31
0.0
  0
LINE
  5
96
100
AcDbEntity
100
AcDbLine
  8
0
 62
256
370
-1
  6
ByLayer
 10
302.0
 20
100.0
 30
0.0
 11
240.0
 21
100.0
 31
0.0
  0
DIMENSION
  5
97
100
AcDbEntity
  8
Dimensions
 62
256
370
-1
  6
ByLayer
100
AcDbDimension
 10
220.0
 20
100.0
 30
0.0
 11
218.125
 21
70.0
 31
0.0
 70
0
 71
5
 72
1
 41
1.0
 42
0.0
  1

  3
Standard
100
AcDbAlignedDimension
 13
237.0
 23
40.0
 33
0.0
 14
240.0
 24
100.0
 34
0.0
 50
90.0
100
AcDbRotatedDimension
  0
DIMENSION
  5
98
100
AcDbEntity
  8
Dimensions
 62
256
370
-1
  6
ByLayer
100
AcDbDimension
 10
230.0
 20
58.5000000000000071
 30
0.0
 11
228.125
 21
79.25
 31
0.0
 70
0
 71
5
 72
1
 41
1.0
 42
0.0
  1

  3
Standard
100
AcDbAlignedDimension
 13
240.0
 23
100.0
 33
0.0
 14
240.0
 24
58.5000000000000071
 34
0.0
 50
90.0
100
AcDbRotatedDimension
  0
DIMENSION
  5
99
100
AcDbEntity
  8
Dimensions
 62
256
370
-1
  6
ByLayer
100
AcDbDimension
 10
302.0
 20
110.0
 30
0.0
 11
271.0
 21
111.875
 31
0.0
 70
0
 71
5
 72
1
 41
1.0
 42
0.0
  1

  3
Standard
100
AcDbAlignedDimension
 13
240.0
 23
100.0
 33
0.0
 14
302.0
 24
100.0
 34
0.0
 50
0.0
100
AcDbRotatedDimension
  0
DIMENSION
  5
9A
100
AcDbEntity
  8
Dimensions
 62
256
370
-1
  6
ByLayer
100
AcDbDimension
 10
302.0
 20
30.0
 30
0.0
 11
269.5
 21
31.875
 31
0.0
 70
0
 71
5
 72
1
 41
1.0
 42
0.0
  1

  3
Standard
100
AcDbAlignedDimension
 13
237.0
 23
40.0
 33
0.0
 14
302.0
 24
40.0
 34
0.0
 50
0.0
100
AcDbRotatedDimension
  0
LINE
  5
9B
100
AcDbEntity
100
AcDbLine
  8
Hidden
 62
256
370
-1
  6
ByLayer
 10
302.0
 20
95.5
 30
0.0
 11
302.0
 21
93.75
 31
0.0
  0
LINE
  5
9C
100
AcDbEntity
100
AcDbLine
  8
Hidden
 62
256
370
-1
  6
ByLayer
 10
289.6866032667970217
 20
97.25
 30
0.0
 11
289.6866032667970217
 21
97.25
 31
0.0
  0
LINE
  5
9D
100
AcDbEntity
100
AcDbLine
  8
Hidden
 62
256
370
-1
  6
ByLayer
 10
286.0
 20
97.1500000000000057
 30
0.0
 11
286.0
 21
97.1500000000000057
 31
0.0
  0
DIMENSION
  5
9E
100
AcDbEntity
  8
Dimensions
 62
256
370
-1
  6
ByLayer
100
AcDbDimension
 10
312.0
 20
93.5
 30
0.0
 11
310.125
 21
95.5
 31
0.0
 70
0
 71
5
 72
0
 41
1.0
 42
0.0
  1

  3
Standard
100
AcDbAlignedDimension
 13
302.0
 23
97.5
 33
0.0
 14
302.0
 24
93.5
 34
0.0
 50
90.0
100
AcDbRotatedDimension
  0
INSERT
  5
9F
100
AcDbEntity
100
AcDbBlockReference
  8
Center
 62
256
370
-1
  6
ByLayer
  2
M4 Thread
 10
302.0
 20
95.5
 30
0.0
  0
INSERT
  5
A0
100
AcDbEntity
100
AcDbBlockReference
  8
Center
 62
256
370
-1
  6
ByLayer
  2
M4 Thread
 10
302.0
 20
48.5
 30
0.0
 44
1.0
 45
1.0
  0
DIMENSION
  5
A1
100
AcDbEntity
  8
Dimensions
 62
256
370
-1
  6
ByLayer
100
AcDbDimension
 10
312.0
 20
46.5
 30
0.0
 11
310.125
 21
48.5
 31
0.0
 70
0
 71
5
 72
1
 41
1.0
 42
0.0
  1

  3
Standard
100
AcDbAlignedDimension
 13
302.0
 23
50.5
 33
0.0
 14
302.0
 24
46.5
 34
0.0
 50
90.0
100
AcDbRotatedDimension
  0
DIMENSION
  5
A2
100
AcDbEntity
  8
Dimensions
 62
256
370
-1
  6
ByLayer
100
AcDbDimension
 10
275.0
 20
48.5
 30
0.0
 11
273.125
 21
72.0
 31
0.0
 70
0
 71
5
 72
1
 41
1.0
 42
0.0
  1

  3
Standard
100
AcDbAlignedDimension
 13
284.8726634811582699
 23
95.5
 33
0.0
 14
281.0
 24
48.5
 34
0.0
 50
90.0
100
AcDbRotatedDimension
  0
DIMENSION
  5
A3
100
AcDbEntity
  8
Dimensions
 62
256
370
-1
  6
ByLayer
100
AcDbDimension
 10
275.0
 20
100.0
 30
0.0
 11
273.125
 21
97.75
 31
0.0
 70
0
 71
5
 72
1
 41
1.0
 42
0.0
  1

  3
Standard
100
AcDbAlignedDimension
 13
281.0
 23
95.4999999999999858
 33
0.0
 14
302.0
 24
100.0
 34
0.0
 50
90.0
100
AcDbRotatedDimension
  0
DIMENSION
  5
A4
100
AcDbEntity
  8
Dimensions
 62
256
370
-1
  6
ByLayer
100
AcDbDimension
 10
244.0
 20
86.0
 30
0.0
 11
242.125
 21
93.0
 31
0.0
 70
0
 71
5
 72
0
 41
1.0
 42
0.0
  1

  3
Standard
100
AcDbAlignedDimension
 13
249.25
 23
100.0
 33
0.0
 14
249.25
 24
86.0
 34
0.0
 50
90.0
100
AcDbRotatedDimension
  0
INSERT
  5
A5
100
AcDbEntity
100
AcDbBlockReference
  8
Hidden
 62
256
370
-1
  6
ByLayer
  2
M3 Thread
 10
248.0
 20
100.0
 30
0.0
  0
DIMENSION
  5
A6
100
AcDbEntity
  8
Dimensions
 62
256
370
-1
  6
ByLayer
100
AcDbDimension
 10
254.0
 20
90.0
 30
0.0
 11
252.125
 21
95.0
 31
0.0
 70
0
 71
5
 72
0
 41
1.0
 42
0.0
  1

  3
Standard
100
AcDbAlignedDimension
 13
249.5
 23
100.0
 33
0.0
 14
249.5
 24
90.0
 34
0.0
 50
90.0
100
AcDbRotatedDimension
  0
DIMENSION
  5
A7
100
AcDbEntity
  8
Dimensions
 62
256
370
-1
  6
ByLayer
100
AcDbDimension
 10
290.0
 20
88.0
 30
0.0
 11
296.0
 21
89.875
 31
0.0
 70
0
 71
5
 72
0
 41
1.0
 42
0.0
  1

  3
Standard
100
AcDbAlignedDimension
 13
302.0
 23
93.5
 33
0.0
 14
290.0
 24
93.5
 34
0.0
 50
0.0
100
AcDbRotatedDimension
  0
INSERT
  5
A8
100
AcDbEntity
100
AcDbBlockReference
  8
Dimensions
 62
256
370
-1
  6
ByLayer
  2
M3 Thread
 10
267.0
 20
100.0
 30
0.0
 44
1.0
 45
1.0
  0
INSERT
  5
A9
100
AcDbEntity
100
AcDbBlockReference
  8
Dimensions
 62
256
370
-1
  6
ByLayer
  2
M3 Thread
 10
285.0
 20
100.0
 30
0.0
 44
1.0
 45
1.0
  0
LINE
  5
AA
100
AcDbEntity
100
AcDbLine
  8
Hidden
 62
256
370
-1
  6
ByLayer
 10
240.0
 20
74.1500000000000057
 30
0.0
 11
260.0
 21
74.1500000000000057
 31
0.0
  0
LINE
  5
AB
100
AcDbEntity
100
AcDbLine
  8
Hidden
 62
256
370
-1
  6
ByLayer
 10
260.0
 20
74.1500000000000057
 30
0.0
 11
260.0
 21
69.8500000000000085
 31
0.0
  0
LINE
  5
AC
100
AcDbEntity
100
AcDbLine
  8
Hidden
 62
256
370
-1
  6
ByLayer
 10
260.0
 20
69.8500000000000085
 30
0.0
 11
240.0
 21
69.8500000000000085
 31
0.0
  0
LINE
  5
AD
100
AcDbEntity
100
AcDbLine
  8
Hidden
 62
256
370
-1
  6
ByLayer
 10
240.0
 20
74.5
 30
0.0
 11
256.0
 21
74.5
 31
0.0
  0
LINE
  5
AE
100
AcDbEntity
100
AcDbLine
  8
Hidden
 62
256
370
-1
  6
ByLayer
 10
256.0
 20
74.5
 30
0.0
 11
256.0
 21
69.5
 31
0.0
  0
LINE
  5
AF
100
AcDbEntity
100
AcDbLine
  8
Hidden
 62
256
370
-1
  6
ByLayer
 10
256.0
 20
69.5
 30
0.0
 11
240.0
 21
69.5
 31
0.0
  0
LINE
  5
B0
100
AcDbEntity
100
AcDbLine
  8
Hidden
 62
256
370
-1
  6
ByLayer
 10
260.0
 20
74.1500000000000057
 30
0.0
 11
261.0
 21
72.0
 31
0.0
  0
LINE
  5
B1
100
AcDbEntity
100
AcDbLine
  8
Hidden
 62
256
370
-1
  6
ByLayer
 10
261.0
 20
72.0
 30
0.0
 11
260.0
 21
69.8500000000000085
 31
0.0
  0
LINE
  5
B2
100
AcDbEntity
100
AcDbLine
  8
Hidden
 62
256
370
-1
  6
ByLayer
 10
256.0
 20
74.5
 30
0.0
 11
256.4285151612169784
 21
74.1500000000000057
 31
0.0
  0
LINE
  5
B3
100
AcDbEntity
100
AcDbLine
  8
Hidden
 62
256
370
-1
  6
ByLayer
 10
256.4285151612169784
 20
74.1500000000000057
 30
0.0
 11
256.4285151612169784
 21
69.8500000000000085
 31
0.0
  0
LINE
  5
B4
100
AcDbEntity
100
AcDbLine
  8
Hidden
 62
256
370
-1
  6
ByLayer
 10
256.4285151612169784
 20
69.8500000000000085
 30
0.0
 11
256.0
 21
69.5
 31
0.0
  0
LINE
  5
B5
100
AcDbEntity
100
AcDbLine
  8
Center
 62
256
370
-1
  6
ByLayer
 10
234.0
 20
72.0
 30
0.0
 11
265.0
 21
72.0
 31
0.0
  0
DIMENSION
  5
B6
100
AcDbEntity
  8
Dimensions
 62
256
370
-1
  6
ByLayer
100
AcDbDimension
 10
264.0
 20
58.5000000000000071
 30
0.0
 11
262.125
 21
65.25
 31
0.0
 70
0
 71
5
 72
0
 41
1.0
 42
0.0
  1

  3
Standard
100
AcDbAlignedDimension
 13
261.0
 23
72.0
 33
0.0
 14
240.0
 24
58.5000000000000071
 34
0.0
 50
90.0
100
AcDbRotatedDimension
  0
DIMENSION
  5
B7
100
AcDbEntity
  8
Dimensions
 62
256
370
-1
  6
ByLayer
100
AcDbDimension
 10
260.0
 20
64.0
 30
0.0
 11
250.0
 21
65.875
 31
0.0
 70
0
 71
5
 72
0
 41
1.0
 42
0.0
  1

  3
Standard
100
AcDbAlignedDimension
 13
240.0
 23
74.5
 33
0.0
 14
260.0
 24
74.1500000000000057
 34
0.0
 50
0.0
100
AcDbRotatedDimension
  0
DIMENSION
  5
B8
100
AcDbEntity
  8
Dimensions
 62
256
370
-1
  6
ByLayer
100
AcDbDimension
 10
256.0
 20
77.0
 30
0.0
 11
248.0
 21
78.875
 31
0.0
 70
0
 71
5
 72
0
 41
1.0
 42
0.0
  1

  3
Standard
100
AcDbAlignedDimension
 13
240.0
 23
74.5
 33
0.0
 14
256.0
 24
74.5
 34
0.0
 50
0.0
100
AcDbRotatedDimension
  0
LINE
  5
B9
100
AcDbEntity
100
AcDbLine
  8
Center
 62
256
370
-1
  6
ByLayer
 10
210.0
 20
70.0
 30
0.0
 11
320.0
 21
70.0
 31
0.0
  0
DIMENSION
  5
BA
100
AcDbEntity
  8
Dimensions
 62
256
370
-1
  6
ByLayer
100
AcDbDimension
 10
295.0
 20
67.0
 30
0.0
 11
288.4831100324619229
 21
61.9070887049111676
 31
0.0
 70
4
 71
5
 72
0
 41
1.0
 42
0.0
  1

  3
Standard
100
AcDbRadialDimension
 15
291.8608780083732199
 25
63.1082249394800172
 35
0.0
 40
0.0
  0
DIMENSION
  5
BB
100
AcDbEntity
  8
Dimensions
 62
256
370
-1
  6
ByLayer
100
AcDbDimension
 10
312.0
 20
62.0
 30
0.0
 11
310.125
 21
70.0
 31
0.0
 70
0
 71
5
 72
0
 41
1.0
 42
0.0
  1

  3
Standard
100
AcDbAlignedDimension
 13
302.0
 23
78.0
 33
0.0
 14
302.0
 24
62.0
 34
0.0
 50
90.0
100
AcDbRotatedDimension
  0
DIMENSION
  5
BC
100
AcDbEntity
  8
Dimensions
 62
256
370
-1
  6
ByLayer
100
AcDbDimension
 10
302.0
 20
56.0
 30
0.0
 11
298.5
 21
57.875
 31
0.0
 70
0
 71
5
 72
0
 41
1.0
 42
0.0
  1

  3
Standard
100
AcDbAlignedDimension
 13
295.0
 23
62.0
 33
0.0
 14
302.0
 24
62.0
 34
0.0
 50
0.0
100
AcDbRotatedDimension
  0
MTEXT
  5
BD
100
AcDbEntity
100
AcDbMText
  8
Dimensions
 62
256
370
-1
  6
ByLayer
 10
293.0
 20
74.0
 30
0.0
 40
2.0
 41
100.0
 71
1
 72
2
  1
t=0.5
  7
normallatin1
 50
0.0
 73
0
 44
1.0
  0
LINE
  5
BE
100
AcDbEntity
100
AcDbLine
  8
Hidden
 62
256
370
-1
  6
ByLayer
 10
162.0
 20
62.0
 30
0.0
 11
155.0
 21
62.0
 31
0.0
  0
LINE
  5
BF
100
AcDbEntity
100
AcDbLine
  8
Hidden
 62
256
370
-1
  6
ByLayer
 10
150.0
 20
73.0
 30
0.0
 11
150.0
 21
67.0
 31
0.0
  0
LINE
  5
C0
100
AcDbEntity
100
AcDbLine
  8
Hidden
 62
256
370
-1
  6
ByLayer
 10
162.0
 20
78.0
 30
0.0
 11
155.0
 21
78.0
 31
0.0
  0
ARC
  5
C1
100
AcDbEntity
  8
Hidden
 62
256
370
-1
  6
ByLayer
100
AcDbCircle
 10
155.0
 20
73.0
 30
0.0
 40
5.0
100
AcDbArc
 50
90.0
 51
180.0
  0
ARC
  5
C2
100
AcDbEntity
  8
Hidden
 62
256
370
-1
  6
ByLayer
100
AcDbCircle
 10
155.0
 20
67.0
 30
0.0
 40
5.0
100
AcDbArc
 50
180.0
 51
270.0
  0
LINE
  5
C3
100
AcDbEntity
100
AcDbLine
  8
0
 62
256
370
-1
  6
ByLayer
 10
302.0
 20
62.0
 30
0.0
 11
295.0
 21
62.0
 31
0.0
  0
LINE
  5
C4
100
AcDbEntity
100
AcDbLine
  8
0
 62
256
370
-1
  6
ByLayer
 10
290.0
 20
73.0
 30
0.0
 11
290.0
 21
67.0
 31
0.0
  0
LINE
  5
C5
100
AcDbEntity
100
AcDbLine
  8
0
 62
256
370
-1
  6
ByLayer
 10
302.0
 20
78.0
 30
0.0
 11
295.0
 21
78.0
 31
0.0
  0
ARC
  5
C6
100
AcDbEntity
  8
0
 62
256
370
-1
  6
ByLayer
100
AcDbCircle
 10
295.0
 20
73.0
 30
0.0
 40
5.0
100
AcDbArc
 50
90.0
 51
180.0
  0
ARC
  5
C7
100
AcDbEntity
  8
0
 62
256
370
-1
  6
ByLayer
100
AcDbCircle
 10
295.0
 20
67.0
 30
0.0
 40
5.0
100
AcDbArc
 50
180.0
 51
270.0
  0
MTEXT
  5
C8
100
AcDbEntity
100
AcDbMText
  8
Dimensions
 62
256
370
-1
  6
ByLayer
 10
263.0
 20
39.0
 30
0.0
 40
2.0
 41
100.0
 71
1
 72
2
  1
Right\~side\P
  7
normallatin1
 50
0.0
 73
0
 44
1.0
  0
MTEXT
  5
C9
100
AcDbEntity
100
AcDbMText
  8
Dimensions
 62
256
370
-1
  6
ByLayer
 10
123.0
 20
39.0
 30
0.0
 40
2.0
 41
100.0
 71
1
 72
2
  1
Left\~side
  7
normallatin1
 50
0.0
 73
0
 44
1.0
  0
MTEXT
  5
CA
100
AcDbEntity
100
AcDbMText
  8
Dimensions
 62
256
370
-1
  6
ByLayer
 10
120.0
 20
130.0
 30
0.0
 40
8.0
 41
100.0
 71
1
 72
2
  1
Y\~axis\~stepper\~motor\~adapters
  7
normallatin1
 50
0.0
 73
0
 44
1.0
  0
ENDSEC
  0
SECTION
  2
OBJECTS
  0
DICTIONARY
  5
C
100
AcDbDictionary
280
0
281
1
  3
ACAD_GROUP
350
D
  3
ACAD_LAYOUT
350
1A
  3
ACAD_MLINESTYLE
350
17
  3
ACAD_PLOTSETTINGS
350
19
  3
ACAD_PLOTSTYLENAME
350
E
  3
AcDbVariableDictionary
350
CB
  0
DICTIONARY
  5
D
100
AcDbDictionary
280
0
281
1
  0
ACDBDICTIONARYWDFLT
  5
E
100
AcDbDictionary
281
1
  3
Normal
350
F
100
AcDbDictionaryWithDefault
340
F
  0
ACDBPLACEHOLDER
  5
F
  0
DICTIONARY
  5
17
100
AcDbDictionary
280
0
281
1
  3
Standard
350
18
  0
MLINESTYLE
  5
18
100
AcDbMlineStyle
  2
STANDARD
 70
0
  3

 62
256
 51
90.0
 52
90.0
 71
2
 49
0.5
 62
256
  6
BYLAYER
 49
-0.5
 62
256
  6
BYLAYER
  0
DICTIONARY
  5
19
100
AcDbDictionary
280
0
281
1
  0
DICTIONARY
  5
1A
100
AcDbDictionary
281
1
  3
Layout1
350
1E
  3
Layout2
350
26
  3
Model
350
22
  0
LAYOUT
  5
1E
100
AcDbPlotSettings
  1

  2
C:\Program Files\AutoCAD 2002\plotters\DWF ePlot (optimized for plotting).pc3
  4

  6

 40
0.0
 41
0.0
 42
0.0
 43
0.0
 44
0.0
 45
0.0
 46
0.0
 47
0.0
 48
0.0
 49
0.0
140
0.0
141
0.0
142
1.0
143
1.0
 70
688
 72
0
 73
0
 74
5
  7

 75
16
147
1.0
148
0.0
149
0.0
100
AcDbLayout
  1
Layout1
 70
1
 71
1
 10
0.0
 20
0.0
 11
420.0
 21
297.0
 12
0.0
 22
0.0
 32
0.0
 14
100000000000000000000.0
 24
100000000000000000000.0
 34
100000000000000000000.0
 15
-100000000000000000000.0
 25
-100000000000000000000.0
 35
-100000000000000000000.0
146
0.0
 13
0.0
 23
0.0
 33
0.0
 16
1.0
 26
0.0
 36
0.0
 17
0.0
 27
1.0
 37
0.0
 76
0
330
1B
  0
LAYOUT
  5
22
100
AcDbPlotSettings
  1

  2
C:\Program Files\AutoCAD 2002\plotters\DWF ePlot (optimized for plotting).pc3
  4

  6

 40
0.0
 41
0.0
 42
0.0
 43
0.0
 44
0.0
 45
0.0
 46
0.0
 47
0.0
 48
0.0
 49
0.0
140
0.0
141
0.0
142
1.0
143
1.0
 70
1712
 72
0
 73
0
 74
0
  7

 75
0
147
1.0
148
0.0
149
0.0
100
AcDbLayout
  1
Model
 70
1
 71
0
 10
0.0
 20
0.0
 11
12.0
 21
9.0
 12
0.0
 22
0.0
 32
0.0
 14
0.0
 24
0.0
 34
0.0
 15
0.0
 25
0.0
 35
0.0
146
0.0
 13
0.0
 23
0.0
 33
0.0
 16
1.0
 26
0.0
 36
0.0
 17
0.0
 27
1.0
 37
0.0
 76
0
330
1F
  0
LAYOUT
  5
26
100
AcDbPlotSettings
  1

  2
C:\Program Files\AutoCAD 2002\plotters\DWF ePlot (optimized for plotting).pc3
  4

  6

 40
0.0
 41
0.0
 42
0.0
 43
0.0
 44
0.0
 45
0.0
 46
0.0
 47
0.0
 48
0.0
 49
0.0
140
0.0
141
0.0
142
1.0
143
1.0
 70
688
 72
0
 73
0
 74
5
  7

 75
16
147
1.0
148
0.0
149
0.0
100
AcDbLayout
  1
Layout2
 70
1
 71
2
 10
0.0
 20
0.0
 11
12.0
 21
9.0
 12
0.0
 22
0.0
 32
0.0
 14
0.0
 24
0.0
 34
0.0
 15
0.0
 25
0.0
 35
0.0
146
0.0
 13
0.0
 23
0.0
 33
0.0
 16
1.0
 26
0.0
 36
0.0
 17
0.0
 27
1.0
 37
0.0
 76
0
330
23
  0
DICTIONARY
  5
CB
100
AcDbDictionary
281
1
  3
DIMASSOC
350
CD
  3
HIDETEXT
350
CC
  0
DICTIONARYVAR
  5
CC
100
DictionaryVariables
280
0
  1
2
  0
DICTIONARYVAR
  5
CD
100
DictionaryVariables
280
0
  1
1
  0
ENDSEC
  0
EOF
