999
dxfrw 0.6.3
  0
SECTION
  2
HEADER
  9
$ACADVER
  1
AC1021
  9
$DWGCODEPAGE
  3
ANSI_1252
  9
$INSBASE
 10
0
 20
0
 30
0
  9
$EXTMIN
 10
10000000000
 20
10000000000
 30
0
  9
$EXTMAX
 10
-10000000000
 20
-10000000000
 30
0
  9
$LIMMIN
 10
0
 20
0
  9
$LIMMAX
 10
420
 20
297
  9
$ORTHOMODE
 70
    0
  9
$REGENMODE
 70
    1
  9
$FILLMODE
 70
    1
  9
$QTEXTMODE
 70
    0
  9
$MIRRTEXT
 70
    0
  9
$LTSCALE
 40
1
  9
$ATTMODE
 70
    0
  9
$TEXTSIZE
 40
2.5
  9
$TRACEWID
 40
15.68
  9
$TEXTSTYLE
  7
STANDARD
  9
$CLAYER
  8
umrandung
  9
$CELTYPE
  6
BYLAYER
  9
$CECOLOR
 62
  256
  9
$CELTSCALE
 40
1
  9
$DISPSILH
 70
    0
  9
$DIMSCALE
 40
1
  9
$DIMASZ
 40
2.5
  9
$DIMEXO
 40
0.625
  9
$DIMDLI
 40
3.75
  9
$DIMRND
 40
0
  9
$DIMDLE
 40
0
  9
$DIMEXE
 40
1.25
  9
$DIMTP
 40
0
  9
$DIMTM
 40
0
  9
$DIMTXT
 40
2.5
  9
$DIMCEN
 40
2.5
  9
$DIMTSZ
 40
0
  9
$DIMTOL
 70
    0
  9
$DIMLIM
 70
    0
  9
$DIMTIH
 70
    0
  9
$DIMTOH
 70
    0
  9
$DIMSE1
 70
    0
  9
$DIMSE2
 70
    0
  9
$DIMTAD
 70
    1
  9
$DIMZIN
 70
    9
  9
$DIMBLK
  1

  9
$DIMASO
 70
    1
  9
$DIMSHO
 70
    1
  9
$DIMPOST
  1

  9
$DIMAPOST
  1

  9
$DIMALT
 70
    0
  9
$DIMALTD
 70
    3
  9
$DIMALTF
 40
0.03937
  9
$DIMLFAC
 40
1
  9
$DIMTOFL
 70
    1
  9
$DIMTVP
 40
0
  9
$DIMTIX
 70
    0
  9
$DIMSOXD
 70
    0
  9
$DIMSAH
 70
    0
  9
$DIMBLK1
  1

  9
$DIMBLK2
  1

  9
$DIMSTYLE
  2
STANDARD
  9
$DIMCLRD
 70
    0
  9
$DIMCLRE
 70
    0
  9
$DIMCLRT
 70
    0
  9
$DIMTFAC
 40
1
  9
$DIMGAP
 40
0.625
  9
$DIMJUST
 70
    0
  9
$DIMSD1
 70
    0
  9
$DIMSD2
 70
    0
  9
$DIMTOLJ
 70
    0
  9
$DIMTZIN
 70
    8
  9
$DIMALTZ
 70
    0
  9
$DIMALTTZ
 70
    0
  9
$DIMUPT
 70
    0
  9
$DIMDEC
 70
    3
  9
$DIMTDEC
 70
    2
  9
$DIMALTU
 70
    2
  9
$DIMALTTD
 70
    3
  9
$DIMTXSTY
  7
standard
  9
$DIMAUNIT
 70
    0
  9
$DIMADEC
 70
    2
  9
$DIMALTRND
 40
0
  9
$DIMAZIN
 70
    0
  9
$DIMDSEP
 70
    0
  9
$DIMATFIT
 70
    3
  9
$DIMFRAC
 70
    0
  9
$DIMLDRBLK
  1
STANDARD
  9
$DIMLUNIT
 70
    2
  9
$DIMLWD
 70
   -2
  9
$DIMLWE
 70
   -2
  9
$DIMTMOVE
 70
    0
  9
$DIMFXL
 40
1
  9
$DIMFXLON
 70
    0
  9
$DIMJOGANG
 40
0.7854
  9
$DIMTFILL
 70
    0
  9
$DIMTFILLCLR
 70
    0
  9
$DIMARCSYM
 70
    0
  9
$DIMLTYPE
  6

  9
$DIMLTEX1
  6

  9
$DIMLTEX2
  6

  9
$LUNITS
 70
    2
  9
$LUPREC
 70
    1
  9
$SKETCHINC
 40
1
  9
$FILLETRAD
 40
0
  9
$AUNITS
 70
    0
  9
$AUPREC
 70
    2
  9
$MENU
  1
.
  9
$ELEVATION
 40
0
  9
$PELEVATION
 40
0
  9
$THICKNESS
 40
0
  9
$LIMCHECK
 70
    0
  9
$CHAMFERA
 40
0
  9
$CHAMFERB
 40
0
  9
$CHAMFERC
 40
0
  9
$CHAMFERD
 40
0
  9
$SKPOLY
 70
    0
  9
$USRTIMER
 70
    1
  9
$ANGBASE
 50
0
  9
$ANGDIR
 70
    0
  9
$PDMODE
 70
   34
  9
$PDSIZE
 40
0
  9
$PLINEWID
 40
0
  9
$SPLFRAME
 70
    0
  9
$SPLINETYPE
 70
    2
  9
$SPLINESEGS
 70
    8
  9
$HANDSEED
  5
20000
  9
$SURFTAB1
 70
    6
  9
$SURFTAB2
 70
    6
  9
$SURFTYPE
 70
    6
  9
$SURFU
 70
    6
  9
$SURFV
 70
    6
  9
$UCSBASE
  2

  9
$UCSNAME
  2

  9
$UCSORG
 10
0
 20
0
 30
0
  9
$UCSXDIR
 10
1
 20
0
 30
0
  9
$UCSYDIR
 10
0
 20
1
 30
0
  9
$UCSORTHOREF
  2

  9
$UCSORTHOVIEW
 70
    0
  9
$UCSORGTOP
 10
0
 20
0
 30
0
  9
$UCSORGBOTTOM
 10
0
 20
0
 30
0
  9
$UCSORGLEFT
 10
0
 20
0
 30
0
  9
$UCSORGRIGHT
 10
0
 20
0
 30
0
  9
$UCSORGFRONT
 10
0
 20
0
 30
0
  9
$UCSORGBACK
 10
0
 20
0
 30
0
  9
$PUCSBASE
  2

  9
$PUCSNAME
  2

  9
$PUCSORG
 10
0
 20
0
 30
0
  9
$PUCSXDIR
 10
1
 20
0
 30
0
  9
$PUCSYDIR
 10
0
 20
1
 30
0
  9
$PUCSORTHOREF
  2

  9
$PUCSORTHOVIEW
 70
    0
  9
$PUCSORGTOP
 10
0
 20
0
 30
0
  9
$PUCSORGBOTTOM
 10
0
 20
0
 30
0
  9
$PUCSORGLEFT
 10
0
 20
0
 30
0
  9
$PUCSORGRIGHT
 10
0
 20
0
 30
0
  9
$PUCSORGFRONT
 10
0
 20
0
 30
0
  9
$PUCSORGBACK
 10
0
 20
0
 30
0
  9
$USERI1
 70
    0
  9
$USERI2
 70
    0
  9
$USERI3
 70
    0
  9
$USERI4
 70
    0
  9
$USERI5
 70
    0
  9
$USERR1
 40
0
  9
$USERR2
 40
0
  9
$USERR3
 40
0
  9
$USERR4
 40
0
  9
$USERR5
 40
0
  9
$WORLDVIEW
 70
    1
  9
$SHADEDGE
 70
    3
  9
$SHADEDIF
 70
   70
  9
$TILEMODE
 70
    1
  9
$MAXACTVP
 70
   64
  9
$PINSBASE
 10
150.0592753726127
 20
149.8945956164605
 30
0
  9
$PLIMCHECK
 70
    0
  9
$PEXTMIN
 10
0
 20
0
 30
0
  9
$PEXTMAX
 10
0
 20
0
 30
0
  9
$GRIDMODE
 70
    1
  9
$SNAPSTYLE
 70
    0
  9
$PLIMMIN
 10
0
 20
0
  9
$PLIMMAX
 10
297
 20
210
  9
$UNITMODE
 70
    0
  9
$VISRETAIN
 70
    1
  9
$PLINEGEN
 70
    0
  9
$PSLTSCALE
 70
    1
  9
$TREEDEPTH
 70
 3020
  9
$CMLSTYLE
  2
Standard
  9
$CMLJUST
 70
    0
  9
$CMLSCALE
 40
20
  9
$PROXYGRAPHICS
 70
    1
  9
$MEASUREMENT
 70
    1
  9
$CELWEIGHT
370
   -1
  9
$ENDCAPS
280
    0
  9
$JOINSTYLE
280
    0
  9
$LWDISPLAY
290
    0
  9
$INSUNITS
 70
    0
  9
$HYPERLINKBASE
  1

  9
$STYLESHEET
  1

  9
$XEDIT
290
    1
  9
$CEPSNTYPE
380
    0
  9
$PSTYLEMODE
290
    1
  9
$EXTNAMES
290
    1
  9
$PSVPSCALE
 40
1
  9
$OLESTARTUP
290
    0
  9
$SORTENTS
280
  127
  9
$INDEXCTL
280
    0
  9
$HIDETEXT
280
    1
  9
$XCLIPFRAME
290
    0
  9
$HALOGAP
280
    0
  9
$OBSCOLOR
 70
  257
  9
$OBSLTYPE
280
    0
  9
$INTERSECTIONDISPLAY
280
    0
  9
$INTERSECTIONCOLOR
 70
  257
  9
$DIMASSOC
280
    1
  9
$PROJECTNAME
  1

  9
$CAMERADISPLAY
290
    0
  9
$LENSLENGTH
 40
50
  9
$CAMERAHEIGHT
 40
0
  9
$STEPSPERSEC
 40
2
  9
$STEPSIZE
 40
50
  9
$3DDWFPREC
 40
2
  9
$PSOLWIDTH
 40
5
  9
$PSOLHEIGHT
 40
80
  9
$LOFTANG1
 40
1.570796326794897
  9
$LOFTANG2
 40
1.570796326794897
  9
$LOFTMAG1
 40
0
  9
$LOFTMAG2
 40
0
  9
$LOFTPARAM
 70
    7
  9
$LOFTNORMALS
280
    1
  9
$LATITUDE
 40
1
  9
$LONGITUDE
 40
1
  9
$NORTHDIRECTION
 40
0
  9
$TIMEZONE
 70
-8000
  9
$LIGHTGLYPHDISPLAY
280
    1
  9
$TILEMODELIGHTSYNCH
280
    1
  9
$SOLIDHIST
280
    1
  9
$SHOWHIST
280
    1
  9
$DWFFRAME
280
    2
  9
$DGNFRAME
280
    0
  9
$REALWORLDSCALE
290
    1
  9
$INTERFERECOLOR
 62
    1
  9
$CSHADOW
280
    0
  9
$SHADOWPLANELOCATION
 40
0
  0
ENDSEC
  0
SECTION
  2
CLASSES
  0
ENDSEC
  0
SECTION
  2
TABLES
  0
TABLE
  2
VPORT
  5
8
330
0
100
AcDbSymbolTable
 70
    1
  0
VPORT
  5
31
330
2
100
AcDbSymbolTableRecord
100
AcDbViewportTableRecord
  2
*ACTIVE
 70
    0
 10
0
 20
0
 11
1
 21
1
 12
38.70924349843762
 22
-30.46635657392689
 13
0
 23
0
 14
10
 24
10
 15
10
 25
10
 16
0
 26
0
 36
1
 17
0
 27
0
 37
0
 40
90.99500663724584
 41
1.761989342806394
 42
50
 43
0
 44
0
 50
0
 51
0
 71
    0
 72
  100
 73
    1
 74
    3
 75
    0
 76
    1
 77
    0
 78
    0
281
    0
 65
    1
110
0
120
0
130
0
111
1
121
0
131
0
112
0
122
1
132
0
 79
    0
146
0
348
10020
 60
    7
 61
    5
292
1
282
    1
141
0
142
0
 63
  250
421
3358443
  0
ENDTAB
  0
TABLE
  2
LTYPE
  5
5
330
0
100
AcDbSymbolTable
 70
    4
  0
LTYPE
  5
14
330
5
100
AcDbSymbolTableRecord
100
AcDbLinetypeTableRecord
  2
ByBlock
 70
    0
  3

 72
   65
 73
    0
 40
0
  0
LTYPE
  5
15
330
5
100
AcDbSymbolTableRecord
100
AcDbLinetypeTableRecord
  2
ByLayer
 70
    0
  3

 72
   65
 73
    0
 40
0
  0
LTYPE
  5
16
330
5
100
AcDbSymbolTableRecord
100
AcDbLinetypeTableRecord
  2
Continuous
 70
    0
  3
Solid line
 72
   65
 73
    0
 40
0
  0
LTYPE
  5
32
330
5
100
AcDbSymbolTableRecord
100
AcDbLinetypeTableRecord
  2
DOT
 70
    0
  3
Dot . . . . . . . . . . . . . . . . . . . . . .
 72
   65
 73
    2
 40
6.35
 49
0
 74
    0
 49
-6.35
 74
    0
  0
LTYPE
  5
33
330
5
100
AcDbSymbolTableRecord
100
AcDbLinetypeTableRecord
  2
DOTTINY
 70
    0
  3
Dot (.15x) .....................................
 72
   65
 73
    2
 40
0.9525
 49
0
 74
    0
 49
-0.9525
 74
    0
  0
LTYPE
  5
34
330
5
100
AcDbSymbolTableRecord
100
AcDbLinetypeTableRecord
  2
DOT2
 70
    0
  3
Dot (.5x) .....................................
 72
   65
 73
    2
 40
3.175
 49
0
 74
    0
 49
-3.175
 74
    0
  0
LTYPE
  5
35
330
5
100
AcDbSymbolTableRecord
100
AcDbLinetypeTableRecord
  2
DOTX2
 70
    0
  3
Dot (2x) .  .  .  .  .  .  .  .  .  .  .  .  .
 72
   65
 73
    2
 40
12.7
 49
0
 74
    0
 49
-12.7
 74
    0
  0
LTYPE
  5
36
330
5
100
AcDbSymbolTableRecord
100
AcDbLinetypeTableRecord
  2
DASHED
 70
    0
  3
Dashed _ _ _ _ _ _ _ _ _ _ _ _ _ _ _ _ _
 72
   65
 73
    2
 40
19.05
 49
12.7
 74
    0
 49
-6.35
 74
    0
  0
LTYPE
  5
37
330
5
100
AcDbSymbolTableRecord
100
AcDbLinetypeTableRecord
  2
DASHEDTINY
 70
    0
  3
Dashed (.15x) _ _ _ _ _ _ _ _ _ _ _ _ _ _ _ _ _
 72
   65
 73
    2
 40
2.8575
 49
1.905
 74
    0
 49
-0.9525
 74
    0
  0
LTYPE
  5
38
330
5
100
AcDbSymbolTableRecord
100
AcDbLinetypeTableRecord
  2
DASHED2
 70
    0
  3
Dashed (.5x) _ _ _ _ _ _ _ _ _ _ _ _ _ _ _ _ _
 72
   65
 73
    2
 40
9.524999999999999
 49
6.35
 74
    0
 49
-3.175
 74
    0
  0
LTYPE
  5
39
330
5
100
AcDbSymbolTableRecord
100
AcDbLinetypeTableRecord
  2
DASHEDX2
 70
    0
  3
Dashed (2x) ____  ____  ____  ____  ____  ___
 72
   65
 73
    2
 40
38.09999999999999
 49
25.4
 74
    0
 49
-12.7
 74
    0
  0
LTYPE
  5
3A
330
5
100
AcDbSymbolTableRecord
100
AcDbLinetypeTableRecord
  2
DASHDOT
 70
    0
  3
Dash dot __ . __ . __ . __ . __ . __ . __ . __
 72
   65
 73
    4
 40
25.4
 49
12.7
 74
    0
 49
-6.35
 74
    0
 49
0
 74
    0
 49
-6.35
 74
    0
  0
LTYPE
  5
3B
330
5
100
AcDbSymbolTableRecord
100
AcDbLinetypeTableRecord
  2
DASHDOTTINY
 70
    0
  3
Dash dot (.15x) _._._._._._._._._._._._._._._.
 72
   65
 73
    4
 40
3.81
 49
1.905
 74
    0
 49
-0.9525
 74
    0
 49
0
 74
    0
 49
-0.9525
 74
    0
  0
LTYPE
  5
3C
330
5
100
AcDbSymbolTableRecord
100
AcDbLinetypeTableRecord
  2
DASHDOT2
 70
    0
  3
Dash dot (.5x) _._._._._._._._._._._._._._._.
 72
   65
 73
    4
 40
12.7
 49
6.35
 74
    0
 49
-3.175
 74
    0
 49
0
 74
    0
 49
-3.175
 74
    0
  0
LTYPE
  5
3D
330
5
100
AcDbSymbolTableRecord
100
AcDbLinetypeTableRecord
  2
DASHDOTX2
 70
    0
  3
Dash dot (2x) ____  .  ____  .  ____  .  ___
 72
   65
 73
    4
 40
50.8
 49
25.4
 74
    0
 49
-12.7
 74
    0
 49
0
 74
    0
 49
-12.7
 74
    0
  0
LTYPE
  5
3E
330
5
100
AcDbSymbolTableRecord
100
AcDbLinetypeTableRecord
  2
DIVIDE
 70
    0
  3
Divide ____ . . ____ . . ____ . . ____ . . ____
 72
   65
 73
    6
 40
31.75
 49
12.7
 74
    0
 49
-6.35
 74
    0
 49
0
 74
    0
 49
-6.35
 74
    0
 49
0
 74
    0
 49
-6.35
 74
    0
  0
LTYPE
  5
3F
330
5
100
AcDbSymbolTableRecord
100
AcDbLinetypeTableRecord
  2
DIVIDETINY
 70
    0
  3
Divide (.15x) __..__..__..__..__..__..__..__.._
 72
   65
 73
    6
 40
4.7625
 49
1.905
 74
    0
 49
-0.9525
 74
    0
 49
0
 74
    0
 49
-0.9525
 74
    0
 49
0
 74
    0
 49
-0.9525
 74
    0
  0
LTYPE
  5
40
330
5
100
AcDbSymbolTableRecord
100
AcDbLinetypeTableRecord
  2
DIVIDE2
 70
    0
  3
Divide (.5x) __..__..__..__..__..__..__..__.._
 72
   65
 73
    6
 40
15.875
 49
6.35
 74
    0
 49
-3.175
 74
    0
 49
0
 74
    0
 49
-3.175
 74
    0
 49
0
 74
    0
 49
-3.175
 74
    0
  0
LTYPE
  5
41
330
5
100
AcDbSymbolTableRecord
100
AcDbLinetypeTableRecord
  2
DIVIDEX2
 70
    0
  3
Divide (2x) ________  .  .  ________  .  .  _
 72
   65
 73
    6
 40
63.5
 49
25.4
 74
    0
 49
-12.7
 74
    0
 49
0
 74
    0
 49
-12.7
 74
    0
 49
0
 74
    0
 49
-12.7
 74
    0
  0
LTYPE
  5
42
330
5
100
AcDbSymbolTableRecord
100
AcDbLinetypeTableRecord
  2
BORDER
 70
    0
  3
Border __ __ . __ __ . __ __ . __ __ . __ __ .
 72
   65
 73
    6
 40
44.45
 49
12.7
 74
    0
 49
-6.35
 74
    0
 49
12.7
 74
    0
 49
-6.35
 74
    0
 49
0
 74
    0
 49
-6.35
 74
    0
  0
LTYPE
  5
43
330
5
100
AcDbSymbolTableRecord
100
AcDbLinetypeTableRecord
  2
BORDERTINY
 70
    0
  3
Border (.15x) __.__.__.__.__.__.__.__.__.__.__.
 72
   65
 73
    6
 40
6.6675
 49
1.905
 74
    0
 49
-0.9525
 74
    0
 49
1.905
 74
    0
 49
-0.9525
 74
    0
 49
0
 74
    0
 49
-0.9525
 74
    0
  0
LTYPE
  5
44
330
5
100
AcDbSymbolTableRecord
100
AcDbLinetypeTableRecord
  2
BORDER2
 70
    0
  3
Border (.5x) __.__.__.__.__.__.__.__.__.__.__.
 72
   65
 73
    6
 40
22.225
 49
6.35
 74
    0
 49
-3.175
 74
    0
 49
6.35
 74
    0
 49
-3.175
 74
    0
 49
0
 74
    0
 49
-3.175
 74
    0
  0
LTYPE
  5
45
330
5
100
AcDbSymbolTableRecord
100
AcDbLinetypeTableRecord
  2
BORDERX2
 70
    0
  3
Border (2x) ____  ____  .  ____  ____  .  ___
 72
   65
 73
    6
 40
88.89999999999999
 49
25.4
 74
    0
 49
-12.7
 74
    0
 49
25.4
 74
    0
 49
-12.7
 74
    0
 49
0
 74
    0
 49
-12.7
 74
    0
  0
LTYPE
  5
46
330
5
100
AcDbSymbolTableRecord
100
AcDbLinetypeTableRecord
  2
CENTER
 70
    0
  3
Center ____ _ ____ _ ____ _ ____ _ ____ _ ____
 72
   65
 73
    4
 40
50.8
 49
31.75
 74
    0
 49
-6.35
 74
    0
 49
6.35
 74
    0
 49
-6.35
 74
    0
  0
LTYPE
  5
47
330
5
100
AcDbSymbolTableRecord
100
AcDbLinetypeTableRecord
  2
CENTERTINY
 70
    0
  3
Center (.15x) ___ _ ___ _ ___ _ ___ _ ___ _ ___
 72
   65
 73
    4
 40
7.619999999999999
 49
4.7625
 74
    0
 49
-0.9525
 74
    0
 49
0.9525
 74
    0
 49
-0.9525
 74
    0
  0
LTYPE
  5
48
330
5
100
AcDbSymbolTableRecord
100
AcDbLinetypeTableRecord
  2
CENTER2
 70
    0
  3
Center (.5x) ___ _ ___ _ ___ _ ___ _ ___ _ ___
 72
   65
 73
    4
 40
28.575
 49
19.05
 74
    0
 49
-3.175
 74
    0
 49
3.175
 74
    0
 49
-3.175
 74
    0
  0
LTYPE
  5
49
330
5
100
AcDbSymbolTableRecord
100
AcDbLinetypeTableRecord
  2
CENTERX2
 70
    0
  3
Center (2x) ________  __  ________  __  _____
 72
   65
 73
    4
 40
101.6
 49
63.5
 74
    0
 49
-12.7
 74
    0
 49
12.7
 74
    0
 49
-12.7
 74
    0
  0
ENDTAB
  0
TABLE
  2
LAYER
  5
2
330
0
100
AcDbSymbolTable
 70
    1
  0
LAYER
  5
10
330
2
100
AcDbSymbolTableRecord
100
AcDbLayerTableRecord
  2
0
 70
    0
 62
    7
  6
CONTINUOUS
370
   35
390
F
  0
LAYER
  5
4A
330
2
100
AcDbSymbolTableRecord
100
AcDbLayerTableRecord
  2
bemassung
 70
    0
 62
    7
  6
CONTINUOUS
370
   13
390
F
  0
LAYER
  5
4B
330
2
100
AcDbSymbolTableRecord
100
AcDbLayerTableRecord
  2
konstruktion
 70
    1
 62
    7
  6
DIVIDE2
290
0
370
    5
390
F
1001
LibreCad
1070
    1
  0
LAYER
  5
4C
330
2
100
AcDbSymbolTableRecord
100
AcDbLayerTableRecord
  2
schraffierung
 70
    0
 62
    7
  6
CONTINUOUS
370
   18
390
F
  0
LAYER
  5
4D
330
2
100
AcDbSymbolTableRecord
100
AcDbLayerTableRecord
  2
symmetrie
 70
    0
 62
    7
  6
CENTERTINY
370
   18
390
F
  0
LAYER
  5
4E
330
2
100
AcDbSymbolTableRecord
100
AcDbLayerTableRecord
  2
umrandung
 70
    0
 62
    7
  6
CONTINUOUS
370
   25
390
F
  0
LAYER
  5
4F
330
2
100
AcDbSymbolTableRecord
100
AcDbLayerTableRecord
  2
verdeckt
 70
    0
 62
    7
  6
DASHED2
370
   18
390
F
  0
ENDTAB
  0
TABLE
  2
STYLE
  5
3
330
0
100
AcDbSymbolTable
 70
    3
  0
STYLE
  5
50
330
2
100
AcDbSymbolTableRecord
100
AcDbTextStyleTableRecord
  2
iso
 70
    0
 40
0
 41
1
 50
0
 71
    0
 42
1
  3
iso
  4

  0
STYLE
  5
51
330
2
100
AcDbSymbolTableRecord
100
AcDbTextStyleTableRecord
  2
standard
 70
    0
 40
0
 41
1
 50
0
 71
    0
 42
1
  3
standard
  4

  0
ENDTAB
  0
TABLE
  2
VIEW
  5
6
330
0
100
AcDbSymbolTable
 70
    0
  0
ENDTAB
  0
TABLE
  2
UCS
  5
7
330
0
100
AcDbSymbolTable
 70
    0
  0
ENDTAB
  0
TABLE
  2
APPID
  5
9
330
0
100
AcDbSymbolTable
 70
    1
  0
APPID
  5
12
330
9
100
AcDbSymbolTableRecord
100
AcDbRegAppTableRecord
  2
ACAD
 70
    0
  0
APPID
  5
52
330
9
100
AcDbSymbolTableRecord
100
AcDbRegAppTableRecord
  2
LibreCad
 70
    0
  0
ENDTAB
  0
TABLE
  2
DIMSTYLE
  5
A
330
0
100
AcDbSymbolTable
 70
    1
100
AcDbDimStyleTable
 71
    1
  0
DIMSTYLE
105
53
330
A
100
AcDbSymbolTableRecord
100
AcDbDimStyleTableRecord
  2
Standard
 70
    0
 40
1
 41
2.5
 42
0.625
 43
0.38
 44
1.25
 45
0
 46
0
 47
0
 48
0
 49
1
140
2.5
141
0.09
142
0
143
25.4
144
1
145
0
146
1
147
0.625
148
0
 71
    0
 72
    0
 73
    0
 74
    1
 75
    0
 76
    0
 77
    0
 78
    9
 79
    0
170
    0
171
    2
172
    0
173
    0
174
    0
175
    0
176
    0
177
    0
178
    0
179
    2
271
    3
272
    4
273
    2
274
    2
275
    0
276
    0
277
    2
278
    0
279
    0
280
    0
281
    0
282
    0
283
    1
284
    0
285
    0
286
    0
288
    0
289
    3
340
standard
341

371
   -2
372
   -2
  0
ENDTAB
  0
TABLE
  2
BLOCK_RECORD
  5
1
330
0
100
AcDbSymbolTable
 70
    2
  0
BLOCK_RECORD
  5
1F
330
1
100
AcDbSymbolTableRecord
100
AcDbBlockTableRecord
  2
*Model_Space
 70
    0
280
    1
281
    0
  0
BLOCK_RECORD
  5
1E
330
1
100
AcDbSymbolTableRecord
100
AcDbBlockTableRecord
  2
*Paper_Space
 70
    0
280
    1
281
    0
  0
BLOCK_RECORD
  5
54
330
1
100
AcDbSymbolTableRecord
100
AcDbBlockTableRecord
  2
*D7
 70
    0
280
    1
281
    0
  0
BLOCK_RECORD
  5
57
330
1
100
AcDbSymbolTableRecord
100
AcDbBlockTableRecord
  2
*D3
 70
    0
280
    1
281
    0
  0
BLOCK_RECORD
  5
5A
330
1
100
AcDbSymbolTableRecord
100
AcDbBlockTableRecord
  2
*D2
 70
    0
280
    1
281
    0
  0
BLOCK_RECORD
  5
5D
330
1
100
AcDbSymbolTableRecord
100
AcDbBlockTableRecord
  2
*D4
 70
    0
280
    1
281
    0
  0
BLOCK_RECORD
  5
60
330
1
100
AcDbSymbolTableRecord
100
AcDbBlockTableRecord
  2
*D5
 70
    0
280
    1
281
    0
  0
BLOCK_RECORD
  5
63
330
1
100
AcDbSymbolTableRecord
100
AcDbBlockTableRecord
  2
*D6
 70
    0
280
    1
281
    0
  0
BLOCK_RECORD
  5
66
330
1
100
AcDbSymbolTableRecord
100
AcDbBlockTableRecord
  2
*D1
 70
    0
280
    1
281
    0
  0
BLOCK_RECORD
  5
69
330
1
100
AcDbSymbolTableRecord
100
AcDbBlockTableRecord
  2
A4
 70
    0
280
    1
281
    0
  0
ENDTAB
  0
ENDSEC
  0
SECTION
  2
BLOCKS
  0
BLOCK
  5
20
330
1F
100
AcDbEntity
  8
0
100
AcDbBlockBegin
  2
*Model_Space
 70
    0
 10
0
 20
0
 30
0
  3
*Model_Space
  1

  0
ENDBLK
  5
21
330
1F
100
AcDbEntity
  8
0
100
AcDbBlockEnd
  0
BLOCK
  5
1C
330
1B
100
AcDbEntity
  8
0
100
AcDbBlockBegin
  2
*Paper_Space
 70
    0
 10
0
 20
0
 30
0
  3
*Paper_Space
  1

  0
ENDBLK
  5
1D
330
1F
100
AcDbEntity
  8
0
100
AcDbBlockEnd
  0
BLOCK
  5
55
330
54
100
AcDbEntity
  8
0
100
AcDbBlockBegin
  2
*D7
 70
    1
 10
0
 20
0
  3
*D7
  1

  0
LINE
  5
6C
100
AcDbEntity
  8
bemassung
  6
CONTINUOUS
 62
    7
370
    0
100
AcDbLine
 10
16.11111111111111
 20
-59.00000000000001
 11
25.11111111111111
 21
-67.00000000000001
  0
LINE
  5
6D
100
AcDbEntity
  8
bemassung
  6
CONTINUOUS
 62
    7
370
    0
100
AcDbLine
 10
25.11111111111111
 20
-67.00000000000001
 11
37.11111111111111
 21
-67.00000000000001
  0
LINE
  5
6E
100
AcDbEntity
  8
bemassung
  6
CONTINUOUS
 62
    7
370
    0
100
AcDbLine
 10
37.11111111111111
 20
-67.00000000000001
 11
37.11111111111111
 21
-67.00000000000001
  0
SOLID
  5
6F
100
AcDbEntity
  8
bemassung
  6
CONTINUOUS
 62
    7
370
    0
100
AcDbTrace
 10
16.11111111111111
 20
-59.00000000000001
 30
0
 11
18.25619888110422
 21
-60.34977456463035
 31
0
 12
17.70306993453629
 22
-60.97204462951927
 32
0
 13
17.70306993453629
 23
-60.97204462951927
 33
0
  0
ENDBLK
  5
56
330
54
100
AcDbEntity
  8
0
100
AcDbBlockEnd
  0
BLOCK
  5
58
330
57
100
AcDbEntity
  8
0
100
AcDbBlockBegin
  2
*D3
 70
    1
 10
0
 20
0
  3
*D3
  1

  0
LINE
  5
70
100
AcDbEntity
  8
bemassung
  6
ByBlock
 62
    0
370
   -2
100
AcDbLine
 10
24
 20
-45.00000000000001
 11
24
 21
-60
  0
SOLID
  5
71
100
AcDbEntity
  8
bemassung
  6
ByBlock
 62
    0
370
   -2
100
AcDbTrace
 10
24
 20
-50.00000000000001
 30
0
 11
23.58371534222716
 21
-47.50000000000001
 31
0
 12
24.41628465777284
 22
-47.50000000000001
 32
0
 13
24.41628465777284
 23
-47.50000000000001
 33
0
  0
SOLID
  5
72
100
AcDbEntity
  8
bemassung
  6
ByBlock
 62
    0
370
   -2
100
AcDbTrace
 10
24
 20
-55
 30
0
 11
24.41628465777284
 21
-57.5
 31
0
 12
23.58371534222716
 22
-57.5
 32
0
 13
23.58371534222716
 23
-57.5
 33
0
  0
MTEXT
  5
73
100
AcDbEntity
  8
bemassung
  6
CONTINUOUS
 62
    0
370
   -2
100
AcDbMText
 10
22.125
 20
-52.5
 30
0
 40
2.5
 41
1.111111111111266
 71
    5
 72
    1
  1
5
  7
standard
210
0
220
0
230
1
 50
90
 73
    2
 44
1
  0
LINE
  5
74
100
AcDbEntity
  8
bemassung
  6
ByBlock
 62
    0
370
   -2
100
AcDbLine
 10
13.125
 20
-50.00000000000001
 11
25.25
 21
-50.00000000000001
  0
LINE
  5
75
100
AcDbEntity
  8
bemassung
  6
ByBlock
 62
    0
370
   -2
100
AcDbLine
 10
8.624999999999996
 20
-55
 11
25.25
 21
-55
  0
ENDBLK
  5
59
330
57
100
AcDbEntity
  8
0
100
AcDbBlockEnd
  0
BLOCK
  5
5B
330
5A
100
AcDbEntity
  8
0
100
AcDbBlockBegin
  2
*D2
 70
    1
 10
0
 20
0
  3
*D2
  1

  0
LINE
  5
76
100
AcDbEntity
  8
bemassung
  6
ByBlock
 62
    0
370
   -2
100
AcDbLine
 10
-7.999999999999999
 20
-43
 11
7.999999999999996
 21
-43
  0
SOLID
  5
77
100
AcDbEntity
  8
bemassung
  6
ByBlock
 62
    0
370
   -2
100
AcDbTrace
 10
-7.999999999999999
 20
-43
 30
0
 11
-5.499999999999999
 21
-42.58371534222716
 31
0
 12
-5.499999999999999
 22
-43.41628465777284
 32
0
 13
-5.499999999999999
 23
-43.41628465777284
 33
0
  0
SOLID
  5
78
100
AcDbEntity
  8
bemassung
  6
ByBlock
 62
    0
370
   -2
100
AcDbTrace
 10
7.999999999999996
 20
-43
 30
0
 11
5.499999999999996
 21
-43.41628465777284
 31
0
 12
5.499999999999996
 22
-42.58371534222716
 32
0
 13
5.499999999999996
 23
-42.58371534222716
 33
0
  0
MTEXT
  5
79
100
AcDbEntity
  8
bemassung
  6
CONTINUOUS
 62
    0
370
   -2
100
AcDbMText
 10
-7.733677822800608e-16
 20
-41.125
 30
0
 40
2.5
 41
5.000000000000156
 71
    5
 72
    1
  1
%%C16
  7
standard
210
0
220
0
230
1
 50
0
 73
    2
 44
1
  0
LINE
  5
7A
100
AcDbEntity
  8
bemassung
  6
ByBlock
 62
    0
370
   -2
100
AcDbLine
 10
-8
 20
-49.375
 11
-7.999999999999999
 21
-41.75
  0
LINE
  5
7B
100
AcDbEntity
  8
bemassung
  6
ByBlock
 62
    0
370
   -2
100
AcDbLine
 10
7.999999999999996
 20
-49.37500000000001
 11
7.999999999999996
 21
-41.75
  0
ENDBLK
  5
5C
330
5A
100
AcDbEntity
  8
0
100
AcDbBlockEnd
  0
BLOCK
  5
5E
330
5D
100
AcDbEntity
  8
0
100
AcDbBlockBegin
  2
*D4
 70
    1
 10
0
 20
0
  3
*D4
  1

  0
LINE
  5
7C
100
AcDbEntity
  8
bemassung
  6
ByBlock
 62
    0
370
   -2
100
AcDbLine
 10
12.02081528017131
 20
12.02081528017131
 11
-12.02081528017131
 21
-12.02081528017131
  0
SOLID
  5
7D
100
AcDbEntity
  8
bemassung
  6
ByBlock
 62
    0
370
   -2
100
AcDbTrace
 10
12.02081528017131
 20
12.02081528017131
 30
0
 11
10.54740603162004
 21
9.958690622789845
 31
0
 12
9.958690622789845
 22
10.54740603162004
 32
0
 13
9.958690622789845
 23
10.54740603162004
 33
0
  0
SOLID
  5
7E
100
AcDbEntity
  8
bemassung
  6
ByBlock
 62
    0
370
   -2
100
AcDbTrace
 10
-12.02081528017131
 20
-12.02081528017131
 30
0
 11
-10.54740603162004
 21
-9.958690622789845
 31
0
 12
-9.958690622789845
 22
-10.54740603162004
 32
0
 13
-9.958690622789845
 23
-10.54740603162004
 33
0
  0
MTEXT
  5
7F
100
AcDbEntity
  8
bemassung
  6
CONTINUOUS
 62
    0
370
   -2
100
AcDbMText
 10
-1.325825214724775
 20
1.325825214724777
 30
0
 40
2.5
 41
5.833333333333489
 71
    5
 72
    1
  1
%%C34
  7
standard
210
0
220
0
230
1
 50
45
 73
    2
 44
1
  0
ENDBLK
  5
5F
330
5D
100
AcDbEntity
  8
0
100
AcDbBlockEnd
  0
BLOCK
  5
61
330
60
100
AcDbEntity
  8
0
100
AcDbBlockBegin
  2
*D5
 70
    1
 10
0
 20
0
  3
*D5
  1

  0
LINE
  5
80
100
AcDbEntity
  8
bemassung
  6
ByBlock
 62
    0
370
   -2
100
AcDbLine
 10
-38
 20
-50.00000000000001
 11
-38
 21
-59.99999999999997
  0
SOLID
  5
81
100
AcDbEntity
  8
bemassung
  6
ByBlock
 62
    0
370
   -2
100
AcDbTrace
 10
-38
 20
-50.00000000000001
 30
0
 11
-37.58371534222716
 21
-52.50000000000001
 31
0
 12
-38.41628465777284
 22
-52.50000000000001
 32
0
 13
-38.41628465777284
 23
-52.50000000000001
 33
0
  0
SOLID
  5
82
100
AcDbEntity
  8
bemassung
  6
ByBlock
 62
    0
370
   -2
100
AcDbTrace
 10
-38
 20
-59.99999999999997
 30
0
 11
-38.41628465777284
 21
-57.49999999999997
 31
0
 12
-37.58371534222716
 22
-57.49999999999997
 32
0
 13
-37.58371534222716
 23
-57.49999999999997
 33
0
  0
MTEXT
  5
83
100
AcDbEntity
  8
bemassung
  6
CONTINUOUS
 62
    0
370
   -2
100
AcDbMText
 10
-39.875
 20
-54.99999999999999
 30
0
 40
2.5
 41
2.5
 71
    5
 72
    1
  1
10
  7
standard
210
0
220
0
230
1
 50
90
 73
    2
 44
1
  0
LINE
  5
84
100
AcDbEntity
  8
bemassung
  6
ByBlock
 62
    0
370
   -2
100
AcDbLine
 10
-13.12500000000001
 20
-50.00000000000001
 11
-39.25
 21
-50.00000000000001
  0
LINE
  5
85
100
AcDbEntity
  8
bemassung
  6
ByBlock
 62
    0
370
   -2
100
AcDbLine
 10
-15.625
 20
-59.99999999999997
 11
-39.25
 21
-59.99999999999997
  0
ENDBLK
  5
62
330
60
100
AcDbEntity
  8
0
100
AcDbBlockEnd
  0
BLOCK
  5
64
330
63
100
AcDbEntity
  8
0
100
AcDbBlockBegin
  2
*D6
 70
    1
 10
0
 20
0
  3
*D6
  1

  0
LINE
  5
86
100
AcDbEntity
  8
bemassung
  6
ByBlock
 62
    0
370
   -2
100
AcDbLine
 10
-27
 20
-52
 11
-27
 21
-64.99999999999997
  0
SOLID
  5
87
100
AcDbEntity
  8
bemassung
  6
ByBlock
 62
    0
370
   -2
100
AcDbTrace
 10
-27
 20
-57
 30
0
 11
-27.41628465777284
 21
-54.5
 31
0
 12
-26.58371534222716
 22
-54.5
 32
0
 13
-26.58371534222716
 23
-54.5
 33
0
  0
SOLID
  5
88
100
AcDbEntity
  8
bemassung
  6
ByBlock
 62
    0
370
   -2
100
AcDbTrace
 10
-27
 20
-59.99999999999997
 30
0
 11
-26.58371534222716
 21
-62.49999999999997
 31
0
 12
-27.41628465777284
 22
-62.49999999999997
 32
0
 13
-27.41628465777284
 23
-62.49999999999997
 33
0
  0
MTEXT
  5
89
100
AcDbEntity
  8
bemassung
  6
CONTINUOUS
 62
    0
370
   -2
100
AcDbMText
 10
-28.875
 20
-58.49999999999999
 30
0
 40
2.5
 41
1.111111111111266
 71
    5
 72
    1
  1
3
  7
standard
210
0
220
0
230
1
 50
90
 73
    2
 44
1
  0
LINE
  5
8A
100
AcDbEntity
  8
bemassung
  6
ByBlock
 62
    0
370
   -2
100
AcDbLine
 10
-17.625
 20
-57
 11
-28.25
 21
-57
  0
LINE
  5
8B
100
AcDbEntity
  8
bemassung
  6
ByBlock
 62
    0
370
   -2
100
AcDbLine
 10
-15.625
 20
-59.99999999999997
 11
-28.25
 21
-59.99999999999997
  0
ENDBLK
  5
65
330
63
100
AcDbEntity
  8
0
100
AcDbBlockEnd
  0
BLOCK
  5
67
330
66
100
AcDbEntity
  8
0
100
AcDbBlockBegin
  2
*D1
 70
    1
 10
0
 20
0
  3
*D1
  1

  0
LINE
  5
8C
100
AcDbEntity
  8
bemassung
  6
ByBlock
 62
    0
370
   -2
100
AcDbLine
 10
-12.50000000000001
 20
-34
 11
12.5
 21
-34
  0
SOLID
  5
8D
100
AcDbEntity
  8
bemassung
  6
ByBlock
 62
    0
370
   -2
100
AcDbTrace
 10
-12.50000000000001
 20
-34
 30
0
 11
-10.00000000000001
 21
-33.58371534222716
 31
0
 12
-10.00000000000001
 22
-34.41628465777284
 32
0
 13
-10.00000000000001
 23
-34.41628465777284
 33
0
  0
SOLID
  5
8E
100
AcDbEntity
  8
bemassung
  6
ByBlock
 62
    0
370
   -2
100
AcDbTrace
 10
12.5
 20
-34
 30
0
 11
10
 21
-34.41628465777284
 31
0
 12
10
 22
-33.58371534222716
 32
0
 13
10
 23
-33.58371534222716
 33
0
  0
MTEXT
  5
8F
100
AcDbEntity
  8
bemassung
  6
CONTINUOUS
 62
    0
370
   -2
100
AcDbMText
 10
-3.437903041380437e-15
 20
-32.125
 30
0
 40
2.5
 41
5.555555555555712
 71
    5
 72
    1
  1
%%C25
  7
standard
210
0
220
0
230
1
 50
0
 73
    2
 44
1
  0
LINE
  5
90
100
AcDbEntity
  8
bemassung
  6
ByBlock
 62
    0
370
   -2
100
AcDbLine
 10
-12.50000000000001
 20
-49.37500000000001
 11
-12.50000000000001
 21
-32.75
  0
LINE
  5
91
100
AcDbEntity
  8
bemassung
  6
ByBlock
 62
    0
370
   -2
100
AcDbLine
 10
12.5
 20
-49.37500000000001
 11
12.5
 21
-32.75
  0
ENDBLK
  5
68
330
66
100
AcDbEntity
  8
0
100
AcDbBlockEnd
  0
BLOCK
  5
6A
330
69
100
AcDbEntity
  8
0
100
AcDbBlockBegin
  2
A4
 70
    0
 10
0
 20
0
  3
A4
  1

  0
HATCH
  5
92
100
AcDbEntity
  8
umrandung
  6
ByLayer
 62
  256
370
   -1
100
AcDbHatch
 10
0
 20
0
 30
0
210
0
220
0
230
1
  2
ansi31
 70
    0
 71
    0
 91
    1
 92
    0
 93
    3
 72
    1
 10
-8.526512829121202e-14
 20
97.9292929195
 11
-3.061705972670012
 21
96.16161615199999
 72
    1
 10
-3.061705972670012
 20
96.16161615199999
 11
-3.061705972670012
 21
99.69696968700001
 72
    1
 10
-3.061705972670012
 20
99.69696968700001
 11
-8.526512829121202e-14
 21
97.9292929195
 97
    0
 75
    0
 76
    1
 52
0
 41
0.3535353535
 77
    0
 78
    0
 98
    0
  0
HATCH
  5
93
100
AcDbEntity
  8
umrandung
  6
ByLayer
 62
  256
370
   -1
100
AcDbHatch
 10
0
 20
0
 30
0
210
0
220
0
230
1
  2
ansi31
 70
    0
 71
    0
 91
    1
 92
    0
 93
    3
 72
    1
 10
275.75757573
 20
97.9292929195
 11
278.819281703
 21
96.16161615199999
 72
    1
 10
278.819281703
 20
96.16161615199999
 11
278.819281703
 21
99.69696968700001
 72
    1
 10
278.819281703
 20
99.69696968700001
 11
275.75757573
 21
97.9292929195
 97
    0
 75
    0
 76
    1
 52
3.14159265359
 41
0.3535353535
 77
    0
 78
    0
 98
    0
  0
HATCH
  5
94
100
AcDbEntity
  8
umrandung
  6
ByLayer
 62
  256
370
   -1
100
AcDbHatch
 10
0
 20
0
 30
0
210
0
220
0
230
1
  2
ansi31
 70
    0
 71
    0
 91
    1
 92
    0
 93
    3
 72
    1
 10
74.24240726530002
 20
-1.696969687259298e-05
 11
72.47473049780001
 21
-3.061722942360007
 72
    1
 10
72.47473049780001
 20
-3.061722942360007
 11
76.01008403279999
 21
-3.061722942360007
 72
    1
 10
76.01008403279999
 20
-3.061722942360007
 11
74.24240726530002
 21
-1.696969687259298e-05
 97
    0
 75
    0
 76
    1
 52
4.71238898038
 41
0.3535353535
 77
    0
 78
    0
 98
    0
  0
HATCH
  5
95
100
AcDbEntity
  8
umrandung
  6
ByLayer
 62
  256
370
   -1
100
AcDbHatch
 10
0
 20
0
 30
0
210
0
220
0
230
1
  2
ansi31
 70
    0
 71
    0
 91
    1
 92
    0
 93
    3
 72
    1
 10
148.4848315
 20
-1.696969647468904e-05
 11
146.717154733
 21
-3.061722942360007
 72
    1
 10
146.717154733
 20
-3.061722942360007
 11
150.252508268
 21
-3.061722942360007
 72
    1
 10
150.252508268
 20
-3.061722942360007
 11
148.4848315
 21
-1.696969647468904e-05
 97
    0
 75
    0
 76
    1
 52
4.71238898038
 41
0.3535353535
 77
    0
 78
    0
 98
    0
  0
HATCH
  5
96
100
AcDbEntity
  8
umrandung
  6
ByLayer
 62
  256
370
   -1
100
AcDbHatch
 10
0
 20
0
 30
0
210
0
220
0
230
1
  2
ansi31
 70
    0
 71
    0
 91
    1
 92
    0
 93
    3
 72
    1
 10
208.585858565
 20
-1.696969721365349e-05
 11
206.818181797
 21
-3.061722942360007
 72
    1
 10
206.818181797
 20
-3.061722942360007
 11
210.353535333
 21
-3.061722942360007
 72
    1
 10
210.353535333
 20
-3.061722942360007
 11
208.585858565
 21
-1.696969721365349e-05
 97
    0
 75
    0
 76
    1
 52
4.71238898038
 41
0.3535353535
 77
    0
 78
    0
 98
    0
  0
HATCH
  5
97
100
AcDbEntity
  8
umrandung
  6
ByLayer
 62
  256
370
   -1
100
AcDbHatch
 10
0
 20
0
 30
0
210
0
220
0
230
1
  2
ansi31
 70
    0
 71
    0
 91
    1
 92
    0
 93
    3
 72
    1
 10
208.585858565
 20
195.858602809
 11
206.818181797
 21
198.920308781
 72
    1
 10
206.818181797
 20
198.920308781
 11
210.353535333
 21
198.920308781
 72
    1
 10
210.353535333
 20
198.920308781
 11
208.585858565
 21
195.858602809
 97
    0
 75
    0
 76
    1
 52
4.71238898038
 41
0.3535353535
 77
    0
 78
    0
 98
    0
  0
HATCH
  5
98
100
AcDbEntity
  8
umrandung
  6
ByLayer
 62
  256
370
   -1
100
AcDbHatch
 10
0
 20
0
 30
0
210
0
220
0
230
1
  2
ansi31
 70
    0
 71
    0
 91
    1
 92
    0
 93
    3
 72
    1
 10
148.4848315
 20
195.858602809
 11
146.717154733
 21
198.920308781
 72
    1
 10
146.717154733
 20
198.920308781
 11
150.252508268
 21
198.920308781
 72
    1
 10
150.252508268
 20
198.920308781
 11
148.4848315
 21
195.858602809
 97
    0
 75
    0
 76
    1
 52
4.71238898038
 41
0.3535353535
 77
    0
 78
    0
 98
    0
  0
HATCH
  5
99
100
AcDbEntity
  8
umrandung
  6
ByLayer
 62
  256
370
   -1
100
AcDbHatch
 10
0
 20
0
 30
0
210
0
220
0
230
1
  2
ansi31
 70
    0
 71
    0
 91
    1
 92
    0
 93
    3
 72
    1
 10
74.24240726530002
 20
195.858602809
 11
72.47473049780001
 21
198.920308781
 72
    1
 10
72.47473049780001
 20
198.920308781
 11
76.01008403279999
 21
198.920308781
 72
    1
 10
76.01008403279999
 20
198.920308781
 11
74.24240726530002
 21
195.858602809
 97
    0
 75
    0
 76
    1
 52
4.71238898038
 41
0.3535353535
 77
    0
 78
    0
 98
    0
  0
CIRCLE
  5
9A
100
AcDbEntity
  8
umrandung
  6
ByLayer
 62
  256
370
   -1
100
AcDbCircle
 10
-3.535353535000013
 20
150.429292914
 40
2.121212121
  0
LINE
  5
9B
100
AcDbEntity
  8
umrandung
  6
ByLayer
 62
  256
370
   -1
100
AcDbLine
 10
-8.526512829121202e-14
 20
97.9292929195
 11
-3.061705972670012
 21
96.16161615199999
  0
LINE
  5
9C
100
AcDbEntity
  8
umrandung
  6
ByLayer
 62
  256
370
   -1
100
AcDbLine
 10
-8.526512829121202e-14
 20
97.9292929195
 11
-3.061705972670012
 21
99.69696968700001
  0
LINE
  5
9D
100
AcDbEntity
  8
umrandung
  6
ByLayer
 62
  256
370
   -1
100
AcDbLine
 10
-3.061705972670012
 20
96.16161615199999
 11
-3.061705972670012
 21
99.69696968700001
  0
CIRCLE
  5
9E
100
AcDbEntity
  8
umrandung
  6
ByLayer
 62
  256
370
   -1
100
AcDbCircle
 10
-3.535353535000013
 20
45.4292929248
 40
2.121212121
  0
LINE
  5
9F
100
AcDbEntity
  8
umrandung
  6
ByLayer
 62
  256
370
   -1
100
AcDbLine
 10
0
 20
195.858585839
 11
0
 21
0
  0
LINE
  5
A0
100
AcDbEntity
  8
umrandung
  6
ByLayer
 62
  256
370
   -1
100
AcDbLine
 10
0
 20
0
 11
275.75757573
 21
-2.842170943040401e-14
  0
LINE
  5
A1
100
AcDbEntity
  8
umrandung
  6
ByLayer
 62
  256
370
   -1
100
AcDbLine
 10
250.020216844
 20
39.06572302640001
 11
250.020216844
 21
34.55811757230001
  0
LINE
  5
A2
100
AcDbEntity
  8
umrandung
  6
ByLayer
 62
  256
370
   -1
100
AcDbLine
 10
266.565656539
 20
12.0201928271
 11
266.565656539
 21
3.005080201720006
  0
LINE
  5
A3
100
AcDbEntity
  8
umrandung
  6
ByLayer
 62
  256
370
   -1
100
AcDbLine
 10
244.505074521
 20
3.005126161319993
 11
244.505074521
 21
6.929292919721775e-05
  0
LINE
  5
A4
100
AcDbEntity
  8
umrandung
  6
ByLayer
 62
  256
370
   -1
100
AcDbLine
 10
200.383855333
 20
39.06572514760001
 11
200.383855333
 21
12.0202437362
  0
LINE
  5
A5
100
AcDbEntity
  8
umrandung
  6
ByLayer
 62
  256
370
   -1
100
AcDbLine
 10
189.353548062
 20
27.04551817909999
 11
189.353548062
 21
12.02029818060001
  0
LINE
  5
A6
100
AcDbEntity
  8
umrandung
  6
ByLayer
 62
  256
370
   -1
100
AcDbLine
 10
182.000016951
 20
39.0657201981
 11
182.000016951
 21
6.646464564141752e-05
  0
LINE
  5
A7
100
AcDbEntity
  8
umrandung
  6
ByLayer
 62
  256
370
   -1
100
AcDbLine
 10
213.252529474
 20
39.06575484460001
 11
213.252529474
 21
6.858585899749414e-05
  0
LINE
  5
A8
100
AcDbEntity
  8
umrandung
  6
ByLayer
 62
  256
370
   -1
100
AcDbLine
 10
176.48485271
 20
27.04551252249999
 11
176.484874629
 21
6.999999990853212e-05
  0
LINE
  5
A9
100
AcDbEntity
  8
umrandung
  6
ByLayer
 62
  256
370
   -1
100
AcDbLine
 10
167.292933519
 20
27.04552595690001
 11
167.292933519
 21
6.434343475802962e-05
  0
LINE
  5
AA
100
AcDbEntity
  8
umrandung
  6
ByLayer
 62
  256
370
   -1
100
AcDbLine
 10
148.909095137
 20
27.0455344417
 11
148.909095137
 21
6.575757549853734e-05
  0
LINE
  5
AB
100
AcDbEntity
  8
umrandung
  6
ByLayer
 62
  256
370
   -1
100
AcDbLine
 10
143.393952107
 20
15.02530555409999
 11
213.252529474
 21
15.0253175743
  0
LINE
  5
AC
100
AcDbEntity
  8
umrandung
  6
ByLayer
 62
  256
370
   -1
100
AcDbLine
 10
143.393952107
 20
18.03035959420001
 11
213.252529474
 21
18.03038434160001
  0
LINE
  5
AD
100
AcDbEntity
  8
umrandung
  6
ByLayer
 62
  256
370
   -1
100
AcDbLine
 10
143.393952107
 20
21.03543555350001
 11
213.252551393
 21
21.035400907
  0
LINE
  5
AE
100
AcDbEntity
  8
umrandung
  6
ByLayer
 62
  256
370
   -1
100
AcDbLine
 10
143.393952107
 20
24.0404726239
 11
213.252551393
 21
24.04046484610001
  0
LINE
  5
AF
100
AcDbEntity
  8
umrandung
  6
ByLayer
 62
  256
370
   -1
100
AcDbLine
 10
143.393952107
 20
9.015190403139997
 11
182.000016951
 21
9.015194645560001
  0
LINE
  5
B0
100
AcDbEntity
  8
umrandung
  6
ByLayer
 62
  256
370
   -1
100
AcDbLine
 10
143.393952107
 20
6.010139191320008
 11
182.000016951
 21
6.010187272129997
  0
LINE
  5
B1
100
AcDbEntity
  8
umrandung
  6
ByLayer
 62
  256
370
   -1
100
AcDbLine
 10
213.252529474
 20
34.55816565309999
 11
275.75757573
 21
34.55810908749999
  0
LINE
  5
B2
100
AcDbEntity
  8
umrandung
  6
ByLayer
 62
  256
370
   -1
100
AcDbLine
 10
143.393952107
 20
3.005109191619994
 11
275.75757573
 21
3.005114141109999
  0
LINE
  5
B3
100
AcDbEntity
  8
umrandung
  6
ByLayer
 62
  256
370
   -1
100
AcDbLine
 10
143.393952107
 20
27.0455153508
 11
275.757618861
 21
27.04552595690001
  0
LINE
  5
B4
100
AcDbEntity
  8
umrandung
  6
ByLayer
 62
  256
370
   -1
100
AcDbLine
 10
143.393952107
 20
12.0202776756
 11
275.757618861
 21
12.0201970695
  0
LINE
  5
B5
100
AcDbEntity
  8
umrandung
  6
ByLayer
 62
  256
370
   -1
100
AcDbLine
 10
143.393952107
 20
39.06571736979998
 11
275.75757573
 21
39.0657739355
  0
LINE
  5
B6
100
AcDbEntity
  8
umrandung
  6
ByLayer
 62
  256
370
   -1
100
AcDbLine
 10
275.757618861
 20
39.06578454149999
 11
275.75757573
 21
-2.842170943040401e-14
  0
LINE
  5
B7
100
AcDbEntity
  8
umrandung
  6
ByLayer
 62
  256
370
   -1
100
AcDbLine
 10
275.75757573
 20
-2.842170943040401e-14
 11
143.393952107
 21
7.141414116063061e-05
  0
LINE
  5
B8
100
AcDbEntity
  8
umrandung
  6
ByLayer
 62
  256
370
   -1
100
AcDbLine
 10
143.393952107
 20
39.06571736979998
 11
143.393952107
 21
7.141414116063061e-05
  0
CIRCLE
  5
B9
100
AcDbEntity
  8
umrandung
  6
ByLayer
 62
  256
370
   -1
100
AcDbCircle
 10
279.292929265
 20
150.429292914
 40
2.121212121
  0
LINE
  5
BA
100
AcDbEntity
  8
umrandung
  6
ByLayer
 62
  256
370
   -1
100
AcDbLine
 10
275.75757573
 20
97.9292929195
 11
278.819281703
 21
96.16161615199999
  0
LINE
  5
BB
100
AcDbEntity
  8
umrandung
  6
ByLayer
 62
  256
370
   -1
100
AcDbLine
 10
275.75757573
 20
97.9292929195
 11
278.819281703
 21
99.69696968700001
  0
LINE
  5
BC
100
AcDbEntity
  8
umrandung
  6
ByLayer
 62
  256
370
   -1
100
AcDbLine
 10
278.819281703
 20
96.16161615199999
 11
278.819281703
 21
99.69696968700001
  0
CIRCLE
  5
BD
100
AcDbEntity
  8
umrandung
  6
ByLayer
 62
  256
370
   -1
100
AcDbCircle
 10
279.292929265
 20
45.4292929248
 40
2.121212121
  0
LINE
  5
BE
100
AcDbEntity
  8
umrandung
  6
ByLayer
 62
  256
370
   -1
100
AcDbLine
 10
0
 20
195.858585839
 11
275.75757573
 21
195.858585839
  0
LINE
  5
BF
100
AcDbEntity
  8
umrandung
  6
ByLayer
 62
  256
370
   -1
100
AcDbLine
 10
275.75757573
 20
195.858585839
 11
275.75757573
 21
-2.842170943040401e-14
  0
LINE
  5
C0
100
AcDbEntity
  8
umrandung
  6
ByLayer
 62
  256
370
   -1
100
AcDbLine
 10
74.24242423499999
 20
-7.070707069999997
 11
74.24242423499999
 21
-5.684341886080801e-14
  0
LINE
  5
C1
100
AcDbEntity
  8
umrandung
  6
ByLayer
 62
  256
370
   -1
100
AcDbLine
 10
148.48484847
 20
-7.070707069999997
 11
148.48484847
 21
3.410605131648481e-13
  0
LINE
  5
C2
100
AcDbEntity
  8
umrandung
  6
ByLayer
 62
  256
370
   -1
100
AcDbLine
 10
74.24240726530002
 20
-1.696969687259298e-05
 11
72.47473049780001
 21
-3.061722942360007
  0
LINE
  5
C3
100
AcDbEntity
  8
umrandung
  6
ByLayer
 62
  256
370
   -1
100
AcDbLine
 10
74.24240726530002
 20
-1.696969687259298e-05
 11
76.01008403279999
 21
-3.061722942360007
  0
LINE
  5
C4
100
AcDbEntity
  8
umrandung
  6
ByLayer
 62
  256
370
   -1
100
AcDbLine
 10
72.47473049780001
 20
-3.061722942360007
 11
76.01008403279999
 21
-3.061722942360007
  0
CIRCLE
  5
C5
100
AcDbEntity
  8
umrandung
  6
ByLayer
 62
  256
370
   -1
100
AcDbCircle
 10
111.363636352
 20
-3.535353535000013
 40
2.121212121
  0
LINE
  5
C6
100
AcDbEntity
  8
umrandung
  6
ByLayer
 62
  256
370
   -1
100
AcDbLine
 10
148.4848315
 20
-1.696969647468904e-05
 11
146.717154733
 21
-3.061722942360007
  0
LINE
  5
C7
100
AcDbEntity
  8
umrandung
  6
ByLayer
 62
  256
370
   -1
100
AcDbLine
 10
148.4848315
 20
-1.696969647468904e-05
 11
150.252508268
 21
-3.061722942360007
  0
LINE
  5
C8
100
AcDbEntity
  8
umrandung
  6
ByLayer
 62
  256
370
   -1
100
AcDbLine
 10
146.717154733
 20
-3.061722942360007
 11
150.252508268
 21
-3.061722942360007
  0
CIRCLE
  5
C9
100
AcDbEntity
  8
umrandung
  6
ByLayer
 62
  256
370
   -1
100
AcDbCircle
 10
37.12121211749999
 20
-3.535353535000013
 40
2.121212121
  0
MTEXT
  5
CA
100
AcDbEntity
  8
umrandung
  6
ByLayer
 62
  256
370
   -1
100
AcDbMText
 10
37.12121211749999
 20
-3.535353535000013
 30
0
 40
2.828282828
 41
0.628507295111111
 71
    5
 72
    5
  1
1
  7
iso
210
0
220
0
230
1
 50
0
 73
    2
 44
0.96
  0
MTEXT
  5
CB
100
AcDbEntity
  8
umrandung
  6
ByLayer
 62
  256
370
   -1
100
AcDbMText
 10
111.363636352
 20
-3.535353535000013
 30
0
 40
2.828282828
 41
1.257014590222222
 71
    5
 72
    5
  1
2
  7
iso
210
0
220
0
230
1
 50
0
 73
    2
 44
0.96
  0
CIRCLE
  5
CC
100
AcDbEntity
  8
umrandung
  6
ByLayer
 62
  256
370
   -1
100
AcDbCircle
 10
182.424242406
 20
-3.535353535000013
 40
2.121212121
  0
MTEXT
  5
CD
100
AcDbEntity
  8
umrandung
  6
ByLayer
 62
  256
370
   -1
100
AcDbMText
 10
182.424242406
 20
-3.535353535000013
 30
0
 40
2.828282828
 41
1.257014590222397
 71
    5
 72
    5
  1
3
  7
iso
210
0
220
0
230
1
 50
0
 73
    2
 44
0.96
  0
LINE
  5
CE
100
AcDbEntity
  8
umrandung
  6
ByLayer
 62
  256
370
   -1
100
AcDbLine
 10
208.585858565
 20
-1.696969721365349e-05
 11
206.818181797
 21
-3.061722942360007
  0
LINE
  5
CF
100
AcDbEntity
  8
umrandung
  6
ByLayer
 62
  256
370
   -1
100
AcDbLine
 10
208.585858565
 20
-1.696969721365349e-05
 11
210.353535333
 21
-3.061722942360007
  0
LINE
  5
D0
100
AcDbEntity
  8
umrandung
  6
ByLayer
 62
  256
370
   -1
100
AcDbLine
 10
206.818181797
 20
-3.061722942360007
 11
210.353535333
 21
-3.061722942360007
  0
CIRCLE
  5
D1
100
AcDbEntity
  8
umrandung
  6
ByLayer
 62
  256
370
   -1
100
AcDbCircle
 10
242.525269471
 20
-3.535353535000013
 40
2.121212121
  0
MTEXT
  5
D2
100
AcDbEntity
  8
umrandung
  6
ByLayer
 62
  256
370
   -1
100
AcDbMText
 10
242.525269471
 20
-3.535353535000013
 30
0
 40
2.828282828
 41
1.571268237777778
 71
    5
 72
    5
  1
4
  7
iso
210
0
220
0
230
1
 50
0
 73
    2
 44
0.96
  0
LINE
  5
D3
100
AcDbEntity
  8
umrandung
  6
ByLayer
 62
  256
370
   -1
100
AcDbLine
 10
282.8282828
 20
-7.070707069999997
 11
282.8282828
 21
202.929292909
  0
LINE
  5
D4
100
AcDbEntity
  8
umrandung
  6
ByLayer
 62
  256
370
   -1
100
AcDbLine
 10
74.24242423499999
 20
202.929292909
 11
74.24242423499999
 21
195.858585839
  0
LINE
  5
D5
100
AcDbEntity
  8
umrandung
  6
ByLayer
 62
  256
370
   -1
100
AcDbLine
 10
148.48484847
 20
202.929292909
 11
148.48484847
 21
195.858585839
  0
LINE
  5
D6
100
AcDbEntity
  8
umrandung
  6
ByLayer
 62
  256
370
   -1
100
AcDbLine
 10
74.24240726530002
 20
195.858602809
 11
72.47473049780001
 21
198.920308781
  0
LINE
  5
D7
100
AcDbEntity
  8
umrandung
  6
ByLayer
 62
  256
370
   -1
100
AcDbLine
 10
74.24240726530002
 20
195.858602809
 11
76.01008403279999
 21
198.920308781
  0
LINE
  5
D8
100
AcDbEntity
  8
umrandung
  6
ByLayer
 62
  256
370
   -1
100
AcDbLine
 10
72.47473049780001
 20
198.920308781
 11
76.01008403279999
 21
198.920308781
  0
CIRCLE
  5
D9
100
AcDbEntity
  8
umrandung
  6
ByLayer
 62
  256
370
   -1
100
AcDbCircle
 10
111.363636352
 20
199.393939374
 40
2.121212121
  0
LINE
  5
DA
100
AcDbEntity
  8
umrandung
  6
ByLayer
 62
  256
370
   -1
100
AcDbLine
 10
148.4848315
 20
195.858602809
 11
146.717154733
 21
198.920308781
  0
LINE
  5
DB
100
AcDbEntity
  8
umrandung
  6
ByLayer
 62
  256
370
   -1
100
AcDbLine
 10
148.4848315
 20
195.858602809
 11
150.252508268
 21
198.920308781
  0
LINE
  5
DC
100
AcDbEntity
  8
umrandung
  6
ByLayer
 62
  256
370
   -1
100
AcDbLine
 10
146.717154733
 20
198.920308781
 11
150.252508268
 21
198.920308781
  0
CIRCLE
  5
DD
100
AcDbEntity
  8
umrandung
  6
ByLayer
 62
  256
370
   -1
100
AcDbCircle
 10
37.12121211749999
 20
199.393939374
 40
2.121212121
  0
MTEXT
  5
DE
100
AcDbEntity
  8
umrandung
  6
ByLayer
 62
  256
370
   -1
100
AcDbMText
 10
37.12121211749999
 20
199.393939374
 30
0
 40
2.828282828
 41
0.628507295111111
 71
    5
 72
    5
  1
1
  7
iso
210
0
220
0
230
1
 50
0
 73
    2
 44
0.96
  0
MTEXT
  5
DF
100
AcDbEntity
  8
umrandung
  6
ByLayer
 62
  256
370
   -1
100
AcDbMText
 10
111.363636352
 20
199.393939374
 30
0
 40
2.828282828
 41
1.257014590222222
 71
    5
 72
    5
  1
2
  7
iso
210
0
220
0
230
1
 50
0
 73
    2
 44
0.96
  0
CIRCLE
  5
E0
100
AcDbEntity
  8
umrandung
  6
ByLayer
 62
  256
370
   -1
100
AcDbCircle
 10
182.424242406
 20
199.393939374
 40
2.121212121
  0
MTEXT
  5
E1
100
AcDbEntity
  8
umrandung
  6
ByLayer
 62
  256
370
   -1
100
AcDbMText
 10
182.424242406
 20
199.393939374
 30
0
 40
2.828282828
 41
1.257014590222397
 71
    5
 72
    5
  1
3
  7
iso
210
0
220
0
230
1
 50
0
 73
    2
 44
0.96
  0
LINE
  5
E2
100
AcDbEntity
  8
umrandung
  6
ByLayer
 62
  256
370
   -1
100
AcDbLine
 10
208.585858565
 20
195.858602809
 11
206.818181797
 21
198.920308781
  0
LINE
  5
E3
100
AcDbEntity
  8
umrandung
  6
ByLayer
 62
  256
370
   -1
100
AcDbLine
 10
208.585858565
 20
195.858602809
 11
210.353535333
 21
198.920308781
  0
LINE
  5
E4
100
AcDbEntity
  8
umrandung
  6
ByLayer
 62
  256
370
   -1
100
AcDbLine
 10
206.818181797
 20
198.920308781
 11
210.353535333
 21
198.920308781
  0
CIRCLE
  5
E5
100
AcDbEntity
  8
umrandung
  6
ByLayer
 62
  256
370
   -1
100
AcDbCircle
 10
242.525269471
 20
199.393939374
 40
2.121212121
  0
MTEXT
  5
E6
100
AcDbEntity
  8
umrandung
  6
ByLayer
 62
  256
370
   -1
100
AcDbMText
 10
242.525269471
 20
199.393939374
 30
0
 40
2.828282828
 41
1.571268237777778
 71
    5
 72
    5
  1
4
  7
iso
210
0
220
0
230
1
 50
0
 73
    2
 44
0.96
  0
MTEXT
  5
E7
100
AcDbEntity
  8
umrandung
  6
ByLayer
 62
  256
370
   -1
100
AcDbMText
 10
214.048868564
 20
35.92810449090001
 30
0
 40
1.7676767675
 41
13.30667879777433
 71
    7
 72
    5
  1
Maßstab 1:1
  7
iso
210
0
220
0
230
1
 50
0
 73
    1
 44
0.96
  0
MTEXT
  5
E8
100
AcDbEntity
  8
umrandung
  6
ByLayer
 62
  256
370
   -1
100
AcDbMText
 10
213.886467857
 20
12.66696006609999
 30
0
 40
1.7676767675
 41
13.74859708055588
 71
    7
 72
    5
  1
Bezeichnung
  7
standard
210
0
220
0
230
1
 50
0
 73
    1
 44
0.96
  0
MTEXT
  5
E9
100
AcDbEntity
  8
umrandung
  6
ByLayer
 62
  256
370
   -1
100
AcDbMText
 10
246.410078807
 20
7.43494049840001
 30
0
 40
5.656565656
 41
11.313131312
 71
    5
 72
    5
  1
---
  7
iso
210
0
220
0
230
1
 50
0
 73
    2
 44
0.96
  0
MTEXT
  5
EA
100
AcDbEntity
  8
umrandung
  6
ByLayer
 62
  256
370
   -1
100
AcDbMText
 10
268.573670175
 20
3.703332282059989
 30
0
 40
1.414141414
 41
4.399550765976758
 71
    7
 72
    5
  1
Seite
  7
standard
210
0
220
0
230
1
 50
0
 73
    1
 44
0.96
  0
MTEXT
  5
EB
100
AcDbEntity
  8
umrandung
  6
ByLayer
 62
  256
370
   -1
100
AcDbMText
 10
270.914764991
 20
8.279929677110005
 30
0
 40
2.828282828
 41
4.399551065777777
 71
    5
 72
    5
  1
1/1
  7
iso
210
0
220
0
230
1
 50
0
 73
    2
 44
0.96
  0
MTEXT
  5
EC
100
AcDbEntity
  8
umrandung
  6
ByLayer
 62
  256
370
   -1
100
AcDbMText
 10
182.885495739
 20
0.02950582491249065
 30
0
 40
1.7676767675
 41
8.445566778055639
 71
    7
 72
    5
  1
Projekt
  7
iso
210
0
220
0
230
1
 50
0
 73
    1
 44
0.96
  0
MTEXT
  5
ED
100
AcDbEntity
  8
umrandung
  6
ByLayer
 62
  256
370
   -1
100
AcDbMText
 10
182.352797153
 20
15.6440164631
 30
0
 40
1.7676767675
 41
5.695847361944526
 71
    7
 72
    5
  1
Auth.
  7
standard
210
0
220
0
230
1
 50
0
 73
    1
 44
0.96
  0
MTEXT
  5
EE
100
AcDbEntity
  8
umrandung
  6
ByLayer
 62
  256
370
   -1
100
AcDbMText
 10
191.337135233
 20
24.659154543
 30
0
 40
1.7676767675
 41
6.67789001055583
 71
    7
 72
    5
  1
Datum
  7
iso
210
0
220
0
230
1
 50
0
 73
    1
 44
0.96
  0
MTEXT
  5
EF
100
AcDbEntity
  8
umrandung
  6
ByLayer
 62
  256
370
   -1
100
AcDbMText
 10
203.758927252
 20
24.6591488864
 30
0
 40
1.7676767675
 41
5.499438832222387
 71
    7
 72
    5
  1
Name
  7
iso
210
0
220
0
230
1
 50
0
 73
    1
 44
0.96
  0
MTEXT
  5
F0
100
AcDbEntity
  8
umrandung
  6
ByLayer
 62
  256
370
   -1
100
AcDbMText
 10
168.573895337
 20
0.6187802019580033
 30
0
 40
1.7676767675
 41
6.67789001055583
 71
    7
 72
    5
  1
Datum
  7
iso
210
0
220
0
230
1
 50
0
 73
    1
 44
0.96
  0
MTEXT
  5
F1
100
AcDbEntity
  8
umrandung
  6
ByLayer
 62
  256
370
   -1
100
AcDbMText
 10
152.85840251
 20
0.02952845117530956
 30
0
 40
1.7676767675
 41
10.60606060500024
 71
    7
 72
    5
  1
Änderung
  7
iso
210
0
220
0
230
1
 50
0
 73
    1
 44
0.96
  0
MTEXT
  5
F2
100
AcDbEntity
  8
umrandung
  6
ByLayer
 62
  256
370
   -1
100
AcDbMText
 10
176.537913417
 20
0.618732828220999
 30
0
 40
1.7676767675
 41
5.499438832222387
 71
    7
 72
    5
  1
Name
  7
iso
210
0
220
0
230
1
 50
0
 73
    1
 44
0.96
  0
MTEXT
  5
F3
100
AcDbEntity
  8
umrandung
  6
ByLayer
 62
  256
370
   -1
100
AcDbMText
 10
214.438094019
 20
0.7366175420160062
 30
0
 40
1.7676767675
 41
8.445567687149168
 71
    7
 72
    5
  1
ersetzt
  7
iso
210
0
220
0
230
1
 50
0
 73
    1
 44
0.96
  0
MTEXT
  5
F4
100
AcDbEntity
  8
umrandung
  6
ByLayer
 62
  256
370
   -1
100
AcDbMText
 10
245.690617147
 20
0.7366691581709972
 30
0
 40
1.7676767675
 41
16.25280674360758
 71
    7
 72
    5
  1
ersetzt durch
  7
iso
210
0
220
0
230
1
 50
0
 73
    1
 44
0.96
  0
MTEXT
  5
F5
100
AcDbEntity
  8
umrandung
  6
ByLayer
 62
  256
370
   -1
100
AcDbMText
 10
213.730991494
 20
3.889937945740002
 30
0
 40
1.7676767675
 41
17.87317620472263
 71
    7
 72
    5
  1
Materialnummer
  7
iso
210
0
220
0
230
1
 50
0
 73
    1
 44
0.96
  0
MTEXT
  5
F6
100
AcDbEntity
  8
umrandung
  6
ByLayer
 62
  256
370
   -1
100
AcDbMText
 10
182.221343517
 20
21.77191945909999
 30
0
 40
1.7676767675
 41
5.695847361944609
 71
    7
 72
    5
  1
entw.
  7
standard
210
0
220
0
230
1
 50
0
 73
    1
 44
0.96
  0
MTEXT
  5
F7
100
AcDbEntity
  8
umrandung
  6
ByLayer
 62
  256
370
   -1
100
AcDbMText
 10
182.352797153
 20
17.94202171539999
 30
0
 40
1.7676767675
 41
5.106621772777778
 71
    7
 72
    5
  1
prüf.
  7
standard
210
0
220
0
230
1
 50
0
 73
    1
 44
0.96
  0
LINE
  5
F8
100
AcDbEntity
  8
umrandung
  6
ByLayer
 62
  256
370
   -1
100
AcDbLine
 10
184.030100386
 20
33.404053734
 11
198.171514526
 21
33.404053734
  0
CIRCLE
  5
F9
100
AcDbEntity
  8
umrandung
  6
ByLayer
 62
  256
370
   -1
100
AcDbCircle
 10
194.777575132
 20
33.404053734
 40
1.9797979796
  0
CIRCLE
  5
FA
100
AcDbEntity
  8
umrandung
  6
ByLayer
 62
  256
370
   -1
100
AcDbCircle
 10
194.777575132
 20
33.404053734
 40
1.1313131312
  0
LINE
  5
FB
100
AcDbEntity
  8
umrandung
  6
ByLayer
 62
  256
370
   -1
100
AcDbLine
 10
185.727070082
 20
34.53536686519999
 11
185.727070082
 21
32.27274060280001
  0
LINE
  5
FC
100
AcDbEntity
  8
umrandung
  6
ByLayer
 62
  256
370
   -1
100
AcDbLine
 10
185.727070082
 20
32.27274060280001
 11
190.252322607
 21
31.42425575440001
  0
LINE
  5
FD
100
AcDbEntity
  8
umrandung
  6
ByLayer
 62
  256
370
   -1
100
AcDbLine
 10
190.252322607
 20
35.3838517136
 11
190.252322607
 21
31.42425575440001
  0
LINE
  5
FE
100
AcDbEntity
  8
umrandung
  6
ByLayer
 62
  256
370
   -1
100
AcDbLine
 10
185.727070082
 20
34.53536686519999
 11
190.252322607
 21
35.3838517136
  0
LINE
  5
FF
100
AcDbEntity
  8
umrandung
  6
ByLayer
 62
  256
370
   -1
100
AcDbLine
 10
194.777575132
 20
30.01011434040001
 11
194.777575132
 21
36.79799312759999
  0
LINE
  5
100
100
AcDbEntity
  8
umrandung
  6
ByLayer
 62
  256
370
   -1
100
AcDbLine
 10
-7.070707069999997
 20
202.929292909
 11
-7.070707069999997
 21
-7.070707069999997
  0
LINE
  5
101
100
AcDbEntity
  8
umrandung
  6
ByLayer
 62
  256
370
   -1
100
AcDbLine
 10
282.8282828
 20
202.929292909
 11
-7.070707069999997
 21
202.929292909
  0
LINE
  5
102
100
AcDbEntity
  8
umrandung
  6
ByLayer
 62
  256
370
   -1
100
AcDbLine
 10
-7.070707069999997
 20
-7.070707069999997
 11
282.8282828
 21
-7.070707069999997
  0
MTEXT
  5
103
100
AcDbEntity
  8
umrandung
  6
ByLayer
 62
  256
370
   -1
100
AcDbMText
 10
-3.535353535000013
 20
45.4292929248
 30
0
 40
2.828282828
 41
1.885521885333333
 71
    5
 72
    5
  1
A
  7
iso
210
0
220
0
230
1
 50
0
 73
    2
 44
0.96
  0
MTEXT
  5
104
100
AcDbEntity
  8
umrandung
  6
ByLayer
 62
  256
370
   -1
100
AcDbMText
 10
-3.535353535000013
 20
150.429292914
 30
0
 40
2.828282828
 41
1.571268237777778
 71
    5
 72
    5
  1
B
  7
iso
210
0
220
0
230
1
 50
0
 73
    2
 44
0.96
  0
MTEXT
  5
105
100
AcDbEntity
  8
umrandung
  6
ByLayer
 62
  256
370
   -1
100
AcDbMText
 10
279.292929265
 20
150.429292914
 30
0
 40
2.828282828
 41
1.571268237777778
 71
    5
 72
    5
  1
B
  7
iso
210
0
220
0
230
1
 50
0
 73
    2
 44
0.96
  0
MTEXT
  5
106
100
AcDbEntity
  8
umrandung
  6
ByLayer
 62
  256
370
   -1
100
AcDbMText
 10
279.292929265
 20
45.4292929248
 30
0
 40
2.828282828
 41
1.885521885333333
 71
    5
 72
    5
  1
A
  7
iso
210
0
220
0
230
1
 50
0
 73
    2
 44
0.96
  0
LINE
  5
107
100
AcDbEntity
  8
umrandung
  6
ByLayer
 62
  256
370
   -1
100
AcDbLine
 10
123
 20
5.994890808380006
 11
123
 21
6
  0
LINE
  5
108
100
AcDbEntity
  8
umrandung
  6
ByLayer
 62
  256
370
   -1
100
AcDbLine
 10
98
 20
18.0201963625
 11
137
 21
18.0201963625
  0
LINE
  5
109
100
AcDbEntity
  8
umrandung
  6
ByLayer
 62
  256
370
   -1
100
AcDbLine
 10
98
 20
15.01516848400001
 11
137
 21
15.01516848400001
  0
LINE
  5
10A
100
AcDbEntity
  8
umrandung
  6
ByLayer
 62
  256
370
   -1
100
AcDbLine
 10
98
 20
12.01008121149999
 11
137
 21
12.01008121149999
  0
LINE
  5
10B
100
AcDbEntity
  8
umrandung
  6
ByLayer
 62
  256
370
   -1
100
AcDbLine
 10
98
 20
9.005029999700014
 11
137
 21
9.005029999700014
  0
LINE
  5
10C
100
AcDbEntity
  8
umrandung
  6
ByLayer
 62
  256
370
   -1
100
AcDbLine
 10
98
 20
6
 11
137
 21
6
  0
MTEXT
  5
10D
100
AcDbEntity
  8
umrandung
  6
ByLayer
 62
  256
370
   -1
100
AcDbMText
 10
100
 20
9.294890808379989
 30
0
 40
1.76768
 41
18.90435646465122
 71
    7
 72
    5
  1
über 3,0 bis 6,0
  7
iso
210
0
220
0
230
1
 50
0
 73
    1
 44
0.96
  0
MTEXT
  5
10E
100
AcDbEntity
  8
umrandung
  6
ByLayer
 62
  256
370
   -1
100
AcDbMText
 10
100
 20
12.2948908084
 30
0
 40
1.76768
 41
18.90435646465111
 71
    7
 72
    5
  1
über 0,0 bis 3,0
  7
iso
210
0
220
0
230
1
 50
0
 73
    1
 44
0.96
  0
MTEXT
  5
10F
100
AcDbEntity
  8
umrandung
  6
ByLayer
 62
  256
370
   -1
100
AcDbMText
 10
126
 20
9.294890808379989
 30
0
 40
1.76768
 41
8.298275555555666
 71
    7
 72
    5
  1
+/- 0,3
  7
iso
210
0
220
0
230
1
 50
0
 73
    1
 44
0.96
  0
MTEXT
  5
110
100
AcDbEntity
  8
umrandung
  6
ByLayer
 62
  256
370
   -1
100
AcDbMText
 10
126
 20
12.2948908084
 30
0
 40
1.76768
 41
8.298275555555556
 71
    7
 72
    5
  1
+/- 0,2
  7
iso
210
0
220
0
230
1
 50
0
 73
    1
 44
0.96
  0
MTEXT
  5
111
100
AcDbEntity
  8
umrandung
  6
ByLayer
 62
  256
370
   -1
100
AcDbMText
 10
126
 20
6.294890808379989
 30
0
 40
1.76768
 41
8.298275555555666
 71
    7
 72
    5
  1
+/- 0,5
  7
iso
210
0
220
0
230
1
 50
0
 73
    1
 44
0.96
  0
MTEXT
  5
112
100
AcDbEntity
  8
umrandung
  6
ByLayer
 62
  256
370
   -1
100
AcDbMText
 10
100
 20
15.6948908084
 30
0
 40
1.76768
 41
12.57016888888913
 71
    7
 72
    5
  1
Toleranzen
  7
iso
210
0
220
0
230
1
 50
0
 73
    1
 44
0.96
  0
LINE
  5
113
100
AcDbEntity
  8
umrandung
  6
ByLayer
 62
  256
370
   -1
100
AcDbLine
 10
98
 20
3
 11
137
 21
3
  0
LINE
  5
114
100
AcDbEntity
  8
umrandung
  6
ByLayer
 62
  256
370
   -1
100
AcDbLine
 10
98
 20
17.99489080839999
 11
98
 21
3
  0
LINE
  5
115
100
AcDbEntity
  8
umrandung
  6
ByLayer
 62
  256
370
   -1
100
AcDbLine
 10
137
 20
3
 11
137
 21
17.99489080839999
  0
MTEXT
  5
116
100
AcDbEntity
  8
umrandung
  6
ByLayer
 62
  256
370
   -1
100
AcDbMText
 10
100
 20
6.294890808379989
 30
0
 40
1.76768
 41
20.27921868687344
 71
    7
 72
    5
  1
über 6,0 bis 30,0
  7
iso
210
0
220
0
230
1
 50
0
 73
    1
 44
0.96
  0
MTEXT
  5
117
100
AcDbEntity
  8
umrandung
  6
ByLayer
 62
  256
370
   -1
100
AcDbMText
 10
100
 20
3.300000000000011
 30
0
 40
1.76768
 41
22.63612535354
 71
    7
 72
    5
  1
über 30,0 bis 120,0
  7
iso
210
0
220
0
230
1
 50
0
 73
    1
 44
0.96
  0
MTEXT
  5
118
100
AcDbEntity
  8
umrandung
  6
ByLayer
 62
  256
370
   -1
100
AcDbMText
 10
126
 20
3.400000000000006
 30
0
 40
1.76768
 41
8.298275555555556
 71
    7
 72
    5
  1
+/- 0,8
  7
iso
210
0
220
0
230
1
 50
0
 73
    1
 44
0.96
  0
LINE
  5
119
100
AcDbEntity
  8
umrandung
  6
ByLayer
 62
  256
370
   -1
100
AcDbLine
 10
124
 20
15.01516848400001
 11
124
 21
3
  0
MTEXT
  5
11A
100
AcDbEntity
  8
umrandung
  6
ByLayer
 62
  256
370
   -1
100
AcDbMText
 10
214.074201494
 20
31.47390673090001
 30
0
 40
1.76768
 41
15.07438222222238
 71
    7
 72
    5
  1
Material: ---
  7
standard
210
0
220
0
230
1
 50
0
 73
    1
 44
0.96
  0
MTEXT
  5
11B
100
AcDbEntity
  8
umrandung
  6
ByLayer
 62
  256
370
   -1
100
AcDbMText
 10
243.875111271
 20
20.25060970920001
 30
0
 40
2.82828
 41
5.65656
 71
    5
 72
    5
  1
---
  7
iso
210
0
220
0
230
1
 50
0
 73
    2
 44
0.96
  0
MTEXT
  5
11C
100
AcDbEntity
  8
umrandung
  6
ByLayer
 62
  256
370
   -1
100
AcDbMText
 10
193.588691998
 20
0.7365769321380071
 30
0
 40
1.76768
 41
3.53536
 71
    7
 72
    5
  1
---
  7
iso
210
0
220
0
230
1
 50
0
 73
    1
 44
0.96
  0
MTEXT
  5
11D
100
AcDbEntity
  8
umrandung
  6
ByLayer
 62
  256
370
   -1
100
AcDbMText
 10
200.9
 20
21.59999999999999
 30
0
 40
1.76768
 41
3.53536
 71
    7
 72
    5
  1
---
  7
iso
210
0
220
0
230
1
 50
0
 73
    1
 44
0.96
  0
MTEXT
  5
11E
100
AcDbEntity
  8
umrandung
  6
ByLayer
 62
  256
370
   -1
100
AcDbMText
 10
200.9
 20
18.59999999999999
 30
0
 40
1.76768
 41
3.53536
 71
    7
 72
    5
  1
---
  7
iso
210
0
220
0
230
1
 50
0
 73
    1
 44
0.96
  0
MTEXT
  5
11F
100
AcDbEntity
  8
umrandung
  6
ByLayer
 62
  256
370
   -1
100
AcDbMText
 10
200.9
 20
15.59492404069999
 30
0
 40
1.76768
 41
3.53536
 71
    7
 72
    5
  1
---
  7
iso
210
0
220
0
230
1
 50
0
 73
    1
 44
0.96
  0
MTEXT
  5
120
100
AcDbEntity
  8
umrandung
  6
ByLayer
 62
  256
370
   -1
100
AcDbMText
 10
190.281945335
 20
21.65406986319999
 30
0
 40
1.76768
 41
3.53536
 71
    7
 72
    5
  1
---
  7
iso
210
0
220
0
230
1
 50
0
 73
    1
 44
0.96
  0
ENDBLK
  5
6B
330
69
100
AcDbEntity
  8
0
100
AcDbBlockEnd
  0
ENDSEC
  0
SECTION
  2
ENTITIES
  0
HATCH
  5
121
100
AcDbEntity
  8
umrandung
  6
ByLayer
 62
  256
370
   -1
100
AcDbHatch
 10
0
 20
0
 30
0
210
0
220
0
230
1
  2
ansi31
 70
    0
 71
    0
 91
    1
 92
    0
 93
    3
 72
    1
 10
68.58585856499997
 20
48.85860280899999
 11
66.81818179699997
 21
51.92030878100002
 72
    1
 10
66.81818179699997
 20
51.92030878100002
 11
70.35353533299997
 21
51.92030878100002
 72
    1
 10
70.35353533299997
 20
51.92030878100002
 11
68.58585856499997
 21
48.85860280899999
 97
    0
 75
    0
 76
    1
 52
4.71238898038
 41
0.3535353535
 77
    0
 78
    0
 98
    0
  0
HATCH
  5
122
100
AcDbEntity
  8
umrandung
  6
ByLayer
 62
  256
370
   -1
100
AcDbHatch
 10
0
 20
0
 30
0
210
0
220
0
230
1
  2
ansi31
 70
    0
 71
    0
 91
    1
 92
    0
 93
    3
 72
    1
 10
8.484831500000041
 20
48.85860280899999
 11
6.717154733000029
 21
51.92030878100002
 72
    1
 10
6.717154733000029
 20
51.92030878100002
 11
10.25250826800004
 21
51.92030878100002
 72
    1
 10
10.25250826800004
 20
51.92030878100002
 11
8.484831500000041
 21
48.85860280899999
 97
    0
 75
    0
 76
    1
 52
4.71238898038
 41
0.3535353535
 77
    0
 78
    0
 98
    0
  0
HATCH
  5
123
100
AcDbEntity
  8
umrandung
  6
ByLayer
 62
  256
370
   -1
100
AcDbHatch
 10
0
 20
0
 30
0
210
0
220
0
230
1
  2
ansi31
 70
    0
 71
    0
 91
    1
 92
    0
 93
    3
 72
    1
 10
-65.75759273469998
 20
48.85860280899999
 11
-67.52526950219999
 21
51.92030878100002
 72
    1
 10
-67.52526950219999
 20
51.92030878100002
 11
-63.98991596720001
 21
51.92030878100002
 72
    1
 10
-63.98991596720001
 20
51.92030878100002
 11
-65.75759273469998
 21
48.85860280899999
 97
    0
 75
    0
 76
    1
 52
4.71238898038
 41
0.3535353535
 77
    0
 78
    0
 98
    0
  0
HATCH
  5
124
100
AcDbEntity
  8
umrandung
  6
ByLayer
 62
  256
370
   -1
100
AcDbHatch
 10
0
 20
0
 30
0
210
0
220
0
230
1
  2
ansi31
 70
    0
 71
    0
 91
    1
 92
    0
 93
    3
 72
    1
 10
68.58585856499997
 20
-140.0000169696972
 11
66.81818179699997
 21
-143.06172294236
 72
    1
 10
66.81818179699997
 20
-143.06172294236
 11
70.35353533299997
 21
-143.06172294236
 72
    1
 10
70.35353533299997
 20
-143.06172294236
 11
68.58585856499997
 21
-140.0000169696972
 97
    0
 75
    0
 76
    1
 52
4.71238898038
 41
0.3535353535
 77
    0
 78
    0
 98
    0
  0
HATCH
  5
125
100
AcDbEntity
  8
umrandung
  6
ByLayer
 62
  256
370
   -1
100
AcDbHatch
 10
0
 20
0
 30
0
210
0
220
0
230
1
  2
ansi31
 70
    0
 71
    0
 91
    1
 92
    0
 93
    3
 72
    1
 10
8.484831500000041
 20
-140.0000169696965
 11
6.717154733000029
 21
-143.06172294236
 72
    1
 10
6.717154733000029
 20
-143.06172294236
 11
10.25250826800004
 21
-143.06172294236
 72
    1
 10
10.25250826800004
 20
-143.06172294236
 11
8.484831500000041
 21
-140.0000169696965
 97
    0
 75
    0
 76
    1
 52
4.71238898038
 41
0.3535353535
 77
    0
 78
    0
 98
    0
  0
HATCH
  5
126
100
AcDbEntity
  8
umrandung
  6
ByLayer
 62
  256
370
   -1
100
AcDbHatch
 10
0
 20
0
 30
0
210
0
220
0
230
1
  2
ansi31
 70
    0
 71
    0
 91
    1
 92
    0
 93
    3
 72
    1
 10
-65.75759273469998
 20
-140.0000169696969
 11
-67.52526950219999
 21
-143.06172294236
 72
    1
 10
-67.52526950219999
 20
-143.06172294236
 11
-63.98991596720001
 21
-143.06172294236
 72
    1
 10
-63.98991596720001
 20
-143.06172294236
 11
-65.75759273469998
 21
-140.0000169696969
 97
    0
 75
    0
 76
    1
 52
4.71238898038
 41
0.3535353535
 77
    0
 78
    0
 98
    0
  0
HATCH
  5
127
100
AcDbEntity
  8
umrandung
  6
ByLayer
 62
  256
370
   -1
100
AcDbHatch
 10
0
 20
0
 30
0
210
0
220
0
230
1
  2
ansi31
 70
    0
 71
    0
 91
    1
 92
    0
 93
    3
 72
    1
 10
135.75757573
 20
-42.0707070805
 11
138.819281703
 21
-43.83838384800001
 72
    1
 10
138.819281703
 20
-43.83838384800001
 11
138.819281703
 21
-40.30303031299999
 72
    1
 10
138.819281703
 20
-40.30303031299999
 11
135.75757573
 21
-42.0707070805
 97
    0
 75
    0
 76
    1
 52
3.14159265359
 41
0.3535353535
 77
    0
 78
    0
 98
    0
  0
HATCH
  5
128
100
AcDbEntity
  8
umrandung
  6
ByLayer
 62
  256
370
   -1
100
AcDbHatch
 10
0
 20
0
 30
0
210
0
220
0
230
1
  2
ansi31
 70
    0
 71
    0
 91
    1
 92
    0
 93
    3
 72
    1
 10
-140.0000000000001
 20
-42.0707070805
 11
-143.06170597267
 21
-43.83838384800001
 72
    1
 10
-143.06170597267
 20
-43.83838384800001
 11
-143.06170597267
 21
-40.30303031299999
 72
    1
 10
-143.06170597267
 20
-40.30303031299999
 11
-140.0000000000001
 21
-42.0707070805
 97
    0
 75
    0
 76
    1
 52
0
 41
0.3535353535
 77
    0
 78
    0
 98
    0
  0
CIRCLE
  5
129
100
AcDbEntity
  8
verdeckt
  6
ByLayer
 62
  256
370
   -1
100
AcDbCircle
 10
0
 20
0
 40
12.5
  0
CIRCLE
  5
12A
100
AcDbEntity
  8
verdeckt
  6
ByLayer
 62
  256
370
   -1
100
AcDbCircle
 10
0
 20
0
 40
8
  0
LINE
  5
12B
100
AcDbEntity
  8
0
  6
ByLayer
 62
  256
370
   -1
100
AcDbLine
 10
-12.50000000000001
 20
-50
 11
-12.5
 21
-57
  0
LINE
  5
12C
100
AcDbEntity
  8
0
  6
ByLayer
 62
  256
370
   -1
100
AcDbLine
 10
12.5
 20
-50
 11
12.5
 21
-57
  0
LINE
  5
12D
100
AcDbEntity
  8
0
  6
ByLayer
 62
  256
370
   -1
100
AcDbLine
 10
-12.50000000000001
 20
-50
 11
12.5
 21
-50
  0
DIMENSION
  5
12E
100
AcDbEntity
  8
bemassung
  6
ByLayer
 62
  256
370
   -1
100
AcDbDimension
  2
*D1
 10
12.5
 20
-34
 30
0
 11
-3.437903041380437e-15
 21
-32.125
 31
0
 70
   32
  1
%%C<>
 71
    5
  3
Standard
 53
0
210
0
220
0
230
1
100
AcDbAlignedDimension
 13
-12.50000000000001
 23
-50.00000000000001
 33
0
 14
12.5
 24
-50.00000000000001
 34
0
100
AcDbRotatedDimension
  0
DIMENSION
  5
12F
100
AcDbEntity
  8
bemassung
  6
ByLayer
 62
  256
370
   -1
100
AcDbDimension
  2
*D2
 10
7.999999999999996
 20
-43
 30
0
 11
-7.733677822800608e-16
 21
-41.125
 31
0
 70
   32
  1
%%C<>
 71
    5
  3
Standard
 53
0
210
0
220
0
230
1
100
AcDbAlignedDimension
 13
-8
 23
-50
 33
0
 14
7.999999999999996
 24
-50.00000000000001
 34
0
100
AcDbRotatedDimension
  0
LINE
  5
130
100
AcDbEntity
  8
symmetrie
  6
ByLayer
 62
  256
370
   -1
100
AcDbLine
 10
-3.91886975727153e-15
 20
-64
 11
-2.816687638038912e-15
 21
-46
  0
LINE
  5
131
100
AcDbEntity
  8
symmetrie
  6
ByLayer
 62
  256
370
   -1
100
AcDbLine
 10
-20
 20
0
 11
20
 21
0
  0
LINE
  5
132
100
AcDbEntity
  8
symmetrie
  6
ByLayer
 62
  256
370
   -1
100
AcDbLine
 10
-1.224646799147353e-15
 20
-20
 11
1.224646799147353e-15
 21
20
  0
LINE
  5
133
100
AcDbEntity
  8
verdeckt
  6
ByLayer
 62
  256
370
   -1
100
AcDbLine
 10
-8
 20
-55
 11
8
 21
-55
  0
LINE
  5
134
100
AcDbEntity
  8
verdeckt
  6
ByLayer
 62
  256
370
   -1
100
AcDbLine
 10
-8.000000000000004
 20
-50
 11
-8.000000000000004
 21
-55
  0
LINE
  5
135
100
AcDbEntity
  8
verdeckt
  6
ByLayer
 62
  256
370
   -1
100
AcDbLine
 10
7.999999999999996
 20
-50
 11
7.999999999999996
 21
-55
  0
DIMENSION
  5
136
100
AcDbEntity
  8
bemassung
  6
ByLayer
 62
  256
370
   -1
100
AcDbDimension
  2
*D3
 10
24
 20
-55
 30
0
 11
22.125
 21
-52.5
 31
0
 70
   32
 71
    5
  3
Standard
 53
0
210
0
220
0
230
1
100
AcDbAlignedDimension
 13
12.5
 23
-50.00000000000001
 33
0
 14
7.999999999999997
 24
-55
 34
0
 50
90
100
AcDbRotatedDimension
  0
CIRCLE
  5
137
100
AcDbEntity
  8
0
  6
ByLayer
 62
  256
370
   -1
100
AcDbCircle
 10
0
 20
0
 40
17
  0
CIRCLE
  5
138
100
AcDbEntity
  8
0
  6
ByLayer
 62
  256
370
   -1
100
AcDbCircle
 10
0
 20
0
 40
15
  0
DIMENSION
  5
139
100
AcDbEntity
  8
bemassung
  6
ByLayer
 62
  256
370
   -1
100
AcDbDimension
  2
*D4
 10
12.02081528017131
 20
12.02081528017131
 30
0
 11
-1.325825214724775
 21
1.325825214724777
 31
0
 70
   35
  1
%%C<>
 71
    5
  3
Standard
 53
0
210
0
220
0
230
1
100
AcDbDiametricDimension
 15
-12.02081528017131
 25
-12.02081528017131
 35
0
 40
0
  0
LINE
  5
13A
100
AcDbEntity
  8
konstruktion
  6
ByLayer
 62
  256
370
   -1
100
AcDbLine
 10
-17.00000000000001
 20
-100
 11
-17
 21
100
  0
LINE
  5
13B
100
AcDbEntity
  8
konstruktion
  6
ByLayer
 62
  256
370
   -1
100
AcDbLine
 10
-15.00000000000001
 20
-100
 11
-14.99999999999999
 21
100
  0
LINE
  5
13C
100
AcDbEntity
  8
konstruktion
  6
ByLayer
 62
  256
370
   -1
100
AcDbLine
 10
14.99999999999999
 20
-100
 11
15.00000000000001
 21
100
  0
LINE
  5
13D
100
AcDbEntity
  8
konstruktion
  6
ByLayer
 62
  256
370
   -1
100
AcDbLine
 10
16.99999999999999
 20
-100
 11
17
 21
100
  0
LINE
  5
13E
100
AcDbEntity
  8
0
  6
ByLayer
 62
  256
370
   -1
100
AcDbLine
 10
-17
 20
-57
 11
17
 21
-57
  0
LINE
  5
13F
100
AcDbEntity
  8
0
  6
ByLayer
 62
  256
370
   -1
100
AcDbLine
 10
-17
 20
-58
 11
17
 21
-58.00000000000003
  0
LINE
  5
140
100
AcDbEntity
  8
0
  6
ByLayer
 62
  256
370
   -1
100
AcDbLine
 10
-17
 20
-57
 11
-17.00000000000001
 21
-57.99999999999998
  0
LINE
  5
141
100
AcDbEntity
  8
0
  6
ByLayer
 62
  256
370
   -1
100
AcDbLine
 10
-17.00000000000001
 20
-57.99999999999998
 11
-14.99999999999997
 21
-60
  0
DIMENSION
  5
142
100
AcDbEntity
  8
bemassung
  6
ByLayer
 62
  256
370
   -1
100
AcDbDimension
  2
*D5
 10
-38
 20
-59.99999999999997
 30
0
 11
-39.875
 21
-54.99999999999999
 31
0
 70
   32
 71
    5
  3
Standard
 53
0
210
0
220
0
230
1
100
AcDbAlignedDimension
 13
-12.50000000000001
 23
-50.00000000000001
 33
0
 14
-15
 24
-59.99999999999997
 34
0
 50
90
100
AcDbRotatedDimension
  0
DIMENSION
  5
143
100
AcDbEntity
  8
bemassung
  6
ByLayer
 62
  256
370
   -1
100
AcDbDimension
  2
*D6
 10
-27
 20
-59.99999999999997
 30
0
 11
-28.875
 21
-58.49999999999999
 31
0
 70
   32
 71
    5
  3
Standard
 53
0
210
0
220
0
230
1
100
AcDbAlignedDimension
 13
-17
 23
-57
 33
0
 14
-15
 24
-59.99999999999997
 34
0
 50
90
100
AcDbRotatedDimension
  0
LINE
  5
144
100
AcDbEntity
  8
0
  6
ByLayer
 62
  256
370
   -1
100
AcDbLine
 10
17
 20
-57
 11
16.99999999999999
 21
-58.00000000000002
  0
LINE
  5
145
100
AcDbEntity
  8
0
  6
ByLayer
 62
  256
370
   -1
100
AcDbLine
 10
15
 20
-60
 11
16.99999999999999
 21
-58.00000000000002
  0
LINE
  5
146
100
AcDbEntity
  8
0
  6
ByLayer
 62
  256
370
   -1
100
AcDbLine
 10
-14.99999999999997
 20
-60
 11
15
 21
-60
  0
LEADER
  5
147
100
AcDbEntity
  8
bemassung
  6
ByLayer
 62
  256
370
   -1
100
AcDbLeader
  3
Standard
 71
    1
 72
    0
 73
    3
 74
    0
 75
    0
 40
1
 41
10
 76
4
 76
4
 10
16.11111111111111
 20
-59.00000000000001
 30
0
 10
25.11111111111111
 20
-67.00000000000001
 30
0
 10
37.11111111111111
 20
-67.00000000000001
 30
0
 10
37.11111111111111
 20
-67.00000000000001
 30
0
  0
MTEXT
  5
148
100
AcDbEntity
  8
bemassung
  6
ByLayer
 62
  256
370
   -1
100
AcDbMText
 10
32.00000000000006
 20
-66.00000000000013
 30
0
 40
2.2
 41
7.82222222222236
 71
    8
 72
    1
  1
2x45%%D
  7
standard
210
0
220
0
230
1
 50
0
 73
    2
 44
1
  0
CIRCLE
  5
149
100
AcDbEntity
  8
umrandung
  6
ByLayer
 62
  256
370
   -1
100
AcDbCircle
 10
-143.535353535
 20
10.42929291400003
 40
2.121212121
  0
LINE
  5
14A
100
AcDbEntity
  8
umrandung
  6
ByLayer
 62
  256
370
   -1
100
AcDbLine
 10
-140.0000000000001
 20
-42.0707070805
 11
-143.06170597267
 21
-43.83838384800001
  0
LINE
  5
14B
100
AcDbEntity
  8
umrandung
  6
ByLayer
 62
  256
370
   -1
100
AcDbLine
 10
-140.0000000000001
 20
-42.0707070805
 11
-143.06170597267
 21
-40.30303031299999
  0
LINE
  5
14C
100
AcDbEntity
  8
umrandung
  6
ByLayer
 62
  256
370
   -1
100
AcDbLine
 10
-143.06170597267
 20
-43.83838384800001
 11
-143.06170597267
 21
-40.30303031299999
  0
CIRCLE
  5
14D
100
AcDbEntity
  8
umrandung
  6
ByLayer
 62
  256
370
   -1
100
AcDbCircle
 10
-143.535353535
 20
-94.5707070752
 40
2.121212121
  0
LINE
  5
14E
100
AcDbEntity
  8
umrandung
  6
ByLayer
 62
  256
370
   -1
100
AcDbLine
 10
-140
 20
-140
 11
135.75757573
 21
-140
  0
LINE
  5
14F
100
AcDbEntity
  8
umrandung
  6
ByLayer
 62
  256
370
   -1
100
AcDbLine
 10
110.020216844
 20
-100.9342769736
 11
110.020216844
 21
-105.4418824277
  0
LINE
  5
150
100
AcDbEntity
  8
umrandung
  6
ByLayer
 62
  256
370
   -1
100
AcDbLine
 10
126.565656539
 20
-127.9798071729
 11
126.565656539
 21
-136.99491979828
  0
LINE
  5
151
100
AcDbEntity
  8
umrandung
  6
ByLayer
 62
  256
370
   -1
100
AcDbLine
 10
104.505074521
 20
-136.99487383868
 11
104.505074521
 21
-139.9999307070708
  0
LINE
  5
152
100
AcDbEntity
  8
umrandung
  6
ByLayer
 62
  256
370
   -1
100
AcDbLine
 10
60.38385533300004
 20
-100.9342748524
 11
60.38385533300004
 21
-127.9797562638
  0
LINE
  5
153
100
AcDbEntity
  8
umrandung
  6
ByLayer
 62
  256
370
   -1
100
AcDbLine
 10
49.35354806199996
 20
-112.9544818209
 11
49.35354806199996
 21
-127.9797018194
  0
LINE
  5
154
100
AcDbEntity
  8
umrandung
  6
ByLayer
 62
  256
370
   -1
100
AcDbLine
 10
42.00001695100002
 20
-100.9342798019
 11
42.00001695100002
 21
-139.9999335353544
  0
LINE
  5
155
100
AcDbEntity
  8
umrandung
  6
ByLayer
 62
  256
370
   -1
100
AcDbLine
 10
73.25252947399997
 20
-100.9342451554
 11
73.25252947399997
 21
-139.999931414141
  0
LINE
  5
156
100
AcDbEntity
  8
umrandung
  6
ByLayer
 62
  256
370
   -1
100
AcDbLine
 10
36.48485271000004
 20
-112.9544874775
 11
36.48487462899999
 21
-139.9999300000001
  0
LINE
  5
157
100
AcDbEntity
  8
umrandung
  6
ByLayer
 62
  256
370
   -1
100
AcDbLine
 10
27.29293351900003
 20
-112.9544740431
 11
27.29293351900003
 21
-139.9999356565652
  0
LINE
  5
158
100
AcDbEntity
  8
umrandung
  6
ByLayer
 62
  256
370
   -1
100
AcDbLine
 10
8.909095137000008
 20
-112.9544655583
 11
8.909095137000008
 21
-139.9999342424245
  0
LINE
  5
159
100
AcDbEntity
  8
umrandung
  6
ByLayer
 62
  256
370
   -1
100
AcDbLine
 10
3.393952107000018
 20
-124.9746944459
 11
73.25252947399997
 21
-124.9746824257
  0
LINE
  5
15A
100
AcDbEntity
  8
umrandung
  6
ByLayer
 62
  256
370
   -1
100
AcDbLine
 10
3.393952107000018
 20
-121.9696404058
 11
73.25252947399997
 21
-121.9696156584
  0
LINE
  5
15B
100
AcDbEntity
  8
umrandung
  6
ByLayer
 62
  256
370
   -1
100
AcDbLine
 10
3.393952107000018
 20
-118.9645644465
 11
73.25255139299998
 21
-118.964599093
  0
LINE
  5
15C
100
AcDbEntity
  8
umrandung
  6
ByLayer
 62
  256
370
   -1
100
AcDbLine
 10
3.393952107000018
 20
-115.9595273761
 11
73.25255139299998
 21
-115.9595351539
  0
LINE
  5
15D
100
AcDbEntity
  8
umrandung
  6
ByLayer
 62
  256
370
   -1
100
AcDbLine
 10
3.393952107000018
 20
-130.98480959686
 11
42.00001695100002
 21
-130.98480535444
  0
LINE
  5
15E
100
AcDbEntity
  8
umrandung
  6
ByLayer
 62
  256
370
   -1
100
AcDbLine
 10
3.393952107000018
 20
-133.98986080868
 11
42.00001695100002
 21
-133.98981272787
  0
LINE
  5
15F
100
AcDbEntity
  8
umrandung
  6
ByLayer
 62
  256
370
   -1
100
AcDbLine
 10
73.25252947399997
 20
-105.4418343469
 11
135.75757573
 21
-105.4418909125
  0
LINE
  5
160
100
AcDbEntity
  8
umrandung
  6
ByLayer
 62
  256
370
   -1
100
AcDbLine
 10
3.393952107000018
 20
-136.99489080838
 11
135.75757573
 21
-136.99488585889
  0
LINE
  5
161
100
AcDbEntity
  8
umrandung
  6
ByLayer
 62
  256
370
   -1
100
AcDbLine
 10
3.393952107000018
 20
-112.9544846492
 11
135.757618861
 21
-112.9544740431
  0
LINE
  5
162
100
AcDbEntity
  8
umrandung
  6
ByLayer
 62
  256
370
   -1
100
AcDbLine
 10
3.393952107000018
 20
-127.9797223244
 11
135.757618861
 21
-127.9798029305
  0
LINE
  5
163
100
AcDbEntity
  8
umrandung
  6
ByLayer
 62
  256
370
   -1
100
AcDbLine
 10
3.393952107000018
 20
-100.9342826302
 11
135.75757573
 21
-100.9342260645
  0
LINE
  5
164
100
AcDbEntity
  8
umrandung
  6
ByLayer
 62
  256
370
   -1
100
AcDbLine
 10
135.757618861
 20
-100.9342154585
 11
135.75757573
 21
-140
  0
LINE
  5
165
100
AcDbEntity
  8
umrandung
  6
ByLayer
 62
  256
370
   -1
100
AcDbLine
 10
135.75757573
 20
-140
 11
3.393952107000018
 21
-139.9999285858588
  0
LINE
  5
166
100
AcDbEntity
  8
umrandung
  6
ByLayer
 62
  256
370
   -1
100
AcDbLine
 10
3.393952107000018
 20
-100.9342826302
 11
3.393952107000018
 21
-139.9999285858588
  0
CIRCLE
  5
167
100
AcDbEntity
  8
umrandung
  6
ByLayer
 62
  256
370
   -1
100
AcDbCircle
 10
139.292929265
 20
10.42929291400003
 40
2.121212121
  0
LINE
  5
168
100
AcDbEntity
  8
umrandung
  6
ByLayer
 62
  256
370
   -1
100
AcDbLine
 10
135.75757573
 20
-42.0707070805
 11
138.819281703
 21
-43.83838384800001
  0
LINE
  5
169
100
AcDbEntity
  8
umrandung
  6
ByLayer
 62
  256
370
   -1
100
AcDbLine
 10
135.75757573
 20
-42.0707070805
 11
138.819281703
 21
-40.30303031299999
  0
LINE
  5
16A
100
AcDbEntity
  8
umrandung
  6
ByLayer
 62
  256
370
   -1
100
AcDbLine
 10
138.819281703
 20
-43.83838384800001
 11
138.819281703
 21
-40.30303031299999
  0
CIRCLE
  5
16B
100
AcDbEntity
  8
umrandung
  6
ByLayer
 62
  256
370
   -1
100
AcDbCircle
 10
139.292929265
 20
-94.5707070752
 40
2.121212121
  0
LINE
  5
16C
100
AcDbEntity
  8
umrandung
  6
ByLayer
 62
  256
370
   -1
100
AcDbLine
 10
-65.75757576500001
 20
-147.07070707
 11
-65.75757576500001
 21
-140.0000000000001
  0
LINE
  5
16D
100
AcDbEntity
  8
umrandung
  6
ByLayer
 62
  256
370
   -1
100
AcDbLine
 10
8.484848469999974
 20
-147.07070707
 11
8.484848469999974
 21
-139.9999999999997
  0
LINE
  5
16E
100
AcDbEntity
  8
umrandung
  6
ByLayer
 62
  256
370
   -1
100
AcDbLine
 10
-65.75759273469998
 20
-140.0000169696969
 11
-67.52526950219999
 21
-143.06172294236
  0
LINE
  5
16F
100
AcDbEntity
  8
umrandung
  6
ByLayer
 62
  256
370
   -1
100
AcDbLine
 10
-65.75759273469998
 20
-140.0000169696969
 11
-63.98991596720001
 21
-143.06172294236
  0
LINE
  5
170
100
AcDbEntity
  8
umrandung
  6
ByLayer
 62
  256
370
   -1
100
AcDbLine
 10
-67.52526950219999
 20
-143.06172294236
 11
-63.98991596720001
 21
-143.06172294236
  0
CIRCLE
  5
171
100
AcDbEntity
  8
umrandung
  6
ByLayer
 62
  256
370
   -1
100
AcDbCircle
 10
-28.63636364799999
 20
-143.535353535
 40
2.121212121
  0
LINE
  5
172
100
AcDbEntity
  8
umrandung
  6
ByLayer
 62
  256
370
   -1
100
AcDbLine
 10
8.484831500000041
 20
-140.0000169696965
 11
6.717154733000029
 21
-143.06172294236
  0
LINE
  5
173
100
AcDbEntity
  8
umrandung
  6
ByLayer
 62
  256
370
   -1
100
AcDbLine
 10
8.484831500000041
 20
-140.0000169696965
 11
10.25250826800004
 21
-143.06172294236
  0
LINE
  5
174
100
AcDbEntity
  8
umrandung
  6
ByLayer
 62
  256
370
   -1
100
AcDbLine
 10
6.717154733000029
 20
-143.06172294236
 11
10.25250826800004
 21
-143.06172294236
  0
CIRCLE
  5
175
100
AcDbEntity
  8
umrandung
  6
ByLayer
 62
  256
370
   -1
100
AcDbCircle
 10
-102.8787878825
 20
-143.535353535
 40
2.121212121
  0
MTEXT
  5
176
100
AcDbEntity
  8
umrandung
  6
ByLayer
 62
  256
370
   -1
100
AcDbMText
 10
-102.8787878825
 20
-143.535353535
 30
0
 40
2.828282828
 41
0.628507295111111
 71
    5
 72
    5
  1
1
  7
iso
210
0
220
0
230
1
 50
0
 73
    2
 44
0.96
  0
MTEXT
  5
177
100
AcDbEntity
  8
umrandung
  6
ByLayer
 62
  256
370
   -1
100
AcDbMText
 10
-28.63636364799999
 20
-143.535353535
 30
0
 40
2.828282828
 41
1.257014590222222
 71
    5
 72
    5
  1
2
  7
iso
210
0
220
0
230
1
 50
0
 73
    2
 44
0.96
  0
CIRCLE
  5
178
100
AcDbEntity
  8
umrandung
  6
ByLayer
 62
  256
370
   -1
100
AcDbCircle
 10
42.42424240599996
 20
-143.535353535
 40
2.121212121
  0
MTEXT
  5
179
100
AcDbEntity
  8
umrandung
  6
ByLayer
 62
  256
370
   -1
100
AcDbMText
 10
42.42424240599996
 20
-143.535353535
 30
0
 40
2.828282828
 41
1.257014590222397
 71
    5
 72
    5
  1
3
  7
iso
210
0
220
0
230
1
 50
0
 73
    2
 44
0.96
  0
LINE
  5
17A
100
AcDbEntity
  8
umrandung
  6
ByLayer
 62
  256
370
   -1
100
AcDbLine
 10
68.58585856499997
 20
-140.0000169696972
 11
66.81818179699997
 21
-143.06172294236
  0
LINE
  5
17B
100
AcDbEntity
  8
umrandung
  6
ByLayer
 62
  256
370
   -1
100
AcDbLine
 10
68.58585856499997
 20
-140.0000169696972
 11
70.35353533299997
 21
-143.06172294236
  0
LINE
  5
17C
100
AcDbEntity
  8
umrandung
  6
ByLayer
 62
  256
370
   -1
100
AcDbLine
 10
66.81818179699997
 20
-143.06172294236
 11
70.35353533299997
 21
-143.06172294236
  0
CIRCLE
  5
17D
100
AcDbEntity
  8
umrandung
  6
ByLayer
 62
  256
370
   -1
100
AcDbCircle
 10
102.525269471
 20
-143.535353535
 40
2.121212121
  0
MTEXT
  5
17E
100
AcDbEntity
  8
umrandung
  6
ByLayer
 62
  256
370
   -1
100
AcDbMText
 10
102.525269471
 20
-143.535353535
 30
0
 40
2.828282828
 41
1.571268237777778
 71
    5
 72
    5
  1
4
  7
iso
210
0
220
0
230
1
 50
0
 73
    2
 44
0.96
  0
MTEXT
  5
17F
100
AcDbEntity
  8
umrandung
  6
ByLayer
 62
  256
370
   -1
100
AcDbMText
 10
74.04886856400003
 20
-104.0718955091
 30
0
 40
1.7676767675
 41
13.30667879777433
 71
    7
 72
    5
  1
Maßstab 1:1
  7
iso
210
0
220
0
230
1
 50
0
 73
    1
 44
0.96
  0
MTEXT
  5
180
100
AcDbEntity
  8
umrandung
  6
ByLayer
 62
  256
370
   -1
100
AcDbMText
 10
73.88646785700001
 20
-127.3330399339
 30
0
 40
1.7676767675
 41
13.74859708055588
 71
    7
 72
    5
  1
Bezeichnung
  7
standard
210
0
220
0
230
1
 50
0
 73
    1
 44
0.96
  0
MTEXT
  5
181
100
AcDbEntity
  8
umrandung
  6
ByLayer
 62
  256
370
   -1
100
AcDbMText
 10
106.410078807
 20
-132.5650595016
 30
0
 40
5.656565656
 41
11.313131312
 71
    5
 72
    5
  1
---
  7
iso
210
0
220
0
230
1
 50
0
 73
    2
 44
0.96
  0
MTEXT
  5
182
100
AcDbEntity
  8
umrandung
  6
ByLayer
 62
  256
370
   -1
100
AcDbMText
 10
128.573670175
 20
-136.29666771794
 30
0
 40
1.414141414
 41
4.399550765976758
 71
    7
 72
    5
  1
Seite
  7
standard
210
0
220
0
230
1
 50
0
 73
    1
 44
0.96
  0
MTEXT
  5
183
100
AcDbEntity
  8
umrandung
  6
ByLayer
 62
  256
370
   -1
100
AcDbMText
 10
130.914764991
 20
-131.72007032289
 30
0
 40
2.828282828
 41
4.399551065777777
 71
    5
 72
    5
  1
1/1
  7
iso
210
0
220
0
230
1
 50
0
 73
    2
 44
0.96
  0
MTEXT
  5
184
100
AcDbEntity
  8
umrandung
  6
ByLayer
 62
  256
370
   -1
100
AcDbMText
 10
42.88549573900002
 20
-139.9704941750875
 30
0
 40
1.7676767675
 41
8.445566778055639
 71
    7
 72
    5
  1
Projekt
  7
iso
210
0
220
0
230
1
 50
0
 73
    1
 44
0.96
  0
MTEXT
  5
185
100
AcDbEntity
  8
umrandung
  6
ByLayer
 62
  256
370
   -1
100
AcDbMText
 10
42.35279715299998
 20
-124.3559835369
 30
0
 40
1.7676767675
 41
5.695847361944526
 71
    7
 72
    5
  1
Auth.
  7
standard
210
0
220
0
230
1
 50
0
 73
    1
 44
0.96
  0
MTEXT
  5
186
100
AcDbEntity
  8
umrandung
  6
ByLayer
 62
  256
370
   -1
100
AcDbMText
 10
51.33713523300003
 20
-115.340845457
 30
0
 40
1.7676767675
 41
6.67789001055583
 71
    7
 72
    5
  1
Datum
  7
iso
210
0
220
0
230
1
 50
0
 73
    1
 44
0.96
  0
MTEXT
  5
187
100
AcDbEntity
  8
umrandung
  6
ByLayer
 62
  256
370
   -1
100
AcDbMText
 10
63.75892725200003
 20
-115.3408511136
 30
0
 40
1.7676767675
 41
5.499438832222387
 71
    7
 72
    5
  1
Name
  7
iso
210
0
220
0
230
1
 50
0
 73
    1
 44
0.96
  0
MTEXT
  5
188
100
AcDbEntity
  8
umrandung
  6
ByLayer
 62
  256
370
   -1
100
AcDbMText
 10
28.57389533700001
 20
-139.381219798042
 30
0
 40
1.7676767675
 41
6.67789001055583
 71
    7
 72
    5
  1
Datum
  7
iso
210
0
220
0
230
1
 50
0
 73
    1
 44
0.96
  0
MTEXT
  5
189
100
AcDbEntity
  8
umrandung
  6
ByLayer
 62
  256
370
   -1
100
AcDbMText
 10
12.85840251000002
 20
-139.9704715488247
 30
0
 40
1.7676767675
 41
10.60606060500024
 71
    7
 72
    5
  1
Änderung
  7
iso
210
0
220
0
230
1
 50
0
 73
    1
 44
0.96
  0
MTEXT
  5
18A
100
AcDbEntity
  8
umrandung
  6
ByLayer
 62
  256
370
   -1
100
AcDbMText
 10
36.53791341700003
 20
-139.381267171779
 30
0
 40
1.7676767675
 41
5.499438832222387
 71
    7
 72
    5
  1
Name
  7
iso
210
0
220
0
230
1
 50
0
 73
    1
 44
0.96
  0
MTEXT
  5
18B
100
AcDbEntity
  8
umrandung
  6
ByLayer
 62
  256
370
   -1
100
AcDbMText
 10
74.438094019
 20
-139.263382457984
 30
0
 40
1.7676767675
 41
8.445567687149168
 71
    7
 72
    5
  1
ersetzt
  7
iso
210
0
220
0
230
1
 50
0
 73
    1
 44
0.96
  0
MTEXT
  5
18C
100
AcDbEntity
  8
umrandung
  6
ByLayer
 62
  256
370
   -1
100
AcDbMText
 10
105.690617147
 20
-139.263330841829
 30
0
 40
1.7676767675
 41
16.25280674360758
 71
    7
 72
    5
  1
ersetzt durch
  7
iso
210
0
220
0
230
1
 50
0
 73
    1
 44
0.96
  0
MTEXT
  5
18D
100
AcDbEntity
  8
umrandung
  6
ByLayer
 62
  256
370
   -1
100
AcDbMText
 10
73.73099149400002
 20
-136.11006205426
 30
0
 40
1.7676767675
 41
17.87317620472263
 71
    7
 72
    5
  1
Materialnummer
  7
iso
210
0
220
0
230
1
 50
0
 73
    1
 44
0.96
  0
MTEXT
  5
18E
100
AcDbEntity
  8
umrandung
  6
ByLayer
 62
  256
370
   -1
100
AcDbMText
 10
42.22134351700004
 20
-118.2280805409
 30
0
 40
1.7676767675
 41
5.695847361944609
 71
    7
 72
    5
  1
entw.
  7
standard
210
0
220
0
230
1
 50
0
 73
    1
 44
0.96
  0
MTEXT
  5
18F
100
AcDbEntity
  8
umrandung
  6
ByLayer
 62
  256
370
   -1
100
AcDbMText
 10
42.35279715299998
 20
-122.0579782846
 30
0
 40
1.7676767675
 41
5.106621772777778
 71
    7
 72
    5
  1
prüf.
  7
standard
210
0
220
0
230
1
 50
0
 73
    1
 44
0.96
  0
LINE
  5
190
100
AcDbEntity
  8
umrandung
  6
ByLayer
 62
  256
370
   -1
100
AcDbLine
 10
44.03010038599996
 20
-106.595946266
 11
58.17151452600001
 21
-106.595946266
  0
CIRCLE
  5
191
100
AcDbEntity
  8
umrandung
  6
ByLayer
 62
  256
370
   -1
100
AcDbCircle
 10
54.77757513200004
 20
-106.595946266
 40
1.9797979796
  0
CIRCLE
  5
192
100
AcDbEntity
  8
umrandung
  6
ByLayer
 62
  256
370
   -1
100
AcDbCircle
 10
54.77757513200004
 20
-106.595946266
 40
1.1313131312
  0
LINE
  5
193
100
AcDbEntity
  8
umrandung
  6
ByLayer
 62
  256
370
   -1
100
AcDbLine
 10
45.72707008200001
 20
-105.4646331348
 11
45.72707008200001
 21
-107.7272593972
  0
LINE
  5
194
100
AcDbEntity
  8
umrandung
  6
ByLayer
 62
  256
370
   -1
100
AcDbLine
 10
45.72707008200001
 20
-107.7272593972
 11
50.252322607
 21
-108.5757442456
  0
LINE
  5
195
100
AcDbEntity
  8
umrandung
  6
ByLayer
 62
  256
370
   -1
100
AcDbLine
 10
50.252322607
 20
-104.6161482864
 11
50.252322607
 21
-108.5757442456
  0
LINE
  5
196
100
AcDbEntity
  8
umrandung
  6
ByLayer
 62
  256
370
   -1
100
AcDbLine
 10
45.72707008200001
 20
-105.4646331348
 11
50.252322607
 21
-104.6161482864
  0
LINE
  5
197
100
AcDbEntity
  8
umrandung
  6
ByLayer
 62
  256
370
   -1
100
AcDbLine
 10
54.77757513200004
 20
-109.9898856596
 11
54.77757513200004
 21
-103.2020068724
  0
LINE
  5
198
100
AcDbEntity
  8
umrandung
  6
ByLayer
 62
  256
370
   -1
100
AcDbLine
 10
-147.07070707
 20
-147.07070707
 11
142.8282828
 21
-147.07070707
  0
MTEXT
  5
199
100
AcDbEntity
  8
umrandung
  6
ByLayer
 62
  256
370
   -1
100
AcDbMText
 10
-143.535353535
 20
-94.5707070752
 30
0
 40
2.828282828
 41
1.885521885333333
 71
    5
 72
    5
  1
A
  7
iso
210
0
220
0
230
1
 50
0
 73
    2
 44
0.96
  0
MTEXT
  5
19A
100
AcDbEntity
  8
umrandung
  6
ByLayer
 62
  256
370
   -1
100
AcDbMText
 10
-143.535353535
 20
10.42929291400003
 30
0
 40
2.828282828
 41
1.571268237777778
 71
    5
 72
    5
  1
B
  7
iso
210
0
220
0
230
1
 50
0
 73
    2
 44
0.96
  0
MTEXT
  5
19B
100
AcDbEntity
  8
umrandung
  6
ByLayer
 62
  256
370
   -1
100
AcDbMText
 10
139.292929265
 20
10.42929291400003
 30
0
 40
2.828282828
 41
1.571268237777778
 71
    5
 72
    5
  1
B
  7
iso
210
0
220
0
230
1
 50
0
 73
    2
 44
0.96
  0
MTEXT
  5
19C
100
AcDbEntity
  8
umrandung
  6
ByLayer
 62
  256
370
   -1
100
AcDbMText
 10
139.292929265
 20
-94.5707070752
 30
0
 40
2.828282828
 41
1.885521885333333
 71
    5
 72
    5
  1
A
  7
iso
210
0
220
0
230
1
 50
0
 73
    2
 44
0.96
  0
LINE
  5
19D
100
AcDbEntity
  8
umrandung
  6
ByLayer
 62
  256
370
   -1
100
AcDbLine
 10
-17
 20
-134.00510919162
 11
-17
 21
-134
  0
LINE
  5
19E
100
AcDbEntity
  8
umrandung
  6
ByLayer
 62
  256
370
   -1
100
AcDbLine
 10
-42
 20
-121.9798036375
 11
-3
 21
-121.9798036375
  0
LINE
  5
19F
100
AcDbEntity
  8
umrandung
  6
ByLayer
 62
  256
370
   -1
100
AcDbLine
 10
-42
 20
-124.984831516
 11
-3
 21
-124.984831516
  0
LINE
  5
1A0
100
AcDbEntity
  8
umrandung
  6
ByLayer
 62
  256
370
   -1
100
AcDbLine
 10
-42
 20
-127.9899187885
 11
-3
 21
-127.9899187885
  0
LINE
  5
1A1
100
AcDbEntity
  8
umrandung
  6
ByLayer
 62
  256
370
   -1
100
AcDbLine
 10
-42
 20
-130.9949700003
 11
-3
 21
-130.9949700003
  0
LINE
  5
1A2
100
AcDbEntity
  8
umrandung
  6
ByLayer
 62
  256
370
   -1
100
AcDbLine
 10
-42
 20
-134
 11
-3
 21
-134
  0
MTEXT
  5
1A3
100
AcDbEntity
  8
umrandung
  6
ByLayer
 62
  256
370
   -1
100
AcDbMText
 10
-40
 20
-130.70510919162
 30
0
 40
1.76768
 41
18.90435646465122
 71
    7
 72
    5
  1
über 3,0 bis 6,0
  7
iso
210
0
220
0
230
1
 50
0
 73
    1
 44
0.96
  0
MTEXT
  5
1A4
100
AcDbEntity
  8
umrandung
  6
ByLayer
 62
  256
370
   -1
100
AcDbMText
 10
-40
 20
-127.7051091916
 30
0
 40
1.76768
 41
18.90435646465111
 71
    7
 72
    5
  1
über 0,0 bis 3,0
  7
iso
210
0
220
0
230
1
 50
0
 73
    1
 44
0.96
  0
MTEXT
  5
1A5
100
AcDbEntity
  8
umrandung
  6
ByLayer
 62
  256
370
   -1
100
AcDbMText
 10
-40
 20
-124.3051091916
 30
0
 40
1.76768
 41
12.57016888888913
 71
    7
 72
    5
  1
Toleranzen
  7
iso
210
0
220
0
230
1
 50
0
 73
    1
 44
0.96
  0
LINE
  5
1A6
100
AcDbEntity
  8
umrandung
  6
ByLayer
 62
  256
370
   -1
100
AcDbLine
 10
-42
 20
-137
 11
-3
 21
-137
  0
LINE
  5
1A7
100
AcDbEntity
  8
umrandung
  6
ByLayer
 62
  256
370
   -1
100
AcDbLine
 10
-42
 20
-122.0051091916
 11
-42
 21
-137
  0
LINE
  5
1A8
100
AcDbEntity
  8
umrandung
  6
ByLayer
 62
  256
370
   -1
100
AcDbLine
 10
-3
 20
-137
 11
-3
 21
-122.0051091916
  0
MTEXT
  5
1A9
100
AcDbEntity
  8
umrandung
  6
ByLayer
 62
  256
370
   -1
100
AcDbMText
 10
-40
 20
-133.70510919162
 30
0
 40
1.76768
 41
20.27921868687344
 71
    7
 72
    5
  1
über 6,0 bis 30,0
  7
iso
210
0
220
0
230
1
 50
0
 73
    1
 44
0.96
  0
MTEXT
  5
1AA
100
AcDbEntity
  8
umrandung
  6
ByLayer
 62
  256
370
   -1
100
AcDbMText
 10
-40
 20
-136.7
 30
0
 40
1.76768
 41
22.63612535354
 71
    7
 72
    5
  1
über 30,0 bis 120,0
  7
iso
210
0
220
0
230
1
 50
0
 73
    1
 44
0.96
  0
LINE
  5
1AB
100
AcDbEntity
  8
umrandung
  6
ByLayer
 62
  256
370
   -1
100
AcDbLine
 10
-16
 20
-124.984831516
 11
-16
 21
-137
  0
MTEXT
  5
1AC
100
AcDbEntity
  8
umrandung
  6
ByLayer
 62
  256
370
   -1
100
AcDbMText
 10
53.588691998
 20
-139.263423067862
 30
0
 40
1.76768
 41
3.53536
 71
    7
 72
    5
  1
---
  7
iso
210
0
220
0
230
1
 50
0
 73
    1
 44
0.96
  0
MTEXT
  5
1AD
100
AcDbEntity
  8
umrandung
  6
ByLayer
 62
  256
370
   -1
100
AcDbMText
 10
60.89999999999998
 20
-121.4
 30
0
 40
1.76768
 41
3.53536
 71
    7
 72
    5
  1
---
  7
iso
210
0
220
0
230
1
 50
0
 73
    1
 44
0.96
  0
MTEXT
  5
1AE
100
AcDbEntity
  8
umrandung
  6
ByLayer
 62
  256
370
   -1
100
AcDbMText
 10
60.89999999999998
 20
-124.4050759593
 30
0
 40
1.76768
 41
3.53536
 71
    7
 72
    5
  1
---
  7
iso
210
0
220
0
230
1
 50
0
 73
    1
 44
0.96
  0
MTEXT
  5
1AF
100
AcDbEntity
  8
umrandung
  6
ByLayer
 62
  256
370
   -1
100
AcDbMText
 10
103.875111271
 20
-119.7493902908
 30
0
 40
2.82828
 41
21.99773478788166
 71
    5
 72
    5
  1
Holzstopfen
  7
iso
210
0
220
0
230
1
 50
0
 73
    2
 44
0.96
  0
MTEXT
  5
1B0
100
AcDbEntity
  8
umrandung
  6
ByLayer
 62
  256
370
   -1
100
AcDbMText
 10
74.07420149400002
 20
-108.5260932691
 30
0
 40
1.76768
 41
17.82410666666691
 71
    7
 72
    5
  1
Material: Buche
  7
standard
210
0
220
0
230
1
 50
0
 73
    1
 44
0.96
  0
MTEXT
  5
1B1
100
AcDbEntity
  8
umrandung
  6
ByLayer
 62
  256
370
   -1
100
AcDbMText
 10
60.89999999999998
 20
-118.4
 30
0
 40
1.76768
 41
2.55331555555572
 71
    7
 72
    5
  1
mb
  7
iso
210
0
220
0
230
1
 50
0
 73
    1
 44
0.96
  0
MTEXT
  5
1B2
100
AcDbEntity
  8
umrandung
  6
ByLayer
 62
  256
370
   -1
100
AcDbMText
 10
50.28194533499999
 20
-118.3459301368
 30
0
 40
1.76768
 41
8.641991111111221
 71
    7
 72
    5
  1
16.08.04
  7
iso
210
0
220
0
230
1
 50
0
 73
    1
 44
0.96
  0
LINE
  5
1B3
100
AcDbEntity
  8
umrandung
  6
ByLayer
 62
  256
370
   -1
100
AcDbLine
 10
-140
 20
48.858585839
 11
135.75757573
 21
48.858585839
  0
LINE
  5
1B4
100
AcDbEntity
  8
umrandung
  6
ByLayer
 62
  256
370
   -1
100
AcDbLine
 10
-65.75757576500001
 20
55.92929290899997
 11
-65.75757576500001
 21
48.858585839
  0
LINE
  5
1B5
100
AcDbEntity
  8
umrandung
  6
ByLayer
 62
  256
370
   -1
100
AcDbLine
 10
8.484848469999974
 20
55.92929290899997
 11
8.484848469999974
 21
48.858585839
  0
LINE
  5
1B6
100
AcDbEntity
  8
umrandung
  6
ByLayer
 62
  256
370
   -1
100
AcDbLine
 10
-65.75759273469998
 20
48.85860280899999
 11
-67.52526950219999
 21
51.92030878100002
  0
LINE
  5
1B7
100
AcDbEntity
  8
umrandung
  6
ByLayer
 62
  256
370
   -1
100
AcDbLine
 10
-65.75759273469998
 20
48.85860280899999
 11
-63.98991596720001
 21
51.92030878100002
  0
LINE
  5
1B8
100
AcDbEntity
  8
umrandung
  6
ByLayer
 62
  256
370
   -1
100
AcDbLine
 10
-67.52526950219999
 20
51.92030878100002
 11
-63.98991596720001
 21
51.92030878100002
  0
CIRCLE
  5
1B9
100
AcDbEntity
  8
umrandung
  6
ByLayer
 62
  256
370
   -1
100
AcDbCircle
 10
-28.63636364799999
 20
52.39393937400001
 40
2.121212121
  0
LINE
  5
1BA
100
AcDbEntity
  8
umrandung
  6
ByLayer
 62
  256
370
   -1
100
AcDbLine
 10
8.484831500000041
 20
48.85860280899999
 11
6.717154733000029
 21
51.92030878100002
  0
LINE
  5
1BB
100
AcDbEntity
  8
umrandung
  6
ByLayer
 62
  256
370
   -1
100
AcDbLine
 10
8.484831500000041
 20
48.85860280899999
 11
10.25250826800004
 21
51.92030878100002
  0
LINE
  5
1BC
100
AcDbEntity
  8
umrandung
  6
ByLayer
 62
  256
370
   -1
100
AcDbLine
 10
6.717154733000029
 20
51.92030878100002
 11
10.25250826800004
 21
51.92030878100002
  0
CIRCLE
  5
1BD
100
AcDbEntity
  8
umrandung
  6
ByLayer
 62
  256
370
   -1
100
AcDbCircle
 10
-102.8787878825
 20
52.39393937400001
 40
2.121212121
  0
MTEXT
  5
1BE
100
AcDbEntity
  8
umrandung
  6
ByLayer
 62
  256
370
   -1
100
AcDbMText
 10
-102.8787878825
 20
52.39393937400001
 30
0
 40
2.828282828
 41
0.628507295111111
 71
    5
 72
    5
  1
1
  7
iso
210
0
220
0
230
1
 50
0
 73
    2
 44
0.96
  0
MTEXT
  5
1BF
100
AcDbEntity
  8
umrandung
  6
ByLayer
 62
  256
370
   -1
100
AcDbMText
 10
-28.63636364799999
 20
52.39393937400001
 30
0
 40
2.828282828
 41
1.257014590222222
 71
    5
 72
    5
  1
2
  7
iso
210
0
220
0
230
1
 50
0
 73
    2
 44
0.96
  0
CIRCLE
  5
1C0
100
AcDbEntity
  8
umrandung
  6
ByLayer
 62
  256
370
   -1
100
AcDbCircle
 10
42.42424240599996
 20
52.39393937400001
 40
2.121212121
  0
MTEXT
  5
1C1
100
AcDbEntity
  8
umrandung
  6
ByLayer
 62
  256
370
   -1
100
AcDbMText
 10
42.42424240599996
 20
52.39393937400001
 30
0
 40
2.828282828
 41
1.257014590222397
 71
    5
 72
    5
  1
3
  7
iso
210
0
220
0
230
1
 50
0
 73
    2
 44
0.96
  0
LINE
  5
1C2
100
AcDbEntity
  8
umrandung
  6
ByLayer
 62
  256
370
   -1
100
AcDbLine
 10
68.58585856499997
 20
48.85860280899999
 11
66.81818179699997
 21
51.92030878100002
  0
LINE
  5
1C3
100
AcDbEntity
  8
umrandung
  6
ByLayer
 62
  256
370
   -1
100
AcDbLine
 10
68.58585856499997
 20
48.85860280899999
 11
70.35353533299997
 21
51.92030878100002
  0
LINE
  5
1C4
100
AcDbEntity
  8
umrandung
  6
ByLayer
 62
  256
370
   -1
100
AcDbLine
 10
66.81818179699997
 20
51.92030878100002
 11
70.35353533299997
 21
51.92030878100002
  0
CIRCLE
  5
1C5
100
AcDbEntity
  8
umrandung
  6
ByLayer
 62
  256
370
   -1
100
AcDbCircle
 10
102.525269471
 20
52.39393937400001
 40
2.121212121
  0
MTEXT
  5
1C6
100
AcDbEntity
  8
umrandung
  6
ByLayer
 62
  256
370
   -1
100
AcDbMText
 10
102.525269471
 20
52.39393937400001
 30
0
 40
2.828282828
 41
1.571268237777778
 71
    5
 72
    5
  1
4
  7
iso
210
0
220
0
230
1
 50
0
 73
    2
 44
0.96
  0
LINE
  5
1C7
100
AcDbEntity
  8
umrandung
  6
ByLayer
 62
  256
370
   -1
100
AcDbLine
 10
142.8282828
 20
55.92929290899997
 11
-147.07070707
 21
55.92929290899997
  0
LINE
  5
1C8
100
AcDbEntity
  8
umrandung
  6
ByLayer
 62
  256
370
   -1
100
AcDbLine
 10
-147.07070707
 20
55.92929290899997
 11
-147.07070707
 21
-147.07070707
  0
LINE
  5
1C9
100
AcDbEntity
  8
umrandung
  6
ByLayer
 62
  256
370
   -1
100
AcDbLine
 10
142.8282828
 20
-147.07070707
 11
142.8282828
 21
55.92929290899997
  0
LINE
  5
1CA
100
AcDbEntity
  8
umrandung
  6
ByLayer
 62
  256
370
   -1
100
AcDbLine
 10
135.75757573
 20
48.858585839
 11
135.75757573
 21
-140
  0
LINE
  5
1CB
100
AcDbEntity
  8
umrandung
  6
ByLayer
 62
  256
370
   -1
100
AcDbLine
 10
-140
 20
48.858585839
 11
-140
 21
-140
  0
MTEXT
  5
1CC
100
AcDbEntity
  8
umrandung
  6
ByLayer
 62
  256
370
   -1
100
AcDbMText
 10
-14
 20
-127.7051091916
 30
0
 40
1.76768
 41
7.905457777777778
 71
    7
 72
    5
  1
+/- 0,1
  7
iso
210
0
220
0
230
1
 50
0
 73
    1
 44
0.96
  0
MTEXT
  5
1CD
100
AcDbEntity
  8
umrandung
  6
ByLayer
 62
  256
370
   -1
100
AcDbMText
 10
-14
 20
-130.70510919162
 30
0
 40
1.76768
 41
7.905457777777778
 71
    7
 72
    5
  1
+/- 0,1
  7
iso
210
0
220
0
230
1
 50
0
 73
    1
 44
0.96
  0
MTEXT
  5
1CE
100
AcDbEntity
  8
umrandung
  6
ByLayer
 62
  256
370
   -1
100
AcDbMText
 10
-14
 20
-133.70510919162
 30
0
 40
1.76768
 41
8.298275555555556
 71
    7
 72
    5
  1
+/- 0,2
  7
iso
210
0
220
0
230
1
 50
0
 73
    1
 44
0.96
  0
MTEXT
  5
1CF
100
AcDbEntity
  8
umrandung
  6
ByLayer
 62
  256
370
   -1
100
AcDbMText
 10
-14
 20
-136.6
 30
0
 40
1.76768
 41
8.298275555555666
 71
    7
 72
    5
  1
+/- 0,3
  7
iso
210
0
220
0
230
1
 50
0
 73
    1
 44
0.96
  0
ENDSEC
  0
SECTION
  2
OBJECTS
  0
DICTIONARY
  5
C
330
0
100
AcDbDictionary
281
    1
  3
ACAD_GROUP
350
D
  0
DICTIONARY
  5
D
330
C
100
AcDbDictionary
281
    1
  0
ENDSEC
  0
EOF
